<svg width="192" height="362" viewBox="0 0 192 362" fill="none" xmlns="http://www.w3.org/2000/svg">
<rect width="13.1724" height="13.1908" transform="translate(135.676 37.9346)" fill="#B2B2B2"/>
<rect width="13.1724" height="13.1908" transform="translate(156.75 37.9346)" fill="#B2B2B2"/>
<rect width="13.1724" height="13.1908" transform="translate(177.828 37.9346)" fill="#B2B2B2"/>
<rect width="13.1724" height="13.1908" transform="translate(156.75 19.4678)" fill="#B2B2B2"/>
<path d="M0 5.27633V1.97863H42.1517V5.27633M21.7345 0V5.27633" transform="translate(141.602 32.6582)" stroke="#B1B1B1"/>
<path d="M94.1828 0H0L7.24483 34.9557H88.2552L94.1828 0Z" transform="translate(36.8828 1)" fill="#4E5357" stroke="#4E5357"/>
<path d="M84.3035 0H0L6.48488 27.7008H78.9976L84.3035 0Z" transform="translate(41.4922 4.95703)" fill="#E88205" stroke="#E88205"/>
<path d="M0 0H80.3517V40.5298C80.3517 42.1866 79.0086 43.5298 77.3517 43.5298H3C1.34314 43.5298 0 42.1866 0 40.5298V0Z" transform="translate(44.7852 36.6152)" fill="white"/>
<rect width="5.26897" height="5.27633" transform="translate(50.0547 43.21)" fill="#4C5457"/>
<rect width="5.26897" height="5.27633" transform="translate(57.957 43.21)" fill="#4C5457"/>
<rect width="5.26897" height="5.27633" transform="translate(65.8633 43.21)" fill="#4C5457"/>
<rect width="5.26897" height="5.27633" transform="translate(73.7656 43.21)" fill="#4C5457"/>
<rect width="5.26897" height="5.27633" transform="translate(81.668 43.21)" fill="#4C5457"/>
<rect width="5.26897" height="5.27633" transform="translate(89.5742 43.21)" fill="#4C5457"/>
<rect width="5.26897" height="5.27633" transform="translate(97.4766 43.21)" fill="#4C5457"/>
<rect width="5.26897" height="5.27633" transform="translate(105.379 43.21)" fill="#4C5457"/>
<rect width="5.26897" height="5.27633" transform="translate(113.281 43.21)" fill="#4C5457"/>
<rect width="5.26897" height="5.27633" transform="translate(50.0547 51.125)" fill="#4C5457"/>
<rect width="5.26897" height="5.27633" transform="translate(57.957 51.125)" fill="#4C5457"/>
<rect width="5.26897" height="5.27633" transform="translate(65.8633 51.125)" fill="#4C5457"/>
<rect width="5.26897" height="5.27633" transform="translate(73.7656 51.125)" fill="#4C5457"/>
<rect width="5.26897" height="5.27633" transform="translate(81.668 51.125)" fill="#4C5457"/>
<rect width="5.26897" height="5.27633" transform="translate(89.5742 51.125)" fill="#4C5457"/>
<rect width="5.26897" height="5.27633" transform="translate(97.4766 51.125)" fill="#4C5457"/>
<rect width="5.26897" height="5.27633" transform="translate(105.379 51.125)" fill="#4C5457"/>
<rect width="5.26897" height="5.27633" transform="translate(113.281 51.125)" fill="#4C5457"/>
<rect width="5.26897" height="5.27633" transform="translate(50.0547 59.0391)" fill="#4C5457"/>
<rect width="5.26897" height="5.27633" transform="translate(57.957 59.0391)" fill="#4C5457"/>
<rect width="5.26897" height="5.27633" transform="translate(65.8633 59.0391)" fill="#4C5457"/>
<rect width="5.26897" height="5.27633" transform="translate(73.7656 59.0391)" fill="#4C5457"/>
<rect width="5.26897" height="5.27633" transform="translate(81.668 59.0391)" fill="#4C5457"/>
<rect width="5.26897" height="5.27633" transform="translate(89.5742 59.0391)" fill="#4C5457"/>
<rect width="18.4414" height="10.5527" transform="translate(75.082 68.2725)" fill="#4C5457"/>
<rect width="5.26897" height="5.27633" transform="translate(97.4766 59.0391)" fill="#4C5457"/>
<rect width="5.26897" height="5.27633" transform="translate(105.379 59.0391)" fill="#4C5457"/>
<rect width="5.26897" height="5.27633" transform="translate(113.281 59.0391)" fill="#4C5457"/>
<rect width="28.0822" height="34.3972" transform="matrix(0.994632 -0.103473 0.103187 0.994662 5.76953 65.9023)" fill="white"/>
<rect width="12.1747" height="1.31898" transform="matrix(0.970843 -0.239718 0.239087 0.970998 9.22266 72.126)" fill="#C4C4C4"/>
<rect width="12.107" height="1.31898" transform="matrix(0.970843 -0.239718 0.239087 0.970998 9.48047 74.2129)" fill="#E88205"/>
<rect width="23.1336" height="1.31898" transform="matrix(0.970843 -0.239718 0.239087 0.970998 9.79297 76.8057)" fill="#C4C4C4"/>
<rect width="22.9844" height="1.31898" transform="matrix(0.970843 -0.239718 0.239087 0.970998 10.1133 79.4463)" fill="#C4C4C4"/>
<rect width="12.1747" height="1.31898" transform="matrix(0.970843 -0.239718 0.239087 0.970998 10.5898 83.3867)" fill="#C4C4C4"/>
<rect width="12.107" height="1.31898" transform="matrix(0.970843 -0.239718 0.239087 0.970998 10.8438 85.4736)" fill="#C4C4C4"/>
<rect width="23.1336" height="1.31898" transform="matrix(0.970843 -0.239718 0.239087 0.970998 11.1562 88.0674)" fill="#E88205"/>
<rect width="22.9844" height="1.31898" transform="matrix(0.970843 -0.239718 0.239087 0.970998 11.4766 90.708)" fill="#C4C4C4"/>
<path d="M0.355071 0L3.51151 0.184509L3.51696 14.4522H0L0.355071 0Z" transform="matrix(0.897785 0.440434 -0.447977 0.894045 6.47266 94.3086)" fill="#E88205"/>
<path d="M0 3.08803L3.08805 0L3.13664 4.31664L0 3.08803Z" transform="matrix(0.986429 0.164189 -0.2013 0.97953 7.24609 91.6309)" fill="#C4C4C4" stroke="#FFFFFD" stroke-width="0.1"/>
<path d="M0.303062 0L0.565521 1.25446H0.0406026L0.303062 0Z" transform="matrix(0.874621 0.484807 -0.589006 0.808129 10.2031 91.6309)" fill="black"/>
<rect width="28.0836" height="34.3955" transform="matrix(0.975889 0.218267 -0.217686 0.976019 137.895 74.8682)" fill="#F2F2F2"/>
<rect width="12.1743" height="1.31902" transform="matrix(0.982091 0.188407 -0.1879 0.982188 139.875 80.1162)" fill="#C4C4C4"/>
<rect width="12.1066" height="1.31902" transform="matrix(0.982091 0.188407 -0.1879 0.982188 139.242 82.1201)" fill="#E88205"/>
<rect width="23.1329" height="1.31902" transform="matrix(0.982091 0.188407 -0.1879 0.982188 138.445 84.6064)" fill="black"/>
<rect width="22.9837" height="1.31902" transform="matrix(0.982091 0.188407 -0.1879 0.982188 137.633 87.1396)" fill="#C4C4C4"/>
<rect width="12.1743" height="1.31902" transform="matrix(0.982091 0.188407 -0.1879 0.982188 138.559 90.6689)" fill="#C4C4C4"/>
<rect width="12.1066" height="1.31902" transform="matrix(0.982091 0.188407 -0.1879 0.982188 137.926 93.9922)" fill="#E88205"/>
<rect width="23.1329" height="1.31902" transform="matrix(0.982091 0.188407 -0.1879 0.982188 137.129 96.4785)" fill="#C4C4C4"/>
<rect width="22.9837" height="1.31902" transform="matrix(0.982091 0.188407 -0.1879 0.982188 136.312 99.0107)" fill="#C4C4C4"/>
<rect width="12.1743" height="1.31902" transform="matrix(0.982091 0.188407 -0.1879 0.982188 135.922 101.222)" fill="black"/>
<rect width="12.1066" height="1.31902" transform="matrix(0.982091 0.188407 -0.1879 0.982188 135.289 103.226)" fill="#E88205"/>
<ellipse cx="2.63448" cy="2.63817" rx="2.63448" ry="2.63817" transform="translate(153.191 93.3066)" fill="#E88205"/>
<rect width="2.63622" height="5.27019" rx="1.31811" transform="translate(148.512 122.356) scale(0.999303 1.0007) rotate(43.4001)" fill="white"/>
<path d="M19.0086 9.89313C19.0086 14.9437 14.9203 19.0363 9.87931 19.0363C4.83832 19.0363 0.75 14.9437 0.75 9.89313C0.75 4.84253 4.83832 0.75 9.87931 0.75C14.9203 0.75 19.0086 4.84253 19.0086 9.89313Z" transform="translate(144.895 106.527)" fill="#565656" stroke="white" stroke-width="1.5"/>
<path d="M36.6211 272V94.6074H14.6484V78.6406L75.4395 58.1328V272H36.6211Z" transform="translate(34 48)" fill="#E88205" fill-opacity="0.3"/>
</svg>
