<svg width="158" height="377" viewBox="0 0 158 377" fill="none" xmlns="http://www.w3.org/2000/svg">
<path d="M14.6484 69.8516C34.1797 63.9922 54.6875 61.0625 76.1719 61.0625C128.418 61.0625 154.541 80.1055 154.541 118.191C154.541 141.238 145.361 157.107 127.002 165.799C145.361 174.1 154.541 189.969 154.541 213.406C154.541 253.445 128.418 273.465 76.1719 273.465C54.6875 273.465 34.1797 270.535 14.6484 264.676V229.52C34.1797 236.355 54.6875 239.773 76.1719 239.773C102.539 239.773 115.723 230.984 115.723 213.406C115.723 192.898 106.348 182.645 87.5977 182.645H36.6211V148.953H87.1582C106.201 148.953 115.723 138.699 115.723 118.191C115.723 102.566 102.539 94.7539 76.1719 94.7539C54.6875 94.7539 34.1797 98.1719 14.6484 105.008V69.8516Z" transform="translate(0 63)" fill="#E88205" fill-opacity="0.3"/>
<path d="M26.4398 14.6948V11.9403L24.4328 11.2509V11.2537C24.3218 10.6359 24.1623 10.0366 23.9578 9.45899L25.3515 7.85148L23.9845 5.46549L21.9054 5.87915L21.9124 5.8912C21.7102 5.65113 21.4982 5.42097 21.279 5.19962C21.0586 4.97763 20.8291 4.76467 20.5915 4.56032L20.603 4.56741L21.0136 2.47268L18.6458 1.09426L17.0488 2.50021C16.4749 2.29478 15.8814 2.13281 15.2697 2.01944H15.2714L14.5876 2.49455e-07H11.8515L11.1683 2.01944H11.17C10.5583 2.13281 9.96332 2.29478 9.38878 2.50021L7.79328 1.09426L5.42554 2.47268L5.83653 4.56741L5.84805 4.56032C5.60978 4.76467 5.3807 4.9772 5.15993 5.19962C4.9396 5.42097 4.72866 5.65113 4.52711 5.8912L4.5348 5.87915L2.45464 5.46549L1.08758 7.85213L2.48197 9.45856C2.27765 10.0361 2.11795 10.6354 2.0065 11.2526V11.2504L-7.29746e-07 11.9398V14.6954L2.0065 15.3844V15.3827C2.11795 16 2.27765 16.598 2.48197 17.1756L1.08758 18.7835L2.45507 21.1708L4.5348 20.7561L4.52711 20.7445C4.72887 20.9841 4.94131 21.2147 5.15993 21.4356C5.38027 21.6576 5.60978 21.8706 5.84634 22.0739L5.42489 24.1621L7.79434 25.5421L9.38815 24.1357C9.96268 24.3422 10.5562 24.5031 11.1688 24.6154H11.1677L11.8509 26.6359H14.5869L15.2708 24.6154H15.2689C15.882 24.5024 16.4756 24.3418 17.0495 24.1357L18.645 25.5421L21.0132 24.1621L20.6022 22.0685L20.5906 22.0745C20.8285 21.8712 21.058 21.6587 21.2781 21.4363C21.4974 21.2154 21.7094 20.9848 21.9105 20.7451L21.9045 20.7567L23.9836 21.1698L25.3511 18.7842L23.9567 17.1762C24.161 16.5987 24.3207 16 24.4318 15.3833V15.385L26.4398 14.6948ZM13.2203 18.9806C10.1153 18.9806 7.59942 16.4453 7.59942 13.3174C7.59942 10.1902 10.1158 7.65423 13.2203 7.65423C16.3242 7.65423 18.8405 10.1902 18.8405 13.3174C18.8408 16.4453 16.3244 18.9806 13.2203 18.9806Z" transform="translate(51.5586 62)" fill="#FF8E31"/>
<path d="M6.97193 -5.77686e-07C3.12077 -5.77686e-07 -2.60623e-06 3.14446 -2.60623e-06 7.02396C-2.60623e-06 10.9035 3.12098 14.0479 6.97193 14.0479C10.8225 14.0479 13.9445 10.9035 13.9445 7.02396C13.9445 3.14446 10.8227 -5.77686e-07 6.97193 -5.77686e-07ZM6.97193 12.4223C4.01171 12.4223 1.61387 10.0064 1.61387 7.02461C1.61387 4.04319 4.01171 1.62687 6.97193 1.62687C9.93108 1.62687 12.3294 4.04319 12.3294 7.02461C12.3296 10.0064 9.93108 12.4223 6.97193 12.4223Z" transform="translate(57.8086 68.293)" fill="#FF9D4D"/>
<path d="M38.0483 21.147V17.1814L35.1586 16.1902C35.0027 15.302 34.7689 14.4439 34.4796 13.6097L36.4866 11.2969L34.5189 7.86719L31.5205 8.45702C31.2241 8.11843 30.9274 7.78803 30.6225 7.48128C30.3104 7.16679 29.9824 6.86069 29.6468 6.56944L30.2403 3.55619L26.8352 1.57438L24.5325 3.59491C23.7116 3.29762 22.8617 3.06853 21.979 2.90376L20.9952 0H17.0523L16.0674 2.90376C15.1858 3.06832 14.3348 3.29741 13.5079 3.59491L11.2117 1.57438L7.80716 3.55619L8.40069 6.56944C8.06464 6.86026 7.72902 7.16701 7.42456 7.48128C7.10473 7.79685 6.80092 8.135 6.5112 8.48133L6.51888 8.45766L3.5292 7.86783L1.56049 11.2975L3.56742 13.6104C3.27876 14.4446 3.04498 15.3098 2.88101 16.1908L0 17.1821V21.1476L2.88101 22.1388C3.04498 23.027 3.2794 23.8932 3.56742 24.7193L1.56049 27.0321L3.5292 30.4689L6.51888 29.8709C6.8086 30.2091 7.11242 30.5399 7.42456 30.8544C7.7367 31.17 8.0734 31.4767 8.40838 31.7669L7.80716 34.773L11.2194 36.7626L13.5083 34.741C14.3352 35.0322 15.1946 35.268 16.0678 35.4255L17.0527 38.3346H20.9956L21.9795 35.4255C22.8621 35.268 23.712 35.0323 24.5406 34.7315L26.8356 36.7624L30.2407 34.7728L29.6472 31.7585C29.9828 31.4672 30.3108 31.1622 30.6229 30.8538C30.9278 30.5393 31.2318 30.2084 31.5209 29.8703L34.5193 30.4683L36.487 27.0315L34.4801 24.7186C34.7691 23.8926 35.0031 23.027 35.159 22.1382L38.0483 21.147ZM19.0278 24.7337C15.9677 24.7337 13.4921 22.2412 13.4921 19.1658C13.4921 16.088 15.9674 13.5958 19.0278 13.5958C22.0805 13.5958 24.5562 16.0882 24.5562 19.1658C24.5558 22.2412 22.0802 24.7337 19.0278 24.7337Z" transform="translate(25 82.665)" fill="#8C8C8C"/>
<path d="M8.40731 -5.25169e-08C3.76043 -5.25169e-08 -2.34561e-07 3.78915 -2.34561e-07 8.46347C-2.34561e-07 13.1371 3.76043 16.9323 8.40731 16.9323C13.0465 16.9323 16.8076 13.1371 16.8076 8.46347C16.8069 3.78872 13.0465 -5.25169e-08 8.40731 -5.25169e-08ZM8.40731 12.941C5.94605 12.941 3.95493 10.9359 3.95493 8.46347C3.95493 5.99036 5.94605 3.98361 8.40731 3.98361C10.862 3.98361 12.8514 5.99036 12.8514 8.46347C12.8514 10.9359 10.8613 12.941 8.40731 12.941Z" transform="translate(35.6211 93.3672)" fill="#FF9D4D"/>
<path d="M10.9439 6.56461e-07C4.89626 6.56461e-07 2.34561e-07 4.93245 2.34561e-07 11.0175C2.34561e-07 17.1025 4.89605 22.0427 10.9439 22.0427C16.9835 22.0427 21.8781 17.102 21.8781 11.0175C21.8781 4.93181 16.9835 6.56461e-07 10.9439 6.56461e-07ZM10.9439 17.3634C7.45637 17.3634 4.63664 14.5218 4.63664 11.0175C4.63664 7.51398 7.45637 4.67088 10.9439 4.67088C14.4217 4.67088 17.2421 7.51398 17.2421 11.0175C17.2421 14.522 14.4219 17.3634 10.9439 17.3634Z" transform="translate(33.0859 90.8125)" fill="#F28124"/>
<path d="M3.57816e-07 3.33051L1.4258 4.75832L3.09293 6.41478L3.73316 7.06139L7.05986 3.73332L3.33061 -8.3494e-07L3.57816e-07 3.33051Z" transform="translate(123.676 105.678)" fill="#5D6D7E"/>
<path d="M6.74035 -3.57831e-06L18.2163 11.474C19.0793 12.3332 19.6145 13.5289 19.6133 14.8434C19.6133 16.161 19.0793 17.3556 18.2163 18.2179C17.3558 19.0777 16.1628 19.6093 14.8464 19.6093C13.53 19.6093 12.3387 19.0777 11.476 18.2154L1.4909e-06 6.74089L6.74035 -3.57831e-06Z" transform="translate(127.387 109.391)" fill="#FF8E31"/>
<path d="M-8.94539e-07 0.934854L0.931155 -2.68373e-06L12.4084 11.4777C13.1351 12.2037 13.534 13.1674 13.532 14.1936C13.532 15.2247 13.1331 16.1904 12.4084 16.9151C12.2777 17.0439 12.1089 17.1071 11.9418 17.1071C11.7723 17.1071 11.6028 17.0439 11.4735 16.9132C11.2178 16.6562 11.2178 16.239 11.4735 15.9832C11.9526 15.5061 12.2139 14.8683 12.2139 14.1929C12.2147 13.5199 11.953 12.8872 11.4755 12.4118L-8.94539e-07 0.934854Z" transform="translate(132.543 110.04)" fill="#FEC979"/>
<path d="M0.99466 7.73584L7.73453 0.99568L7.23182 0.491003C6.92844 0.185898 6.51343 -8.3494e-07 6.05176 -8.3494e-07C5.58838 -8.3494e-07 5.17312 0.185656 4.8712 0.487097L0.489029 4.87264C0.188334 5.17091 -2.9818e-07 5.58814 -2.9818e-07 6.05154C-2.9818e-07 6.51054 0.188334 6.93143 0.489029 7.23043L0.99466 7.73584Z" transform="translate(126.395 108.395)" fill="#34495E"/>
<path d="M-2.9818e-08 21.5484C-2.9818e-08 9.64904 9.64642 -9.54217e-07 21.5469 -9.54217e-07C33.447 -9.54217e-07 43.0944 9.64855 43.0927 21.5484C43.0946 33.4494 33.4463 43.0943 21.5469 43.0982C9.64691 43.0943 -2.9818e-08 33.4494 -2.9818e-08 21.5484Z" transform="translate(88.9883 70.9863)" fill="#34495E"/>
<path d="M19.2156 38.4318C29.8242 38.4318 38.4289 29.8282 38.4289 19.2153C38.4289 8.60621 29.8242 1.78916e-06 19.2156 1.78916e-06C8.60437 1.78916e-06 1.52072e-06 8.60548 1.52072e-06 19.2153C1.52072e-06 29.8287 8.60388 38.4318 19.2156 38.4318Z" transform="translate(91.3203 73.3193)" fill="#5D6D7E"/>
<path d="M17.6763 35.3538C27.4351 35.3538 35.3525 27.4419 35.3525 17.6763C35.3525 7.91636 27.4353 0 17.6763 0C7.9148 0 0 7.91563 0 17.6763C0.000732806 27.4419 7.91431 35.3538 17.6763 35.3538Z" transform="translate(92.8594 74.8574)" fill="#D5D5D5"/>
<path d="M9.01446 0.69544C8.71426 0.24963 8.19787 -0.0305578 7.628 0.00266424C5.18799 0.150209 2.88308 0.838099 0.775037 2.05999C0.0327038 2.49578 -0.221094 3.45335 0.210284 4.19621C0.642396 4.93418 1.59969 5.19605 2.34007 4.75708C4.02161 3.78777 5.86071 3.23692 7.81169 3.11869C8.66834 3.07423 9.32811 2.33504 9.27315 1.47836C9.26533 1.17936 9.16591 0.913582 9.01446 0.69544Z" transform="translate(101.984 77.0645)" fill="white"/>
<path d="M5.95629 0.689079C5.87373 0.563275 5.76552 0.450904 5.64607 0.350749C4.97628 -0.196437 3.9953 -0.0901746 3.45376 0.577197C1.86161 2.53265 0.766799 4.88018 0.282658 7.37598C-0.288931 10.3408 0.0100548 13.3738 1.14615 16.1586C1.47811 16.9596 2.38923 17.3355 3.18408 17.0072C3.9826 16.6825 4.36146 15.7753 4.03585 14.9728C3.12839 12.756 2.8934 10.332 3.35287 7.96763C3.73051 5.97406 4.60548 4.1024 5.87666 2.54267C6.3183 2.00159 6.33027 1.23822 5.95629 0.689079Z" transform="translate(95.0352 82.1953)" fill="white"/>
<path d="M35.2714 56.4352C35.2727 56.4352 35.2727 56.4352 35.2746 56.4352V53.0045C33.7445 53.3272 32.1604 53.4967 30.5353 53.4967C17.8543 53.4967 7.57331 43.2172 7.57331 30.5349C7.57331 17.8566 17.8543 7.57315 30.5353 7.57315C43.217 7.57315 53.4968 17.8566 53.4968 30.5349C53.4968 32.1596 53.3268 33.7431 53.0053 35.2696H56.4483L61.0701 33.6898V27.3762L56.4351 25.7947V25.7996C56.1794 24.3857 55.8091 23.0131 55.3364 21.6871L58.5549 18.0039L55.3994 12.5328L50.5964 13.4815L50.6113 13.5072C50.143 12.96 49.6564 12.4297 49.1481 11.9218C48.6378 11.4108 48.1095 10.9237 47.5611 10.4566L47.5875 10.4735L48.5362 5.67022L43.0665 2.51144L39.3795 5.73129C38.0544 5.25787 36.6818 4.89194 35.268 4.63007H35.2724L33.6935 4.1747e-07H27.3757L25.7967 4.63007H25.8011C24.3893 4.89218 23.0116 5.25787 21.6852 5.73129L18.0021 2.51144L12.5329 5.67022L13.4817 10.4735L13.5093 10.4566C12.9597 10.9237 12.4282 11.4103 11.9203 11.9218C11.41 12.4302 10.9235 12.96 10.4557 13.5072L10.4738 13.4815L5.66875 12.5328L2.51011 18.0039L5.73177 21.6871C5.26155 23.0136 4.88953 24.3854 4.63182 25.7996V25.7947L6.85813e-07 27.3762V33.6915L4.63182 35.2749V35.2693C4.88953 36.6852 5.26155 38.057 5.73177 39.3798L2.51011 43.067L5.67046 48.5381L10.4735 47.5908L10.4554 47.5632C10.9232 48.1123 11.411 48.6412 11.9201 49.1502C12.4279 49.6586 12.9582 50.1452 13.5054 50.6086L12.5329 55.3982L18.0038 58.5587L21.6852 55.3369C23.0116 55.8108 24.3854 56.1779 25.7967 56.4349L27.3757 61.0689H33.6939L35.2748 56.4349L35.2714 56.4352Z" transform="translate(80 62)" fill="#34495E"/>
<path d="M61.7714 0H0V42.7933H61.7714V0Z" transform="translate(41.9375 1)" fill="#4E5357" stroke="#4E5357"/>
<path d="M55.2919 0H0V33.5912H55.2919V0Z" transform="translate(44.9609 5.95605)" fill="white" stroke="white"/>
<path d="M0 0H69V1.57333C69 3.23019 67.6569 4.57333 66 4.57333H3C1.34315 4.57333 0 3.23019 0 1.57333V0Z" transform="translate(38 45.4268)" fill="#4E5357"/>
<rect width="44.0286" height="26.1333" transform="translate(50.4883 9.49316)" fill="#C4C4C4"/>
<rect width="44.0286" height="3.26667" transform="translate(50.4883 9.49316)" fill="#E88205"/>
<path d="M9.2839 5.00674V4.06825L8.5792 3.83335V3.8343C8.54022 3.62381 8.48422 3.41962 8.4124 3.22283L8.90179 2.67513L8.42177 1.86218L7.69173 2.00312L7.6942 2.00723C7.62321 1.92543 7.54876 1.84701 7.47177 1.7716C7.3944 1.69596 7.31381 1.6234 7.23037 1.55377L7.23442 1.55619L7.37859 0.842483L6.54719 0.372832L5.98643 0.851863C5.78491 0.78187 5.5765 0.726682 5.36172 0.688057H5.36232L5.1222 8.49935e-08H4.16148L3.92158 0.688057H3.92218C3.7074 0.726682 3.49846 0.78187 3.29672 0.851863L2.73649 0.372832L1.90509 0.842483L2.0494 1.55619L2.05345 1.55377C1.96979 1.6234 1.88935 1.69581 1.81183 1.7716C1.73446 1.84701 1.66039 1.92543 1.58962 2.00723L1.59232 2.00312L0.861909 1.86218L0.381887 2.67535L0.871504 3.22269C0.799759 3.41947 0.743684 3.62366 0.704551 3.83394V3.8332L-2.56239e-07 4.0681V5.00696L0.704551 5.24171V5.24113C0.743684 5.45147 0.799759 5.65522 0.871504 5.85201L0.381887 6.39986L0.862057 7.21325L1.59232 7.07194L1.58962 7.06798C1.66047 7.14963 1.73506 7.2282 1.81183 7.30347C1.8892 7.3791 1.96979 7.45166 2.05285 7.52092L1.90486 8.23243L2.73686 8.7026L3.2965 8.22342C3.49824 8.29378 3.70665 8.3486 3.92173 8.38686H3.92136L4.16125 9.07528H5.12197L5.36209 8.38686H5.36142C5.57673 8.34838 5.78514 8.29363 5.98665 8.22342L6.54689 8.7026L7.37843 8.23243L7.23412 7.51909L7.23007 7.52114C7.31359 7.45188 7.39418 7.37947 7.47147 7.30369C7.54846 7.22842 7.62291 7.14985 7.69353 7.0682L7.69143 7.07216L8.42147 7.21288L8.90164 6.40008L8.41202 5.85223C8.48377 5.65544 8.53984 5.45147 8.57883 5.24135V5.24193L9.2839 5.00674ZM4.6421 6.46699C3.55184 6.46699 2.66841 5.60319 2.66841 4.53746C2.66841 3.47195 3.55199 2.60792 4.6421 2.60792C5.73199 2.60792 6.61556 3.47195 6.61556 4.53746C6.61563 5.60319 5.73206 6.46699 4.6421 6.46699Z" transform="translate(67.3945 33.666) scale(1 -1)" fill="#FF8E31"/>
<path d="M2.44808 -1.96827e-07C1.09581 -1.96827e-07 -9.15138e-07 1.07137 -9.15138e-07 2.39318C-9.15138e-07 3.71498 1.09588 4.78636 2.44808 4.78636C3.80013 4.78636 4.89639 3.71498 4.89639 2.39318C4.89639 1.07137 3.80021 -1.96827e-07 2.44808 -1.96827e-07ZM2.44808 4.23249C1.40865 4.23249 0.566685 3.40936 0.566685 2.3934C0.566685 1.37758 1.40865 0.554301 2.44808 0.554301C3.48714 0.554301 4.32926 1.37758 4.32926 2.3934C4.32933 3.40936 3.48714 4.23249 2.44808 4.23249Z" transform="translate(69.5898 31.5215) scale(1 -1)" fill="#FF9D4D"/>
<path d="M13.3601 7.20511V5.85399L12.3454 5.51626C12.2906 5.21364 12.2086 4.92128 12.107 4.63706L12.8117 3.84904L12.1208 2.68048L11.0679 2.88144C10.9639 2.76608 10.8597 2.65351 10.7526 2.54899C10.643 2.44184 10.5278 2.33755 10.41 2.23831L10.6184 1.21165L9.42274 0.536418L8.61421 1.22484C8.32596 1.12355 8.02751 1.0455 7.71759 0.989358L7.37214 0H5.98763L5.6418 0.989358C5.33226 1.04543 5.03343 1.12348 4.74308 1.22484L3.9368 0.536418L2.74136 1.21165L2.94977 2.23831C2.83177 2.3374 2.71392 2.44192 2.60702 2.54899C2.49471 2.65651 2.38803 2.77173 2.2863 2.88973L2.289 2.88166L1.23922 2.6807L0.547942 3.84925L1.25264 4.63728C1.15129 4.92151 1.0692 5.21628 1.01162 5.51648L0 5.85421V7.20533L1.01162 7.54306C1.0692 7.84568 1.15151 8.14082 1.25264 8.42226L0.547942 9.21029L1.23922 10.3813L2.289 10.1775C2.39073 10.2927 2.49741 10.4054 2.60702 10.5126C2.71662 10.6201 2.83484 10.7246 2.95247 10.8235L2.74136 11.8477L3.9395 12.5256L4.74323 11.8368C5.03358 11.9361 5.33533 12.0164 5.64195 12.07L5.98778 13.0612H7.37229L7.71774 12.07C8.02766 12.0164 8.32611 11.9361 8.61706 11.8336L9.42289 12.5255L10.6186 11.8477L10.4101 10.8206C10.528 10.7214 10.6431 10.6175 10.7527 10.5124C10.8598 10.4052 10.9666 10.2925 11.0681 10.1773L12.1209 10.381L12.8118 9.21007L12.1071 8.42204C12.2086 8.1406 12.2908 7.84568 12.3455 7.54284L13.3601 7.20511ZM6.68131 8.42717C5.60679 8.42717 4.73753 7.57794 4.73753 6.5301C4.73753 5.48145 5.60671 4.6323 6.68131 4.6323C7.7532 4.6323 8.62253 5.48152 8.62253 6.5301C8.62238 7.57794 7.75313 8.42717 6.68131 8.42717Z" transform="translate(58.0703 26.626) scale(1 -1)" fill="#8C8C8C"/>
<path d="M13.3601 7.20511V5.85399L12.3454 5.51626C12.2906 5.21364 12.2086 4.92128 12.107 4.63706L12.8117 3.84904L12.1208 2.68048L11.0679 2.88144C10.9639 2.76608 10.8597 2.65351 10.7526 2.54899C10.643 2.44184 10.5278 2.33755 10.41 2.23831L10.6184 1.21165L9.42274 0.536418L8.61421 1.22484C8.32596 1.12355 8.02751 1.0455 7.71759 0.989358L7.37214 0H5.98763L5.6418 0.989358C5.33226 1.04543 5.03343 1.12348 4.74308 1.22484L3.9368 0.536418L2.74136 1.21165L2.94977 2.23831C2.83177 2.3374 2.71392 2.44192 2.60702 2.54899C2.49471 2.65651 2.38803 2.77173 2.2863 2.88973L2.289 2.88166L1.23922 2.6807L0.547942 3.84925L1.25264 4.63728C1.15129 4.92151 1.0692 5.21628 1.01162 5.51648L0 5.85421V7.20533L1.01162 7.54306C1.0692 7.84568 1.15151 8.14082 1.25264 8.42226L0.547942 9.21029L1.23922 10.3813L2.289 10.1775C2.39073 10.2927 2.49741 10.4054 2.60702 10.5126C2.71662 10.6201 2.83484 10.7246 2.95247 10.8235L2.74136 11.8477L3.9395 12.5256L4.74323 11.8368C5.03358 11.9361 5.33533 12.0164 5.64195 12.07L5.98778 13.0612H7.37229L7.71774 12.07C8.02766 12.0164 8.32611 11.9361 8.61706 11.8336L9.42289 12.5255L10.6186 11.8477L10.4101 10.8206C10.528 10.7214 10.6431 10.6175 10.7527 10.5124C10.8598 10.4052 10.9666 10.2925 11.0681 10.1773L12.1209 10.381L12.8118 9.21007L12.1071 8.42204C12.2086 8.1406 12.2908 7.84568 12.3455 7.54284L13.3601 7.20511ZM6.68131 8.42717C5.60679 8.42717 4.73753 7.57794 4.73753 6.5301C4.73753 5.48145 5.60671 4.6323 6.68131 4.6323C7.7532 4.6323 8.62253 5.48152 8.62253 6.5301C8.62238 7.57794 7.75313 8.42717 6.68131 8.42717Z" transform="translate(74.8203 29.3652) scale(1 -1)" fill="#8C8C8C"/>
<path d="M2.95209 -1.78934e-08C1.32041 -1.78934e-08 -8.23624e-08 1.29102 -8.23624e-08 2.88364C-8.23624e-08 4.47604 1.32041 5.76912 2.95209 5.76912C4.58108 5.76912 5.90171 4.47604 5.90171 2.88364C5.90149 1.29088 4.58108 -1.78934e-08 2.95209 -1.78934e-08ZM2.95209 4.4092C2.08786 4.4092 1.38871 3.72605 1.38871 2.88364C1.38871 2.04101 2.08786 1.35728 2.95209 1.35728C3.814 1.35728 4.51256 2.04101 4.51256 2.88364C4.51256 3.72605 3.81378 4.4092 2.95209 4.4092Z" transform="translate(61.793 22.9795) scale(1 -1)" fill="#FF9D4D"/>
<path d="M3.84279 2.23667e-07C1.71924 2.23667e-07 8.23624e-08 1.68057 8.23624e-08 3.75383C8.23624e-08 5.82709 1.71917 7.5103 3.84279 7.5103C5.96349 7.5103 7.68213 5.82694 7.68213 3.75383C7.68213 1.68035 5.96349 2.23667e-07 3.84279 2.23667e-07ZM3.84279 5.91599C2.61819 5.91599 1.62808 4.94782 1.62808 3.75383C1.62808 2.56014 2.61819 1.59145 3.84279 1.59145C5.06395 1.59145 6.05427 2.56014 6.05427 3.75383C6.05427 4.94789 5.06402 5.91599 3.84279 5.91599Z" transform="translate(60.9062 23.8486) scale(1 -1)" fill="#F28124"/>
<path d="M24 12.4756C24 18.8116 18.8531 23.9512 12.5 23.9512C6.14688 23.9512 1 18.8116 1 12.4756C1 6.13965 6.14688 1 12.5 1C18.8531 1 24 6.13965 24 12.4756Z" transform="translate(133 32.0488)" stroke="#E88205" stroke-width="2"/>
<path d="M0 0V15.878" transform="translate(145.879 28.2686)" stroke="#E88205" stroke-width="1.5"/>
<path d="M0 3.40244V0L2.27273 1.13415L4.16667 0V3.40244L2.27273 5.29268L0 3.40244Z" transform="translate(143.605 26)" fill="#E88205" stroke="#E88205"/>
<path d="M16.4242 8.69512C16.4242 12.9432 12.9732 16.3902 8.71212 16.3902C4.45099 16.3902 1 12.9432 1 8.69512C1 4.44706 4.45099 1 8.71212 1C12.9732 1 16.4242 4.44706 16.4242 8.69512Z" transform="translate(136.789 35.8291)" stroke="#E88205" stroke-width="2"/>
<path d="M7.33333 4.15854C7.33333 5.90111 5.91741 7.31707 4.16667 7.31707C2.41592 7.31707 1 5.90111 1 4.15854C1 2.41597 2.41592 1 4.16667 1C5.91741 1 7.33333 2.41597 7.33333 4.15854Z" transform="translate(141.332 40.3662)" stroke="#E88205" stroke-width="2"/>
<rect width="5.71636" height="2.84949" rx="1" transform="translate(123.277 6)" fill="#4E4C4D"/>
<rect width="2.14263" height="1.42542" rx="0.712709" transform="matrix(0.919747 -0.392513 0.394539 0.918879 120.422 8.97852)" fill="#4E4C4D"/>
<rect width="2.14122" height="1.42636" rx="0.713178" transform="matrix(0.794437 0.607347 -0.609681 0.792647 130.582 8.13672)" fill="#4E4C4D"/>
<path d="M15.22 7.8361C15.22 11.8863 11.9263 15.1722 7.86 15.1722C3.79375 15.1722 0.5 11.8863 0.5 7.8361C0.5 3.78592 3.79375 0.5 7.86 0.5C11.9263 0.5 15.22 3.78592 15.22 7.8361Z" transform="translate(118.277 8.13672)" fill="#A2A2A2" stroke="#676566"/>
<path d="M6.99636 7.01119C6.99636 9.55296 5.50027 12.0005 3.43245 13.0005C1.27106 9.00761 1.90593 10.3386 0.00425095 7.01119C0.00425095 3.15212 -0.00218939 1.99642 0.00078434 0C4 0 6.99636 3.15212 6.99636 7.01119Z" transform="translate(126 9)" fill="#E88205"/>
<path d="M6.42391 6.96685C6.42391 9.2266 4.93889 11.4775 3.7665 12.2669C1.48426 8.43366 2.00801 9.63621 0 6.44184C0 2.73702 0.40155 1.91662 0.40469 0C4.29215 0 6.42391 3.26204 6.42391 6.96685Z" transform="matrix(-0.803318 0.59555 -0.597891 -0.801578 129.828 21.7588)" fill="white"/>
<rect width="1.42909" height="4.98661" transform="translate(125.426 10.9873)" fill="#686667"/>
<rect width="1.2631" height="4.99181" transform="matrix(0.812378 -0.583132 0.585476 0.81069 126.141 17.4229)" fill="#686667"/>
<ellipse cx="1.42909" cy="1.42474" rx="1.42909" ry="1.42474" transform="translate(124.711 15.2617)" fill="#686667"/>
</svg>
