<svg width="132" height="214" viewBox="0 0 132 214" fill="none" xmlns="http://www.w3.org/2000/svg">
<g filter="url(#filter0_d)">
<path d="M0 10C0 4.47715 4.47715 0 10 0H111.806C117.329 0 121.806 4.47715 121.806 10V193.033C121.806 198.556 117.329 203.033 111.806 203.033H10C4.47715 203.033 0 198.556 0 193.033V10Z" fill="#FF8D00"/>
<path d="M0 10C0 4.47715 4.47715 0 10 0H111.806C117.329 0 121.806 4.47715 121.806 10V193.033C121.806 198.556 117.329 203.033 111.806 203.033H10C4.47715 203.033 0 198.556 0 193.033V10Z" fill="url(#paint0_linear)"/>
</g>
<rect width="95.4355" height="157.915" transform="translate(13.8203 11.2793)" fill="white"/>
<rect width="21.3474" height="7.51975" rx="3.75987" transform="translate(82.8789 181.727)" fill="white"/>
<rect width="21.3474" height="7.51975" rx="3.75987" transform="translate(17.5859 181.727)" fill="white"/>
<ellipse cx="7.53438" cy="7.51975" rx="7.53438" ry="7.51975" transform="translate(54 179.22)" fill="white"/>
<g filter="url(#filter1_d)">
<path fill-rule="evenodd" clip-rule="evenodd" d="M52.9414 0.284217C52.375 -0.164514 51.5508 -0.0717401 51.1016 0.49076L45.543 7.4268C45.4492 7.54545 45.3789 7.67582 45.332 7.81156C42.4023 6.98392 39.1719 6.55277 35.7461 6.55277C32.5664 6.55277 29.582 6.9058 26.8672 7.62064L21.3086 0.684608C20.8594 0.122108 20.0352 0.0293341 19.4688 0.478065C18.9062 0.926307 18.8125 1.74564 19.2656 2.30863L24.207 8.48002C16.4766 11.3814 11.5352 17.462 11.5352 26.0674H35.7461H60.5312C60.5312 17.6407 55.5234 11.6343 47.8984 8.66459L53.1445 2.11478C53.5977 1.5518 53.5039 0.732459 52.9414 0.284217ZM59.957 66.9844V28.3633H11.5352V66.9844C11.5352 69.7456 13.7734 71.9844 16.5352 71.9844H20.7578V85.0537C20.7578 86.711 22.1016 88.0537 23.7578 88.0537H26.9805C28.6367 88.0537 29.9805 86.711 29.9805 85.0537V71.9844H41.5117V85.0537C41.5117 86.711 42.8555 88.0537 44.5117 88.0537H47.7344C49.3906 88.0537 50.7344 86.711 50.7344 85.0537V71.9844H54.957C57.7188 71.9844 59.957 69.7456 59.957 66.9844ZM0 33.6597C0 32.003 1.34375 30.6597 3 30.6597H6.22266C7.87891 30.6597 9.22266 32.003 9.22266 33.6597V57.5054C9.22266 59.1626 7.87891 60.5054 6.22266 60.5054H3C1.34375 60.5054 0 59.1626 0 57.5054V33.6597ZM65.2617 30.6597C63.6055 30.6597 62.2617 32.003 62.2617 33.6597V57.5054C62.2617 59.1626 63.6055 60.5054 65.2617 60.5054H68.4844C70.1406 60.5054 71.4844 59.1626 71.4844 57.5054V33.6597C71.4844 32.003 70.1406 30.6597 68.4844 30.6597H65.2617Z" transform="translate(25.5312 46.5723)" fill="#FF8D00"/>
<path fill-rule="evenodd" clip-rule="evenodd" d="M52.9414 0.284217C52.375 -0.164514 51.5508 -0.0717401 51.1016 0.49076L45.543 7.4268C45.4492 7.54545 45.3789 7.67582 45.332 7.81156C42.4023 6.98392 39.1719 6.55277 35.7461 6.55277C32.5664 6.55277 29.582 6.9058 26.8672 7.62064L21.3086 0.684608C20.8594 0.122108 20.0352 0.0293341 19.4688 0.478065C18.9062 0.926307 18.8125 1.74564 19.2656 2.30863L24.207 8.48002C16.4766 11.3814 11.5352 17.462 11.5352 26.0674H35.7461H60.5312C60.5312 17.6407 55.5234 11.6343 47.8984 8.66459L53.1445 2.11478C53.5977 1.5518 53.5039 0.732459 52.9414 0.284217ZM59.957 66.9844V28.3633H11.5352V66.9844C11.5352 69.7456 13.7734 71.9844 16.5352 71.9844H20.7578V85.0537C20.7578 86.711 22.1016 88.0537 23.7578 88.0537H26.9805C28.6367 88.0537 29.9805 86.711 29.9805 85.0537V71.9844H41.5117V85.0537C41.5117 86.711 42.8555 88.0537 44.5117 88.0537H47.7344C49.3906 88.0537 50.7344 86.711 50.7344 85.0537V71.9844H54.957C57.7188 71.9844 59.957 69.7456 59.957 66.9844ZM0 33.6597C0 32.003 1.34375 30.6597 3 30.6597H6.22266C7.87891 30.6597 9.22266 32.003 9.22266 33.6597V57.5054C9.22266 59.1626 7.87891 60.5054 6.22266 60.5054H3C1.34375 60.5054 0 59.1626 0 57.5054V33.6597ZM65.2617 30.6597C63.6055 30.6597 62.2617 32.003 62.2617 33.6597V57.5054C62.2617 59.1626 63.6055 60.5054 65.2617 60.5054H68.4844C70.1406 60.5054 71.4844 59.1626 71.4844 57.5054V33.6597C71.4844 32.003 70.1406 30.6597 68.4844 30.6597H65.2617Z" transform="translate(25.5312 46.5723)" fill="url(#paint1_linear)"/>
<ellipse cx="2.30577" cy="2.29583" rx="2.30577" ry="2.29583" transform="translate(48.5938 60.3486)" fill="white"/>
<ellipse cx="2.30577" cy="2.29583" rx="2.30577" ry="2.29583" transform="translate(69.3438 60.3481)" fill="white"/>
</g>
<defs>
<filter id="filter0_d" x="0" y="0" width="131.806" height="213.033" filterUnits="userSpaceOnUse" color-interpolation-filters="sRGB">
<feFlood flood-opacity="0" result="BackgroundImageFix"/>
<feColorMatrix in="SourceAlpha" type="matrix" values="0 0 0 0 0 0 0 0 0 0 0 0 0 0 0 0 0 0 255 0"/>
<feOffset dx="5" dy="5"/>
<feGaussianBlur stdDeviation="2.5"/>
<feColorMatrix type="matrix" values="0 0 0 0 0.2 0 0 0 0 0.2 0 0 0 0 0.2 0 0 0 0.5 0"/>
<feBlend mode="normal" in2="BackgroundImageFix" result="effect1_dropShadow"/>
<feBlend mode="normal" in="SourceGraphic" in2="effect1_dropShadow" result="shape"/>
</filter>
<filter id="filter1_d" x="21.5312" y="46.5723" width="79.4844" height="96.0537" filterUnits="userSpaceOnUse" color-interpolation-filters="sRGB">
<feFlood flood-opacity="0" result="BackgroundImageFix"/>
<feColorMatrix in="SourceAlpha" type="matrix" values="0 0 0 0 0 0 0 0 0 0 0 0 0 0 0 0 0 0 255 0"/>
<feOffset dy="4"/>
<feGaussianBlur stdDeviation="2"/>
<feColorMatrix type="matrix" values="0 0 0 0 0.509804 0 0 0 0 0.509804 0 0 0 0 0.509804 0 0 0 0.25 0"/>
<feBlend mode="normal" in2="BackgroundImageFix" result="effect1_dropShadow"/>
<feBlend mode="normal" in="SourceGraphic" in2="effect1_dropShadow" result="shape"/>
</filter>
<linearGradient id="paint0_linear" x2="1" gradientUnits="userSpaceOnUse" gradientTransform="matrix(121.806 16.9195 -10.1505 2767.98 5.07525 -1282.47)">
<stop stop-color="#FFC379"/>
<stop offset="0.679558" stop-color="#FF8D00"/>
</linearGradient>
<linearGradient id="paint1_linear" x2="1" gradientUnits="userSpaceOnUse" gradientTransform="matrix(71.4844 7.33783 -5.95704 1200.45 2.97852 -556.198)">
<stop stop-color="#FFC379"/>
<stop offset="0.679558" stop-color="#FF8D00"/>
</linearGradient>
</defs>
</svg>
