<svg width="132" height="214" viewBox="0 0 132 214" fill="none" xmlns="http://www.w3.org/2000/svg">
<g filter="url(#filter0_d)">
<path d="M0 10C0 4.47715 4.47715 0 10 0H111.806C117.329 0 121.806 4.47715 121.806 10V193.033C121.806 198.556 117.329 203.033 111.806 203.033H10C4.47715 203.033 0 198.556 0 193.033V10Z" fill="#FF8D00"/>
<path d="M0 10C0 4.47715 4.47715 0 10 0H111.806C117.329 0 121.806 4.47715 121.806 10V193.033C121.806 198.556 117.329 203.033 111.806 203.033H10C4.47715 203.033 0 198.556 0 193.033V10Z" fill="url(#paint0_linear)"/>
</g>
<rect width="95.4355" height="157.915" transform="translate(13.8203 11.2793)" fill="white"/>
<rect width="21.3474" height="7.51975" rx="3.75987" transform="translate(82.8789 181.727)" fill="white"/>
<rect width="21.3474" height="7.51975" rx="3.75987" transform="translate(17.5859 181.727)" fill="white"/>
<ellipse cx="7.53438" cy="7.51975" rx="7.53438" ry="7.51975" transform="translate(54 179.22)" fill="white"/>
<path d="M10.1419 11.7153C12.7885 7.81018 13.5405 5.05907 12.5789 0C8.52326 0.119266 6.45143 0.976273 2.83095 4.88136C-0.371294 9.27459 -0.312634 11.4801 0.393963 16.1085C4.26677 15.5883 6.33617 15.6204 10.1419 11.7153Z" transform="translate(61.6289 48)" fill="url(#paint1_linear)"/>
<path d="M49.7146 20.0196C49.3059 23.6011 52.1516 32.2231 59 34.1756C55.53 44.9268 48.7398 53.2125 41.9162 52.2363C38.9918 51.8179 36.5549 47.843 31.6809 48.3312C25.3447 47.843 25.3447 52.2363 19.4959 52.7245C8.77317 51.7481 1.2453 37.011 0 22.4605C0.511652 8.8763 9.26056 -4.43597 23.3951 1.41675C25.3695 2.23427 26.8069 4.88698 31.1935 5.37537C34.6053 4.88698 36.5549 2.93469 38.9918 1.54007C46.7902 -1.45848 53.0167 2.24977 56.8783 7.81624C53.1264 11.7213 49.7146 13.8781 49.7146 20.0196Z" transform="translate(31 63.2759)" fill="url(#paint2_linear)"/>
<defs>
<filter id="filter0_d" x="0" y="0" width="131.806" height="213.033" filterUnits="userSpaceOnUse" color-interpolation-filters="sRGB">
<feFlood flood-opacity="0" result="BackgroundImageFix"/>
<feColorMatrix in="SourceAlpha" type="matrix" values="0 0 0 0 0 0 0 0 0 0 0 0 0 0 0 0 0 0 255 0"/>
<feOffset dx="5" dy="5"/>
<feGaussianBlur stdDeviation="2.5"/>
<feColorMatrix type="matrix" values="0 0 0 0 0.2 0 0 0 0 0.2 0 0 0 0 0.2 0 0 0 0.5 0"/>
<feBlend mode="normal" in2="BackgroundImageFix" result="effect1_dropShadow"/>
<feBlend mode="normal" in="SourceGraphic" in2="effect1_dropShadow" result="shape"/>
</filter>
<linearGradient id="paint0_linear" x2="1" gradientUnits="userSpaceOnUse" gradientTransform="matrix(121.806 16.9195 -10.1505 2767.98 5.07525 -1282.47)">
<stop stop-color="#FFC379"/>
<stop offset="0.679558" stop-color="#FF8D00"/>
</linearGradient>
<linearGradient id="paint1_linear" x2="1" gradientUnits="userSpaceOnUse" gradientTransform="matrix(12.9797 1.34238 -1.08164 219.609 0.540821 -101.75)">
<stop stop-color="#FFC379"/>
<stop offset="0.679558" stop-color="#FF8D00"/>
</linearGradient>
<linearGradient id="paint2_linear" x2="1" gradientUnits="userSpaceOnUse" gradientTransform="matrix(59 4.39371 -4.91667 718.8 2.45834 -333.038)">
<stop stop-color="#FFC379"/>
<stop offset="0.679558" stop-color="#FF8D00"/>
</linearGradient>
</defs>
</svg>
