<svg width="241" height="203" viewBox="0 0 241 203" fill="none" xmlns="http://www.w3.org/2000/svg">
<path d="M62.7164 38.7779H-5.7867e-06L7.97364 3.42916e-06H54.7524L62.7164 38.7779Z" transform="translate(86.9844 159.438)" fill="#FFC06E" fill-opacity="0.8"/>
<path d="M54.7427 38.7779L46.7787 3.42916e-06H1.07161e-06L38.7647 38.7779H54.7427Z" transform="translate(96.9414 159.529)" fill="url(#paint0_linear)"/>
<path d="M96.3026 3.21484e-06H6.64399e-06V4.68603H96.3026V3.21484e-06Z" transform="translate(72.1797 198.314)" fill="url(#paint1_linear)"/>
<path d="M5.85623 4.28645e-06C2.6292 4.28645e-06 8.03709e-07 2.64325 8.03709e-07 5.86062V153.675C8.03709e-07 156.902 2.6292 159.526 5.85623 159.526H234.835C238.046 159.526 240.687 156.899 240.687 153.675V5.86151C240.687 2.64326 238.046 0.000874971 234.835 0.000874971L5.85623 4.28645e-06Z" fill="url(#paint2_linear)"/>
<path d="M216.351 4.82225e-06H-2.46471e-06V135.222H216.351V4.82225e-06Z" transform="translate(12.1602 12.168)" fill="white"/>
<path d="M14.3294 15.5136V13.1355H13.1451V11.9398H11.9495V10.7468H10.7494V9.55116H9.56258V8.37307H8.35552V7.15548H7.1783V5.9686H5.98265V4.77119H4.78523V3.58871H3.58256V2.38691H2.39393V1.19741H1.19126V2.57187e-06H-2.14322e-07V20.2997H2.39393V19.0979H3.58256V17.9093H4.78523V16.704H5.98265V19.0979H7.1783V21.4866H8.35552V22.6849H10.7494V21.4866H11.9495V19.0979H10.7494V16.704H9.56258V15.5136H14.3294Z" transform="translate(178.207 101.832)" fill="#34495E"/>
<path d="M16.5234 10.4443C17.0801 10.4443 17.3584 11.1523 17.3584 12.5684C17.3584 12.9199 17.124 13.2324 16.6553 13.5059L6.44531 19.0283L16.5381 24.7998C17.0947 25.1025 17.373 25.5078 17.373 26.0156C17.373 26.5234 17.2852 26.9482 17.1094 27.29C16.9434 27.6221 16.7432 27.7881 16.5088 27.7881C16.2744 27.7881 16.0645 27.7344 15.8789 27.627L4.08691 21.0938C3.41309 20.6934 3.07617 20.0488 3.07617 19.1602C3.07617 18.7207 3.16895 18.3008 3.35449 17.9004C3.5498 17.4902 3.79395 17.1973 4.08691 17.0215L15.8789 10.6641C16.1426 10.5176 16.3574 10.4443 16.5234 10.4443ZM29.6191 30.0732C29.4238 30.0244 29.1113 30 28.6816 30H24.2871C23.3496 30 22.749 29.834 22.4854 29.502C22.3779 29.375 22.3242 29.2285 22.3242 29.0625C22.3242 28.6523 22.4023 28.3496 22.5586 28.1543C22.793 28.2324 23.0615 28.2715 23.3643 28.2715C23.667 28.2715 23.8916 28.1494 24.0381 27.9053C24.1846 27.6611 24.2529 27.207 24.2432 26.543V8.39355C24.2432 7.71973 24.1748 7.28516 24.0381 7.08984C23.833 6.77734 23.4717 6.62109 22.9541 6.62109C22.7979 6.62109 22.6367 6.64062 22.4707 6.67969C22.3145 6.70898 22.1924 6.7041 22.1045 6.66504C22.0264 6.61621 21.9629 6.55273 21.9141 6.47461C21.7871 6.2793 21.7969 6.08398 21.9434 5.88867C22.0996 5.68359 22.3193 5.46875 22.6025 5.24414C22.8857 5.01953 23.1982 4.82422 23.54 4.6582C24.2725 4.27734 24.9023 4.08691 25.4297 4.08691C25.9668 4.08691 26.3623 4.16504 26.6162 4.32129C26.8799 4.47754 27.0752 4.6875 27.2021 4.95117C27.417 5.38086 27.5244 6.07422 27.5244 7.03125V26.6895C27.5244 27.5 27.7686 27.998 28.2568 28.1836C28.3936 28.2422 28.5547 28.291 28.7402 28.3301C28.9355 28.3691 29.1113 28.418 29.2676 28.4766C29.4238 28.5254 29.5459 28.584 29.6338 28.6523C29.7803 28.7793 29.8535 28.9844 29.8535 29.2676C29.8535 29.6094 29.7754 29.8779 29.6191 30.0732ZM35.8154 12.1436C37.3389 12.1436 38.1006 12.6123 38.1006 13.5498C38.1006 14.7314 36.9141 16.3623 34.541 18.4424C33.623 19.2529 32.7002 19.9463 31.7725 20.5225C32.3975 21.0986 33.0371 21.8457 33.6914 22.7637L35.2295 24.9316C36.5186 26.7773 37.4902 27.7002 38.1445 27.7002C38.6816 27.7002 39.0332 27.6465 39.1992 27.5391C39.375 27.4316 39.502 27.373 39.5801 27.3633C39.6582 27.3535 39.7607 27.3877 39.8877 27.4658C40.0146 27.5439 40.0781 27.6758 40.0781 27.8613C40.0781 28.0469 40 28.2812 39.8438 28.5645C39.6973 28.8379 39.4873 29.1016 39.2139 29.3555C38.5498 29.9707 37.832 30.2783 37.0605 30.2783C36.2891 30.2783 35.6396 30.0977 35.1123 29.7363C34.585 29.3652 34.0918 28.8916 33.6328 28.3154C33.1738 27.7295 32.7393 27.0801 32.3291 26.3672L31.1133 24.2871C30.127 22.5879 29.2822 21.4844 28.5791 20.9766C28.1689 20.6934 28.0322 20.5127 28.1689 20.4346L28.5938 20.2002L30.9521 18.5156C31.958 17.7637 32.6514 17.1729 33.0322 16.7432C33.7744 15.9131 34.1455 15.2197 34.1455 14.6631C34.1455 14.2725 33.7549 14.0479 32.9736 13.9893C32.876 13.833 32.8271 13.667 32.8271 13.4912C32.8271 13.3154 32.9199 13.1445 33.1055 12.9785C33.3008 12.8027 33.5449 12.6562 33.8379 12.5391C34.4629 12.2754 35.1221 12.1436 35.8154 12.1436ZM41.3525 21.9141C41.3525 20.7227 41.4697 19.6533 41.7041 18.7061C41.9385 17.7588 42.2607 16.9238 42.6709 16.2012C43.0811 15.4785 43.5645 14.8633 44.1211 14.3555C44.6777 13.8379 45.2734 13.418 45.9082 13.0957C47.1484 12.4609 48.5107 12.1436 49.9951 12.1436C51.8994 12.1436 53.5156 12.8369 54.8438 14.2236C56.3184 15.7471 57.0557 17.7588 57.0557 20.2588C57.0557 23.54 56.1621 26.0938 54.375 27.9199C52.8223 29.4922 50.9619 30.2783 48.7939 30.2783C46.5283 30.2783 44.7119 29.4824 43.3447 27.8906C42.0166 26.3574 41.3525 24.3652 41.3525 21.9141ZM49.6582 27.8906C50.3125 27.8906 50.8984 27.7393 51.416 27.4365C51.9336 27.124 52.373 26.6992 52.7344 26.1621C53.457 25.0488 53.8184 23.6035 53.8184 21.8262C53.8184 19.873 53.4375 18.2129 52.6758 16.8457C51.8164 15.2734 50.5811 14.4873 48.9697 14.4873C47.6709 14.4873 46.6309 14.9854 45.8496 15.9814C45.0195 17.0361 44.6045 18.5107 44.6045 20.4053C44.6045 22.7783 45.127 24.6533 46.1719 26.0303C47.1094 27.2705 48.2715 27.8906 49.6582 27.8906ZM71.9678 28.1689C70.4541 29.585 68.7891 30.293 66.9727 30.293C64.9707 30.293 63.3398 29.6094 62.0801 28.2422C60.7129 26.7383 60.0293 24.6631 60.0293 22.0166C60.0293 19.0381 60.9766 16.6162 62.8711 14.751C64.6387 13.0127 66.7285 12.1436 69.1406 12.1436C70.1074 12.1436 71.0352 12.3047 71.9238 12.627V8.39355C71.9238 7.70996 71.8555 7.27539 71.7188 7.08984C71.4941 6.77734 71.1279 6.62109 70.6201 6.62109C70.4053 6.62109 70.1904 6.64551 69.9756 6.69434C69.7705 6.7334 69.624 6.7334 69.5361 6.69434C69.458 6.64551 69.3945 6.58203 69.3457 6.50391C69.1504 6.18164 69.3945 5.77148 70.0781 5.27344C71.1523 4.48242 72.2119 4.08691 73.2568 4.08691C74.3604 4.08691 74.9902 4.6875 75.1465 5.88867C75.1855 6.25 75.2051 6.63086 75.2051 7.03125V24.0381C75.2051 25.542 75.2637 26.4795 75.3809 26.8506C75.498 27.2217 75.6348 27.4658 75.791 27.583C75.957 27.6904 76.1621 27.7441 76.4062 27.7441C76.6504 27.7441 76.8506 27.7051 77.0068 27.627L77.4463 27.4365C77.5732 27.4072 77.6855 27.4658 77.7832 27.6123C77.9883 27.915 78.0176 28.1885 77.8711 28.4326C77.7246 28.6768 77.5049 28.9111 77.2119 29.1357C76.9189 29.3604 76.5918 29.5557 76.2305 29.7217C74.6484 30.4346 73.4668 30.4492 72.6855 29.7656C72.3047 29.4336 72.0654 28.9014 71.9678 28.1689ZM71.9238 15.6006C70.9668 14.8682 69.8535 14.502 68.584 14.502C67.0605 14.502 65.8252 15.0635 64.8779 16.1865C63.8623 17.3877 63.3545 19.0234 63.3545 21.0938C63.3545 24.3848 64.292 26.416 66.167 27.1875C66.7529 27.4219 67.3193 27.5391 67.8662 27.5391C68.4229 27.5391 68.8867 27.4951 69.2578 27.4072C69.6289 27.3193 69.9756 27.2021 70.2979 27.0557C70.9424 26.7627 71.4844 26.4062 71.9238 25.9863V15.6006ZM89.4873 3.42773C89.7803 3.30078 90.0879 3.2373 90.4102 3.2373C90.7324 3.2373 91.001 3.25684 91.2158 3.2959C91.4307 3.3252 91.6162 3.37891 91.7725 3.45703C92.1436 3.61328 92.2998 3.83301 92.2412 4.11621L81.5186 32.417C81.2354 32.5244 80.9277 32.5781 80.5957 32.5781C80.2734 32.5781 80.0049 32.5586 79.79 32.5195C79.585 32.4902 79.3994 32.4414 79.2334 32.373C78.8818 32.207 78.7305 32.002 78.7793 31.7578L89.4873 3.42773ZM96.1377 10.8545C95.5811 10.8545 95.3027 11.5625 95.3027 12.9785C95.3027 13.3301 95.5371 13.6426 96.0059 13.916L106.216 19.4385L96.123 25.21C95.5664 25.5127 95.2881 25.918 95.2881 26.4258C95.2881 26.9336 95.3711 27.3584 95.5371 27.7002C95.7129 28.0322 95.918 28.1982 96.1523 28.1982C96.3867 28.1982 96.5967 28.1445 96.7822 28.0371L108.574 21.5039C109.248 21.1035 109.585 20.459 109.585 19.5703C109.585 19.1309 109.487 18.7109 109.292 18.3105C109.106 17.9004 108.867 17.6074 108.574 17.4316L96.7822 11.0742C96.5186 10.9277 96.3037 10.8545 96.1377 10.8545Z" transform="translate(61 50)" fill="#373B3E"/>
<defs>
<linearGradient id="paint0_linear" x2="1" gradientUnits="userSpaceOnUse" gradientTransform="translate(-0.106919 -2.65083) scale(53.3532 37.7936) rotate(-0.229641)">
<stop offset="0.176638" stop-color="#FFC172"/>
<stop offset="0.867976" stop-color="#FF8D01"/>
</linearGradient>
<linearGradient id="paint1_linear" x2="1" gradientUnits="userSpaceOnUse" gradientTransform="translate(-0.188091 -0.320335) scale(93.8582 4.56709) rotate(-0.229641)">
<stop offset="0.176638" stop-color="#FFC06E"/>
<stop offset="0.867976" stop-color="#FF8D01"/>
</linearGradient>
<linearGradient id="paint2_linear" x2="1" gradientUnits="userSpaceOnUse" gradientTransform="translate(-0.470091 -10.9051) scale(234.577 155.477) rotate(-0.229641)">
<stop offset="0.176638" stop-color="#FFBF6E"/>
<stop offset="0.867976" stop-color="#FF8D01"/>
</linearGradient>
</defs>
</svg>
