<svg xmlns="http://www.w3.org/2000/svg" width="491" height="103" fill="none" viewBox="0 0 491 103">
    <g filter="url(#a)">
        <rect width="483" height="95" fill="#8EC429" rx="5"/>
        <rect width="483" height="95" fill="url(#b)" rx="5"/>
        <path fill="#fff" d="M112.494 59.535c-3.01 1.14-6.429 1.71-10.254 1.71-12.532 0-18.799-6.064-18.799-18.19 0-11.474 6.267-17.211 18.8-17.211 3.824 0 7.242.57 10.253 1.709v5.86c-3.01-1.303-6.266-1.954-9.765-1.954-8.383 0-12.574 3.866-12.574 11.597 0 8.382 4.191 12.573 12.574 12.573 3.499 0 6.754-.651 9.765-1.953v5.86zm11.597-16.089c0 8.122 3.605 12.183 10.815 12.183 7.032 0 10.547-4.061 10.547-12.183 0-7.991-3.516-11.987-10.547-11.987-7.21 0-10.815 3.996-10.815 11.987zm-6.714.147c0-11.833 5.843-17.75 17.53-17.75 11.506 0 17.26 5.917 17.26 17.75 0 11.767-5.754 17.651-17.26 17.651-11.166 0-17.01-5.884-17.53-17.651zM158.295 61V26.088h6.47l18.432 25.44v-25.44h6.226V61h-6.47l-18.432-25.977V61h-6.226zm61.304-34.912v5.615h-10.01V61h-6.47V31.703h-10.01v-5.615h26.49zM226.874 61h-6.641l14.82-34.912h6.958L257.147 61h-6.958l-3.979-9.522h-11.597l2.222-5.615h7.031l-5.493-13.11L226.874 61zm62.378-1.465c-3.011 1.14-6.429 1.71-10.254 1.71-12.533 0-18.799-6.064-18.799-18.19 0-11.474 6.266-17.211 18.799-17.211 3.825 0 7.243.57 10.254 1.709v5.86c-3.011-1.303-6.266-1.954-9.766-1.954-8.382 0-12.573 3.866-12.573 11.597 0 8.382 4.191 12.573 12.573 12.573 3.5 0 6.755-.651 9.766-1.953v5.86zm28.931-33.447v5.615h-10.01V61h-6.47V31.703h-10.01v-5.615h26.49zm14.672 21.191V26.088h6.47v21.191c0 5.567 2.849 8.35 8.545 8.35 5.697 0 8.545-2.783 8.545-8.35V26.088h6.47v21.191c0 9.31-5.005 13.965-15.015 13.965-10.01 0-15.015-4.655-15.015-13.965zm36.744 12.256v-5.86c3.499 1.303 7.454 1.954 11.865 1.954 5.355 0 8.032-1.79 8.032-5.371 0-2.604-1.644-3.906-4.932-3.906h-5.468c-7.145 0-10.718-3.256-10.718-9.766 0-7.161 5.086-10.742 15.259-10.742 3.906 0 7.609.57 11.108 1.709v5.86c-3.499-1.303-7.202-1.954-11.108-1.954-5.86 0-8.789 1.709-8.789 5.127 0 2.604 1.416 3.906 4.248 3.906h5.468c7.601 0 11.402 3.255 11.402 9.766 0 7.324-4.834 10.986-14.502 10.986-4.411 0-8.366-.57-11.865-1.709z"/>
    </g>
    <defs>
        <filter id="a" width="491" height="103" x="0" y="0" color-interpolation-filters="sRGB" filterUnits="userSpaceOnUse">
            <feFlood flood-opacity="0" result="BackgroundImageFix"/>
            <feColorMatrix in="SourceAlpha" values="0 0 0 0 0 0 0 0 0 0 0 0 0 0 0 0 0 0 255 0"/>
            <feOffset dx="4" dy="4"/>
            <feGaussianBlur stdDeviation="2"/>
            <feColorMatrix values="0 0 0 0 0.509804 0 0 0 0 0.509804 0 0 0 0 0.509804 0 0 0 0.25 0"/>
            <feBlend in2="BackgroundImageFix" result="effect1_dropShadow"/>
            <feBlend in="SourceGraphic" in2="effect1_dropShadow" result="shape"/>
        </filter>
        <linearGradient id="b" x2="1" gradientTransform="matrix(468 0 0 2379.41 15 -1141.71)" gradientUnits="userSpaceOnUse">
            <stop stop-color="#E9B26C"/>
            <stop offset="1" stop-color="#E88304"/>
        </linearGradient>
    </defs>
</svg>
