<svg width="226" height="70" viewBox="0 0 226 70" fill="none" xmlns="http://www.w3.org/2000/svg">
<g filter="url(#filter0_d)">
<path d="M27.8287 8.54358L22.1105 10.2188L13.3425 6.19828L7.62431 11.2239L12.0083 19.0974L9.33978 23.6205L0 26.1333V33.1692L9.33978 36.3521L12.0083 41.0427L7.62431 48.4136L13.3425 53.2717L22.1105 49.7538L27.8287 51.9316L31.4503 60.3076H38.6934L41.3619 51.9316L47.0801 49.7538L57.3729 53.2717L61.5663 48.4136L57.3729 41.0427L59.6602 36.3521L69 33.1692V26.1333L59.6602 23.6205L57.3729 19.0974L61.5663 11.2239L55.6575 6.19828L47.0801 10.2188L41.3619 8.54358L38.6934 0H29.9254L27.8287 8.54358Z" transform="translate(5 1)" fill="white"/>
<path d="M27.8287 8.54358L22.1105 10.2188L13.3425 6.19828L7.62431 11.2239L12.0083 19.0974L9.33978 23.6205L0 26.1333V33.1692L9.33978 36.3521L12.0083 41.0427L7.62431 48.4136L13.3425 53.2717L22.1105 49.7538L27.8287 51.9316L31.4503 60.3076H38.6934L41.3619 51.9316L47.0801 49.7538L57.3729 53.2717L61.5663 48.4136L57.3729 41.0427L59.6602 36.3521L69 33.1692V26.1333L59.6602 23.6205L57.3729 19.0974L61.5663 11.2239L55.6575 6.19828L47.0801 10.2188L41.3619 8.54358L38.6934 0H29.9254L27.8287 8.54358Z" transform="translate(5 1)" stroke="white"/>
</g>
<path d="M8.26172 5.22217C8.54004 5.22217 8.6792 5.57617 8.6792 6.28418C8.6792 6.45996 8.56201 6.61621 8.32764 6.75293L3.22266 9.51416L8.26904 12.3999C8.54736 12.5513 8.68652 12.7539 8.68652 13.0078C8.68652 13.2617 8.64258 13.4741 8.55469 13.645C8.47168 13.811 8.37158 13.894 8.25439 13.894C8.13721 13.894 8.03223 13.8672 7.93945 13.8135L2.04346 10.5469C1.70654 10.3467 1.53809 10.0244 1.53809 9.58008C1.53809 9.36035 1.58447 9.15039 1.67725 8.9502C1.7749 8.74512 1.89697 8.59863 2.04346 8.51074L7.93945 5.33203C8.07129 5.25879 8.17871 5.22217 8.26172 5.22217ZM14.8096 15.0366C14.7119 15.0122 14.5557 15 14.3408 15H12.1436C11.6748 15 11.3745 14.917 11.2427 14.751C11.189 14.6875 11.1621 14.6143 11.1621 14.5312C11.1621 14.3262 11.2012 14.1748 11.2793 14.0771C11.3965 14.1162 11.5308 14.1357 11.6821 14.1357C11.8335 14.1357 11.9458 14.0747 12.019 13.9526C12.0923 13.8306 12.1265 13.6035 12.1216 13.2715V4.19678C12.1216 3.85986 12.0874 3.64258 12.019 3.54492C11.9165 3.38867 11.7358 3.31055 11.4771 3.31055C11.3989 3.31055 11.3184 3.32031 11.2354 3.33984C11.1572 3.35449 11.0962 3.35205 11.0522 3.33252C11.0132 3.30811 10.9814 3.27637 10.957 3.2373C10.8936 3.13965 10.8984 3.04199 10.9717 2.94434C11.0498 2.8418 11.1597 2.73437 11.3013 2.62207C11.4429 2.50977 11.5991 2.41211 11.77 2.3291C12.1362 2.13867 12.4512 2.04346 12.7148 2.04346C12.9834 2.04346 13.1812 2.08252 13.3081 2.16064C13.4399 2.23877 13.5376 2.34375 13.6011 2.47559C13.7085 2.69043 13.7622 3.03711 13.7622 3.51562V13.3447C13.7622 13.75 13.8843 13.999 14.1284 14.0918C14.1968 14.1211 14.2773 14.1455 14.3701 14.165C14.4678 14.1846 14.5557 14.209 14.6338 14.2383C14.7119 14.2627 14.7729 14.292 14.8169 14.3262C14.8901 14.3896 14.9268 14.4922 14.9268 14.6338C14.9268 14.8047 14.8877 14.939 14.8096 15.0366ZM17.9077 6.07178C18.6694 6.07178 19.0503 6.30615 19.0503 6.7749C19.0503 7.36572 18.457 8.18115 17.2705 9.22119C16.8115 9.62646 16.3501 9.97314 15.8862 10.2612C16.1987 10.5493 16.5186 10.9229 16.8457 11.3818L17.6147 12.4658C18.2593 13.3887 18.7451 13.8501 19.0723 13.8501C19.3408 13.8501 19.5166 13.8232 19.5996 13.7695C19.6875 13.7158 19.751 13.6865 19.79 13.6816C19.8291 13.6768 19.8804 13.6938 19.9438 13.7329C20.0073 13.772 20.0391 13.8379 20.0391 13.9307C20.0391 14.0234 20 14.1406 19.9219 14.2822C19.8486 14.4189 19.7437 14.5508 19.6069 14.6777C19.2749 14.9854 18.916 15.1392 18.5303 15.1392C18.1445 15.1392 17.8198 15.0488 17.5562 14.8682C17.2925 14.6826 17.0459 14.4458 16.8164 14.1577C16.5869 13.8647 16.3696 13.54 16.1646 13.1836L15.5566 12.1436C15.0635 11.2939 14.6411 10.7422 14.2896 10.4883C14.0845 10.3467 14.0161 10.2563 14.0845 10.2173L14.2969 10.1001L15.4761 9.25781C15.979 8.88184 16.3257 8.58643 16.5161 8.37158C16.8872 7.95654 17.0728 7.60986 17.0728 7.33154C17.0728 7.13623 16.8774 7.02393 16.4868 6.99463C16.438 6.9165 16.4136 6.8335 16.4136 6.74561C16.4136 6.65771 16.46 6.57227 16.5527 6.48926C16.6504 6.40137 16.7725 6.32812 16.9189 6.26953C17.2314 6.1377 17.561 6.07178 17.9077 6.07178ZM20.6763 10.957C20.6763 10.3613 20.7349 9.82666 20.8521 9.35303C20.9692 8.87939 21.1304 8.46191 21.3354 8.10059C21.5405 7.73926 21.7822 7.43164 22.0605 7.17773C22.3389 6.91895 22.6367 6.70898 22.9541 6.54785C23.5742 6.23047 24.2554 6.07178 24.9976 6.07178C25.9497 6.07178 26.7578 6.41846 27.4219 7.11182C28.1592 7.87354 28.5278 8.87939 28.5278 10.1294C28.5278 11.77 28.0811 13.0469 27.1875 13.96C26.4111 14.7461 25.481 15.1392 24.397 15.1392C23.2642 15.1392 22.356 14.7412 21.6724 13.9453C21.0083 13.1787 20.6763 12.1826 20.6763 10.957ZM24.8291 13.9453C25.1562 13.9453 25.4492 13.8696 25.708 13.7183C25.9668 13.562 26.1865 13.3496 26.3672 13.0811C26.7285 12.5244 26.9092 11.8018 26.9092 10.9131C26.9092 9.93652 26.7188 9.10645 26.3379 8.42285C25.9082 7.63672 25.2905 7.24365 24.4849 7.24365C23.8354 7.24365 23.3154 7.49268 22.9248 7.99072C22.5098 8.51807 22.3022 9.25537 22.3022 10.2026C22.3022 11.3892 22.5635 12.3267 23.0859 13.0151C23.5547 13.6353 24.1357 13.9453 24.8291 13.9453ZM35.9839 14.0845C35.2271 14.7925 34.3945 15.1465 33.4863 15.1465C32.4854 15.1465 31.6699 14.8047 31.04 14.1211C30.3564 13.3691 30.0146 12.3315 30.0146 11.0083C30.0146 9.51904 30.4883 8.30811 31.4355 7.37549C32.3193 6.50635 33.3643 6.07178 34.5703 6.07178C35.0537 6.07178 35.5176 6.15234 35.9619 6.31348V4.19678C35.9619 3.85498 35.9277 3.6377 35.8594 3.54492C35.7471 3.38867 35.564 3.31055 35.3101 3.31055C35.2026 3.31055 35.0952 3.32275 34.9878 3.34717C34.8853 3.3667 34.812 3.3667 34.7681 3.34717C34.729 3.32275 34.6973 3.29102 34.6729 3.25195C34.5752 3.09082 34.6973 2.88574 35.0391 2.63672C35.5762 2.24121 36.106 2.04346 36.6284 2.04346C37.1802 2.04346 37.4951 2.34375 37.5732 2.94434C37.5928 3.125 37.6025 3.31543 37.6025 3.51562V12.019C37.6025 12.771 37.6318 13.2397 37.6904 13.4253C37.749 13.6108 37.8174 13.7329 37.8955 13.7915C37.9785 13.8452 38.0811 13.8721 38.2031 13.8721C38.3252 13.8721 38.4253 13.8525 38.5034 13.8135L38.7231 13.7183C38.7866 13.7036 38.8428 13.7329 38.8916 13.8062C38.9941 13.9575 39.0088 14.0942 38.9355 14.2163C38.8623 14.3384 38.7524 14.4556 38.606 14.5679C38.4595 14.6802 38.2959 14.7778 38.1152 14.8608C37.3242 15.2173 36.7334 15.2246 36.3428 14.8828C36.1523 14.7168 36.0327 14.4507 35.9839 14.0845ZM35.9619 7.80029C35.4834 7.43408 34.9268 7.25098 34.292 7.25098C33.5303 7.25098 32.9126 7.53174 32.439 8.09326C31.9312 8.69385 31.6772 9.51172 31.6772 10.5469C31.6772 12.1924 32.146 13.208 33.0835 13.5938C33.3765 13.7109 33.6597 13.7695 33.9331 13.7695C34.2114 13.7695 34.4434 13.7476 34.6289 13.7036C34.8145 13.6597 34.9878 13.6011 35.1489 13.5278C35.4712 13.3813 35.7422 13.2031 35.9619 12.9932V7.80029ZM41.3159 5.42725C41.0376 5.42725 40.8984 5.78125 40.8984 6.48926C40.8984 6.66504 41.0156 6.82129 41.25 6.95801L46.355 9.71924L41.3086 12.605C41.0303 12.7563 40.8911 12.959 40.8911 13.2129C40.8911 13.4668 40.9326 13.6792 41.0156 13.8501C41.1035 14.0161 41.2061 14.0991 41.3232 14.0991C41.4404 14.0991 41.5454 14.0723 41.6382 14.0186L47.5342 10.752C47.8711 10.5518 48.0396 10.2295 48.0396 9.78516C48.0396 9.56543 47.9907 9.35547 47.8931 9.15527C47.8003 8.9502 47.6807 8.80371 47.5342 8.71582L41.6382 5.53711C41.5063 5.46387 41.3989 5.42725 41.3159 5.42725Z" transform="translate(15 23.1729)" fill="#373B3E"/>
<path d="M9.62891 32.207C9.13411 32.7018 8.88672 33.1836 8.88672 33.6523C8.88672 34.1211 9.02344 34.4792 9.29688 34.7266C9.57031 34.9609 9.92839 35.1432 10.3711 35.2734C11.0482 35.4557 11.7969 35.5469 12.6172 35.5469H14.2969C18.5417 35.5469 21.3346 36.5625 22.6758 38.5938C23.1706 39.349 23.418 40.2669 23.418 41.3477C23.418 42.4414 23.2357 43.3984 22.8711 44.2188C22.5065 45.0391 22.0182 45.7617 21.4062 46.3867C20.7943 47.0247 20.0846 47.5716 19.2773 48.0273C18.4701 48.4831 17.6172 48.8542 16.7188 49.1406C14.9609 49.7266 13.3203 50.0195 11.7969 50.0195C10.2734 50.0195 8.9388 49.8958 7.79297 49.6484C6.66016 49.4141 5.65104 49.043 4.76562 48.5352C2.85156 47.4284 1.89453 45.8398 1.89453 43.7695C1.89453 42.0117 2.77344 40.4362 4.53125 39.043C5.0651 38.6263 5.63151 38.2552 6.23047 37.9297C5.52734 37.3438 5.17578 36.556 5.17578 35.5664C5.17578 34.0169 5.94401 32.7148 7.48047 31.6602C5.22786 30.8008 3.75 29.2643 3.04688 27.0508C2.82552 26.3216 2.71484 25.5078 2.71484 24.6094C2.71484 23.7109 2.85156 22.8646 3.125 22.0703C3.41146 21.276 3.79557 20.5664 4.27734 19.9414C4.77214 19.3164 5.34505 18.7695 5.99609 18.3008C6.64714 17.832 7.34375 17.4414 8.08594 17.1289C9.54427 16.5039 11.0742 16.1914 12.6758 16.1914C15.319 16.1914 17.4284 16.8555 19.0039 18.1836C19.1732 17.5326 19.2578 16.862 19.2578 16.1719C19.2578 15.4818 19.1081 14.9219 18.8086 14.4922C19.3164 13.8932 20.0716 13.5938 21.0742 13.5938C21.6471 13.5938 22.1029 13.75 22.4414 14.0625C23.0924 14.6224 23.418 15.1823 23.418 15.7422C23.418 16.2891 23.3333 16.7708 23.1641 17.1875C22.9948 17.5911 22.7734 17.9753 22.5 18.3398C22.0182 19.0169 21.3932 19.6289 20.625 20.1758C21.1458 21.1523 21.4062 22.2852 21.4062 23.5742C21.4062 24.8503 21.1198 26.0417 20.5469 27.1484C19.987 28.2422 19.2318 29.1732 18.2812 29.9414C16.3281 31.5169 13.9193 32.3047 11.0547 32.3047C10.6641 32.3047 10.1888 32.2721 9.62891 32.207ZM8.67188 28.0469C9.14062 28.5026 9.67448 28.8411 10.2734 29.0625C10.8724 29.2839 11.5104 29.3945 12.1875 29.3945C12.8776 29.3945 13.5221 29.2969 14.1211 29.1016C14.7331 28.9062 15.2604 28.6198 15.7031 28.2422C16.6536 27.4349 17.1289 26.2891 17.1289 24.8047C17.1289 23.1641 16.7057 21.7969 15.8594 20.7031C14.8958 19.4922 13.5417 18.8867 11.7969 18.8867C9.59635 18.8867 8.17057 19.7852 7.51953 21.582C7.29818 22.194 7.1875 22.9492 7.1875 23.8477C7.1875 24.7461 7.31771 25.5534 7.57812 26.2695C7.85156 26.9857 8.21615 27.5781 8.67188 28.0469ZM8.69141 39.082C6.98568 40.2409 6.13281 41.556 6.13281 43.0273C6.13281 44.3034 6.875 45.2734 8.35938 45.9375C9.54427 46.4844 11.0026 46.7578 12.7344 46.7578C14.3099 46.7578 15.7682 46.4974 17.1094 45.9766C18.8672 45.2865 19.7461 44.1602 19.7461 42.5977C19.7461 40.5013 18.0469 39.4531 14.6484 39.4531L12.9102 39.4727C11.1393 39.4727 9.73307 39.3424 8.69141 39.082ZM40.332 37.5195C38.431 39.4206 36.1328 40.3711 33.4375 40.3711C31.3542 40.3711 29.6875 39.7721 28.4375 38.5742C27.1745 37.3633 26.543 35.7943 26.543 33.8672C26.543 31.4714 27.6107 29.6745 29.7461 28.4766C31.6732 27.3828 34.388 26.8359 37.8906 26.8359H40.332C40.3451 26.3411 40.3516 25.8594 40.3516 25.3906V23.9258C40.3516 22.181 40.0977 20.9505 39.5898 20.2344C39.0169 19.4271 38.0404 19.0234 36.6602 19.0234C33.4961 19.0234 31.8685 20.1562 31.7773 22.4219C31.7643 22.7734 31.7708 23.0664 31.7969 23.3008C31.5365 23.5091 31.0938 23.6133 30.4688 23.6133C29.8568 23.6133 29.4076 23.5417 29.1211 23.3984C28.8477 23.2552 28.6068 23.0599 28.3984 22.8125C27.9557 22.3047 27.7344 21.6602 27.7344 20.8789C27.7344 20.0846 27.9622 19.3945 28.418 18.8086C28.8867 18.2096 29.5182 17.7214 30.3125 17.3438C31.862 16.5755 33.6914 16.1914 35.8008 16.1914C37.9102 16.1914 39.4922 16.3997 40.5469 16.8164C41.6146 17.2201 42.4609 17.7604 43.0859 18.4375C44.1927 19.6354 44.7461 21.2435 44.7461 23.2617L44.5508 32.6367C44.5508 34.3424 44.6289 35.4232 44.7852 35.8789C44.9544 36.3346 45.1497 36.6406 45.3711 36.7969C45.6055 36.9531 45.8854 37.0312 46.2109 37.0312C46.5495 37.0312 46.8229 36.9792 47.0312 36.875L47.5781 36.6211C47.7604 36.556 47.9167 36.6341 48.0469 36.8555C48.1901 37.0638 48.2617 37.2526 48.2617 37.4219C48.2617 37.5781 48.1901 37.7865 48.0469 38.0469C47.9167 38.3073 47.6628 38.5872 47.2852 38.8867C46.9206 39.1732 46.5039 39.4271 46.0352 39.6484C43.444 40.8724 41.6797 40.5859 40.7422 38.7891C40.5469 38.4375 40.4102 38.0143 40.332 37.5195ZM40.2734 34.9609C40.2734 33.0859 40.2865 31.224 40.3125 29.375C37.6042 29.4792 35.7617 29.6549 34.7852 29.9023C33.8216 30.1367 33.125 30.3646 32.6953 30.5859C32.2656 30.8073 31.9271 31.0677 31.6797 31.3672C31.276 31.862 31.0742 32.6107 31.0742 33.6133C31.0742 34.6029 31.4258 35.3971 32.1289 35.9961C32.832 36.582 33.8411 36.875 35.1562 36.875C37.0182 36.875 38.724 36.237 40.2734 34.9609ZM61.6992 40.0977C61.4258 40.0326 61.0091 40 60.4492 40H53.8281C52.5781 40 51.7773 39.7786 51.4258 39.3359C51.2826 39.1667 51.2109 38.9714 51.2109 38.75C51.2109 38.2031 51.3151 37.7995 51.5234 37.5391C51.8359 37.6432 52.1224 37.6953 52.3828 37.6953C52.6562 37.6953 52.8841 37.6628 53.0664 37.5977C53.2487 37.5195 53.3919 37.3958 53.4961 37.2266C53.6784 36.9141 53.7695 36.3021 53.7695 35.3906V22.6172C53.7695 21.3932 53.5417 20.6315 53.0859 20.332C52.9036 20.2148 52.6628 20.1562 52.3633 20.1562C52.0638 20.1562 51.8229 20.2018 51.6406 20.293C51.4714 20.3841 51.3281 20.4492 51.2109 20.4883C51.1068 20.5273 51.0156 20.5273 50.9375 20.4883C50.8594 20.4362 50.7812 20.3646 50.7031 20.2734C50.5078 20.0391 50.4102 19.8177 50.4102 19.6094C50.4102 19.388 50.4883 19.1536 50.6445 18.9062C50.8138 18.6458 51.0807 18.3529 51.4453 18.0273C51.8099 17.6888 52.2266 17.3828 52.6953 17.1094C53.75 16.4974 54.8047 16.1914 55.8594 16.1914C57.0573 16.1914 57.7669 16.9727 57.9883 18.5352C58.0534 18.9909 58.0924 19.4661 58.1055 19.9609C60.0065 18.2812 61.9661 17.1289 63.9844 16.5039C64.6615 16.2956 65.2734 16.1914 65.8203 16.1914C66.3802 16.1914 66.8359 16.2695 67.1875 16.4258C67.5521 16.582 67.8385 16.7969 68.0469 17.0703C68.4375 17.6042 68.6328 18.2878 68.6328 19.1211C68.6328 19.9544 68.5938 20.6185 68.5156 21.1133C68.4375 21.6081 68.3398 22.0443 68.2227 22.4219C67.9883 23.1901 67.7669 23.6784 67.5586 23.8867C67.194 24.2643 66.7057 24.4531 66.0938 24.4531C65.4688 24.4531 65.1562 24.2708 65.1562 23.9062C65.1562 22.513 65.0977 21.6211 64.9805 21.2305C64.7591 20.5143 64.3424 20.1562 63.7305 20.1562C63.1185 20.1562 62.5651 20.2279 62.0703 20.3711C61.5755 20.5013 61.0938 20.6836 60.625 20.918C59.6745 21.3867 58.8411 21.9922 58.125 22.7344V35.7227C58.1641 36.7513 58.6133 37.3763 59.4727 37.5977C59.7201 37.6628 60 37.7214 60.3125 37.7734C60.625 37.8255 60.8919 37.8906 61.1133 37.9688C61.3477 38.0339 61.5299 38.112 61.6602 38.2031C61.8815 38.3724 61.9922 38.6458 61.9922 39.0234C61.9922 39.4922 61.8945 39.8503 61.6992 40.0977ZM85.2539 37.5195C83.3529 39.4206 81.0547 40.3711 78.3594 40.3711C76.276 40.3711 74.6094 39.7721 73.3594 38.5742C72.0964 37.3633 71.4648 35.7943 71.4648 33.8672C71.4648 31.4714 72.5326 29.6745 74.668 28.4766C76.5951 27.3828 79.3099 26.8359 82.8125 26.8359H85.2539C85.2669 26.3411 85.2734 25.8594 85.2734 25.3906V23.9258C85.2734 22.181 85.0195 20.9505 84.5117 20.2344C83.9388 19.4271 82.9622 19.0234 81.582 19.0234C78.418 19.0234 76.7904 20.1562 76.6992 22.4219C76.6862 22.7734 76.6927 23.0664 76.7188 23.3008C76.4583 23.5091 76.0156 23.6133 75.3906 23.6133C74.7786 23.6133 74.3294 23.5417 74.043 23.3984C73.7695 23.2552 73.5286 23.0599 73.3203 22.8125C72.8776 22.3047 72.6562 21.6602 72.6562 20.8789C72.6562 20.0846 72.8841 19.3945 73.3398 18.8086C73.8086 18.2096 74.4401 17.7214 75.2344 17.3438C76.7839 16.5755 78.6133 16.1914 80.7227 16.1914C82.832 16.1914 84.4141 16.3997 85.4688 16.8164C86.5365 17.2201 87.3828 17.7604 88.0078 18.4375C89.1146 19.6354 89.668 21.2435 89.668 23.2617L89.4727 32.6367C89.4727 34.3424 89.5508 35.4232 89.707 35.8789C89.8763 36.3346 90.0716 36.6406 90.293 36.7969C90.5273 36.9531 90.8073 37.0312 91.1328 37.0312C91.4714 37.0312 91.7448 36.9792 91.9531 36.875L92.5 36.6211C92.6823 36.556 92.8385 36.6341 92.9688 36.8555C93.112 37.0638 93.1836 37.2526 93.1836 37.4219C93.1836 37.5781 93.112 37.7865 92.9688 38.0469C92.8385 38.3073 92.5846 38.5872 92.207 38.8867C91.8424 39.1732 91.4258 39.4271 90.957 39.6484C88.3659 40.8724 86.6016 40.5859 85.6641 38.7891C85.4688 38.4375 85.332 38.0143 85.2539 37.5195ZM85.1953 34.9609C85.1953 33.0859 85.2083 31.224 85.2344 29.375C82.526 29.4792 80.6836 29.6549 79.707 29.9023C78.7435 30.1367 78.0469 30.3646 77.6172 30.5859C77.1875 30.8073 76.849 31.0677 76.6016 31.3672C76.1979 31.862 75.9961 32.6107 75.9961 33.6133C75.9961 34.6029 76.3477 35.3971 77.0508 35.9961C77.7539 36.582 78.763 36.875 80.0781 36.875C81.9401 36.875 83.6458 36.237 85.1953 34.9609ZM103.34 32.207C102.845 32.7018 102.598 33.1836 102.598 33.6523C102.598 34.1211 102.734 34.4792 103.008 34.7266C103.281 34.9609 103.639 35.1432 104.082 35.2734C104.759 35.4557 105.508 35.5469 106.328 35.5469H108.008C112.253 35.5469 115.046 36.5625 116.387 38.5938C116.882 39.349 117.129 40.2669 117.129 41.3477C117.129 42.4414 116.947 43.3984 116.582 44.2188C116.217 45.0391 115.729 45.7617 115.117 46.3867C114.505 47.0247 113.796 47.5716 112.988 48.0273C112.181 48.4831 111.328 48.8542 110.43 49.1406C108.672 49.7266 107.031 50.0195 105.508 50.0195C103.984 50.0195 102.65 49.8958 101.504 49.6484C100.371 49.4141 99.362 49.043 98.4766 48.5352C96.5625 47.4284 95.6055 45.8398 95.6055 43.7695C95.6055 42.0117 96.4844 40.4362 98.2422 39.043C98.776 38.6263 99.3424 38.2552 99.9414 37.9297C99.2383 37.3438 98.8867 36.556 98.8867 35.5664C98.8867 34.0169 99.6549 32.7148 101.191 31.6602C98.9388 30.8008 97.4609 29.2643 96.7578 27.0508C96.5365 26.3216 96.4258 25.5078 96.4258 24.6094C96.4258 23.7109 96.5625 22.8646 96.8359 22.0703C97.1224 21.276 97.5065 20.5664 97.9883 19.9414C98.4831 19.3164 99.056 18.7695 99.707 18.3008C100.358 17.832 101.055 17.4414 101.797 17.1289C103.255 16.5039 104.785 16.1914 106.387 16.1914C109.03 16.1914 111.139 16.8555 112.715 18.1836C112.884 17.5326 112.969 16.862 112.969 16.1719C112.969 15.4818 112.819 14.9219 112.52 14.4922C113.027 13.8932 113.783 13.5938 114.785 13.5938C115.358 13.5938 115.814 13.75 116.152 14.0625C116.803 14.6224 117.129 15.1823 117.129 15.7422C117.129 16.2891 117.044 16.7708 116.875 17.1875C116.706 17.5911 116.484 17.9753 116.211 18.3398C115.729 19.0169 115.104 19.6289 114.336 20.1758C114.857 21.1523 115.117 22.2852 115.117 23.5742C115.117 24.8503 114.831 26.0417 114.258 27.1484C113.698 28.2422 112.943 29.1732 111.992 29.9414C110.039 31.5169 107.63 32.3047 104.766 32.3047C104.375 32.3047 103.9 32.2721 103.34 32.207ZM102.383 28.0469C102.852 28.5026 103.385 28.8411 103.984 29.0625C104.583 29.2839 105.221 29.3945 105.898 29.3945C106.589 29.3945 107.233 29.2969 107.832 29.1016C108.444 28.9062 108.971 28.6198 109.414 28.2422C110.365 27.4349 110.84 26.2891 110.84 24.8047C110.84 23.1641 110.417 21.7969 109.57 20.7031C108.607 19.4922 107.253 18.8867 105.508 18.8867C103.307 18.8867 101.882 19.7852 101.23 21.582C101.009 22.194 100.898 22.9492 100.898 23.8477C100.898 24.7461 101.029 25.5534 101.289 26.2695C101.562 26.9857 101.927 27.5781 102.383 28.0469ZM102.402 39.082C100.697 40.2409 99.8438 41.556 99.8438 43.0273C99.8438 44.3034 100.586 45.2734 102.07 45.9375C103.255 46.4844 104.714 46.7578 106.445 46.7578C108.021 46.7578 109.479 46.4974 110.82 45.9766C112.578 45.2865 113.457 44.1602 113.457 42.5977C113.457 40.5013 111.758 39.4531 108.359 39.4531L106.621 39.4727C104.85 39.4727 103.444 39.3424 102.402 39.082ZM120.234 29.4922C120.234 27.9167 120.397 26.5169 120.723 25.293C121.048 24.069 121.484 22.9753 122.031 22.0117C122.591 21.0352 123.242 20.1823 123.984 19.4531C124.74 18.724 125.547 18.1185 126.406 17.6367C128.099 16.6732 129.766 16.1914 131.406 16.1914C133.047 16.1914 134.362 16.4844 135.352 17.0703C136.341 17.6432 137.148 18.4115 137.773 19.375C138.932 21.2109 139.512 23.6523 139.512 26.6992C139.512 27.832 139.036 28.4115 138.086 28.4375L124.453 28.7305C124.531 31.556 125.26 33.6458 126.641 35C127.812 36.1458 129.329 36.7188 131.191 36.7188C133.965 36.7188 136.217 36.1393 137.949 34.9805C138.066 34.9805 138.21 35.0781 138.379 35.2734C138.704 35.6641 138.867 36.0026 138.867 36.2891C138.867 36.9141 138.086 37.7148 136.523 38.6914C134.727 39.8112 132.63 40.3711 130.234 40.3711C127.109 40.3711 124.655 39.375 122.871 37.3828C121.113 35.4297 120.234 32.7995 120.234 29.4922ZM124.57 26.2109C128.32 26.0286 131.751 25.7878 134.863 25.4883C135.007 21.3477 133.574 19.2773 130.566 19.2773C128.887 19.2773 127.513 19.9284 126.445 21.2305C125.469 22.4284 124.844 24.0885 124.57 26.2109Z" transform="translate(86 8.98242)" fill="white"/>
<defs>
<filter id="filter0_d" x="0.5" y="0.5" width="78" height="69.3076" filterUnits="userSpaceOnUse" color-interpolation-filters="sRGB">
<feFlood flood-opacity="0" result="BackgroundImageFix"/>
<feColorMatrix in="SourceAlpha" type="matrix" values="0 0 0 0 0 0 0 0 0 0 0 0 0 0 0 0 0 0 255 0"/>
<feOffset dy="4"/>
<feGaussianBlur stdDeviation="2"/>
<feColorMatrix type="matrix" values="0 0 0 0 0 0 0 0 0 0 0 0 0 0 0 0 0 0 0.25 0"/>
<feBlend mode="normal" in2="BackgroundImageFix" result="effect1_dropShadow"/>
<feBlend mode="normal" in="SourceGraphic" in2="effect1_dropShadow" result="shape"/>
</filter>
</defs>
</svg>
