<svg xmlns="http://www.w3.org/2000/svg" width="227" height="68" fill="none" viewBox="0 0 227 68">
    <path fill="#fff" d="M-124-40h1372v6921H-124z"/>
    <path fill="url(#a)" d="M0 0h147v1371H0z" transform="rotate(-90 -8.5 115.5)"/>
    <g filter="url(#b)">
        <path fill="#fff" d="M31.829 12.358l-5.719 1.675-8.768-4.02-5.718 5.025 4.384 7.874-2.668 4.523L4 29.948v7.036l9.34 3.183 2.668 4.69-4.384 7.371 5.718 4.858 8.769-3.518 5.718 2.178 3.621 8.376h7.243l2.669-8.376 5.718-2.178 10.293 3.518 4.193-4.858-4.193-7.37 2.287-4.691L73 36.984v-7.036l-9.34-2.513-2.287-4.523 4.193-7.874-5.909-5.025-8.577 4.02-5.718-1.675-2.669-8.544h-8.768l-2.096 8.544z"/>
        <path stroke="#fff" d="M26.11 14.033l5.719-1.675 2.096-8.544h8.768l2.669 8.544 5.718 1.675 8.578-4.02 5.908 5.025-4.193 7.874 2.287 4.523L73 29.948v7.036l-9.34 3.183-2.287 4.69 4.193 7.371-4.193 4.858-10.293-3.518-5.718 2.178-2.669 8.376H35.45l-3.621-8.376-5.719-2.178-8.768 3.518-5.718-4.858 4.384-7.37-2.668-4.691L4 36.984v-7.036l9.34-2.513 2.668-4.523-4.384-7.874 5.718-5.025 8.769 4.02z"/>
    </g>
    <path fill="#373B3E" d="M22.262 31.21c.278 0 .417.353.417 1.061 0 .176-.117.333-.351.47l-5.105 2.76 5.046 2.886c.278.152.418.354.418.608s-.044.466-.132.637c-.083.166-.183.25-.3.25a.617.617 0 0 1-.316-.081l-5.896-3.267c-.336-.2-.505-.522-.505-.967 0-.22.046-.43.14-.63.097-.205.219-.351.365-.439l5.896-3.179a.715.715 0 0 1 .323-.11zm6.548 9.814a2.136 2.136 0 0 0-.47-.037h-2.196c-.47 0-.77-.083-.901-.249a.33.33 0 0 1-.08-.22c0-.204.038-.356.116-.454.117.04.252.059.403.059a.366.366 0 0 0 .337-.183c.073-.122.107-.35.103-.681v-9.075c0-.337-.035-.554-.103-.652-.103-.156-.283-.234-.542-.234-.078 0-.159.01-.242.03a.317.317 0 0 1-.183-.008.296.296 0 0 1-.095-.095c-.063-.098-.059-.196.015-.293.078-.103.188-.21.33-.323a2.53 2.53 0 0 1 .468-.293c.366-.19.681-.285.945-.285.268 0 .466.039.593.117.132.078.23.183.293.315.107.215.161.561.161 1.04v9.829c0 .405.122.654.366.747.069.03.15.054.242.073.098.02.186.044.264.074.078.024.139.053.183.088.073.063.11.166.11.307 0 .171-.04.305-.117.403zm3.098-8.965c.761 0 1.142.234 1.142.703 0 .591-.593 1.406-1.78 2.446-.459.406-.92.752-1.384 1.04.313.289.633.662.96 1.121l.769 1.084c.644.923 1.13 1.384 1.457 1.384.269 0 .445-.027.528-.08a.588.588 0 0 1 .19-.088c.04-.005.09.012.154.051.063.04.095.105.095.198 0 .093-.039.21-.117.352a1.535 1.535 0 0 1-.315.395c-.332.308-.691.462-1.077.462s-.71-.09-.974-.271a3.607 3.607 0 0 1-.74-.711 8.238 8.238 0 0 1-.651-.974l-.608-1.04c-.494-.85-.916-1.401-1.267-1.655-.206-.142-.274-.232-.206-.271l.213-.118 1.18-.842c.502-.376.849-.671 1.04-.886.37-.415.556-.762.556-1.04 0-.195-.196-.308-.586-.337a.462.462 0 0 1-.073-.25c0-.087.046-.172.139-.255.097-.088.22-.162.366-.22.312-.132.642-.198.989-.198zm2.768 4.885c0-.595.059-1.13.176-1.604.117-.473.278-.89.483-1.252.205-.361.447-.67.725-.923.279-.259.577-.469.894-.63a4.42 4.42 0 0 1 2.044-.476c.952 0 1.76.347 2.424 1.04.737.762 1.106 1.768 1.106 3.018 0 1.64-.447 2.917-1.34 3.83-.777.786-1.707 1.18-2.791 1.18-1.133 0-2.041-.398-2.725-1.194-.664-.767-.996-1.763-.996-2.989zm4.153 2.989c.327 0 .62-.076.879-.227a2.1 2.1 0 0 0 .66-.638c.36-.556.541-1.279.541-2.168 0-.976-.19-1.806-.571-2.49-.43-.786-1.047-1.179-1.853-1.179-.65 0-1.17.249-1.56.747-.415.527-.623 1.265-.623 2.212 0 1.187.262 2.124.784 2.812.469.62 1.05.93 1.743.93zm11.155.139c-.757.708-1.59 1.062-2.498 1.062-1 0-1.816-.342-2.446-1.026-.684-.752-1.025-1.79-1.025-3.112 0-1.49.473-2.7 1.42-3.633.884-.87 1.93-1.304 3.135-1.304.484 0 .948.08 1.392.242v-2.117c0-.342-.034-.559-.103-.652-.112-.156-.295-.234-.549-.234a1.45 1.45 0 0 0-.322.036c-.103.02-.176.02-.22 0a.295.295 0 0 1-.095-.095c-.098-.16.024-.366.366-.615.537-.395 1.067-.593 1.59-.593.551 0 .866.3.944.9.02.181.03.372.03.572v8.503c0 .752.029 1.221.087 1.407.059.185.127.307.205.366.083.054.186.08.308.08s.222-.02.3-.058l.22-.095c.064-.015.12.014.169.088.102.15.117.288.043.41-.073.122-.183.239-.329.351-.147.113-.31.21-.49.293-.792.357-1.383.364-1.773.022-.19-.166-.31-.432-.36-.798zm-.022-6.284a2.67 2.67 0 0 0-1.67-.55c-.762 0-1.38.281-1.853.843-.508.6-.762 1.418-.762 2.453 0 1.646.469 2.661 1.406 3.047.293.117.577.176.85.176.278 0 .51-.022.696-.066a2.82 2.82 0 0 0 .52-.176c.322-.146.593-.325.813-.534v-5.193zm5.354-2.373c-.278 0-.418.354-.418 1.062 0 .175.118.332.352.468l5.105 2.762-5.046 2.885c-.279.152-.418.354-.418.608s.042.467.125.637c.087.166.19.25.307.25a.617.617 0 0 0 .315-.081l5.896-3.267c.337-.2.506-.522.506-.967 0-.22-.05-.43-.147-.63-.093-.204-.212-.351-.359-.439l-5.896-3.179a.715.715 0 0 0-.322-.11z"/>
    <path fill="#fff" d="M94.629 44.004c-.495.495-.742.977-.742 1.445 0 .469.136.827.41 1.075.273.234.631.416 1.074.546a8.63 8.63 0 0 0 2.246.274h1.68c4.245 0 7.038 1.015 8.379 3.047.495.755.742 1.673.742 2.754 0 1.093-.182 2.05-.547 2.87a7.318 7.318 0 0 1-1.465 2.169 9.18 9.18 0 0 1-2.129 1.64c-.807.456-1.66.827-2.558 1.114-1.758.585-3.399.878-4.922.878-1.524 0-2.858-.123-4.004-.37-1.133-.235-2.142-.606-3.027-1.114-1.914-1.107-2.871-2.695-2.871-4.766 0-1.757.878-3.333 2.636-4.726.534-.417 1.1-.788 1.7-1.113-.704-.586-1.055-1.374-1.055-2.364 0-1.55.768-2.851 2.304-3.906-2.252-.86-3.73-2.396-4.433-4.61-.221-.729-.332-1.542-.332-2.44 0-.9.137-1.745.41-2.54a7.786 7.786 0 0 1 1.152-2.129 8.559 8.559 0 0 1 1.72-1.64c.65-.47 1.347-.86 2.089-1.172a11.532 11.532 0 0 1 4.59-.938c2.643 0 4.752.664 6.328 1.992a7.96 7.96 0 0 0 .254-2.011c0-.69-.15-1.25-.45-1.68.508-.599 1.264-.898 2.266-.898.573 0 1.029.156 1.367.468.651.56.977 1.12.977 1.68 0 .547-.085 1.029-.254 1.445-.17.404-.39.788-.664 1.153-.482.677-1.107 1.289-1.875 1.836.52.976.781 2.11.781 3.398a7.661 7.661 0 0 1-.86 3.574 8.573 8.573 0 0 1-2.265 2.793c-1.953 1.576-4.362 2.364-7.226 2.364-.39 0-.866-.033-1.426-.098zm-.957-4.16a4.53 4.53 0 0 0 1.601 1.015 5.477 5.477 0 0 0 1.915.332c.69 0 1.334-.097 1.933-.293a4.527 4.527 0 0 0 1.582-.859c.95-.807 1.426-1.953 1.426-3.437 0-1.641-.423-3.008-1.27-4.102-.963-1.21-2.317-1.816-4.062-1.816-2.2 0-3.626.898-4.277 2.695-.222.612-.332 1.367-.332 2.266 0 .898.13 1.705.39 2.421.274.717.638 1.309 1.094 1.778zm.02 11.035c-1.706 1.159-2.56 2.474-2.56 3.945 0 1.276.743 2.246 2.227 2.91 1.185.547 2.644.82 4.375.82 1.576 0 3.034-.26 4.375-.78 1.758-.69 2.637-1.817 2.637-3.38 0-2.096-1.7-3.144-5.098-3.144l-1.738.02c-1.77 0-3.177-.13-4.219-.391zm31.64-1.563c-1.901 1.901-4.2 2.852-6.894 2.852-2.084 0-3.75-.599-5-1.797-1.264-1.21-1.895-2.78-1.895-4.707 0-2.396 1.068-4.193 3.203-5.39 1.927-1.094 4.642-1.641 8.145-1.641h2.441c.013-.495.02-.977.02-1.446v-1.464c0-1.745-.254-2.976-.762-3.692-.573-.807-1.55-1.21-2.93-1.21-3.164 0-4.791 1.132-4.883 3.398-.013.351-.006.644.02.879-.26.208-.703.312-1.328.312-.612 0-1.061-.071-1.348-.215a2.39 2.39 0 0 1-.723-.586c-.442-.507-.664-1.152-.664-1.933 0-.794.228-1.485.684-2.07.469-.6 1.1-1.088 1.894-1.465 1.55-.769 3.38-1.153 5.489-1.153 2.11 0 3.691.209 4.746.625 1.068.404 1.914.944 2.539 1.621 1.107 1.198 1.66 2.806 1.66 4.825l-.195 9.375c0 1.705.078 2.786.234 3.242.17.456.365.762.586.918.234.156.514.234.84.234.338 0 .612-.052.82-.156l.547-.254c.182-.065.339.013.469.234.143.209.215.398.215.567 0 .156-.072.364-.215.625-.13.26-.384.54-.762.84-.364.286-.781.54-1.25.761-2.591 1.224-4.355.938-5.293-.859-.195-.352-.332-.775-.41-1.27zm-.059-2.558c0-1.875.014-3.737.04-5.586-2.709.104-4.551.28-5.528.527-.963.235-1.66.463-2.09.684-.43.221-.768.482-1.015.781-.404.495-.606 1.244-.606 2.246 0 .99.352 1.784 1.055 2.383.703.586 1.712.879 3.027.879 1.862 0 3.568-.638 5.117-1.914zm21.426 5.137c-.273-.066-.69-.098-1.25-.098h-6.62c-1.25 0-2.052-.221-2.403-.664a.88.88 0 0 1-.215-.586c0-.547.104-.95.312-1.211.313.104.6.156.86.156.273 0 .501-.032.683-.097a.919.919 0 0 0 .43-.372c.182-.312.273-.924.273-1.836V34.415c0-1.224-.227-1.986-.683-2.285-.182-.117-.423-.176-.723-.176s-.54.046-.722.137c-.17.091-.313.156-.43.195-.104.04-.195.04-.274 0a1.17 1.17 0 0 1-.234-.215c-.195-.234-.293-.455-.293-.664 0-.221.078-.455.234-.703.17-.26.437-.553.801-.879a7.045 7.045 0 0 1 1.25-.918c1.055-.612 2.11-.918 3.164-.918 1.198 0 1.908.782 2.13 2.344.064.456.103.931.116 1.426 1.901-1.68 3.861-2.832 5.88-3.457.676-.208 1.288-.313 1.835-.313.56 0 1.016.078 1.368.235.364.156.65.37.859.644.39.534.586 1.218.586 2.051 0 .833-.04 1.497-.117 1.992a9.395 9.395 0 0 1-.293 1.309c-.235.768-.456 1.256-.664 1.465-.365.377-.853.566-1.465.566-.625 0-.938-.182-.938-.547 0-1.393-.058-2.285-.175-2.676-.222-.716-.639-1.074-1.25-1.074-.612 0-1.166.072-1.66.215-.495.13-.977.313-1.446.547a8.932 8.932 0 0 0-2.5 1.816V47.52c.04 1.028.488 1.653 1.348 1.875.247.065.527.123.84.175.312.052.579.117.8.196.235.065.417.143.547.234.222.17.332.443.332.82 0 .47-.097.827-.293 1.075zm23.555-2.579c-1.901 1.901-4.2 2.852-6.895 2.852-2.083 0-3.75-.599-5-1.797-1.263-1.21-1.894-2.78-1.894-4.707 0-2.396 1.068-4.193 3.203-5.39 1.927-1.094 4.642-1.641 8.144-1.641h2.442c.013-.495.02-.977.02-1.446v-1.464c0-1.745-.255-2.976-.762-3.692-.573-.807-1.55-1.21-2.93-1.21-3.164 0-4.792 1.132-4.883 3.398-.013.351-.006.644.02.879-.26.208-.703.312-1.328.312-.612 0-1.062-.071-1.348-.215a2.387 2.387 0 0 1-.723-.586c-.442-.507-.664-1.152-.664-1.933 0-.794.228-1.485.684-2.07.469-.6 1.1-1.088 1.894-1.465 1.55-.769 3.38-1.153 5.489-1.153s3.691.209 4.746.625c1.068.404 1.914.944 2.539 1.621 1.107 1.198 1.66 2.806 1.66 4.825l-.195 9.375c0 1.705.078 2.786.234 3.242.17.456.365.762.586.918.234.156.514.234.84.234.338 0 .612-.052.82-.156l.547-.254c.182-.065.339.013.469.234.143.209.215.398.215.567 0 .156-.072.364-.215.625-.13.26-.384.54-.762.84-.365.286-.781.54-1.25.761-2.591 1.224-4.355.938-5.293-.859-.195-.352-.332-.775-.41-1.27zm-.059-2.558c0-1.875.013-3.737.04-5.586-2.709.104-4.551.28-5.528.527-.963.235-1.66.463-2.09.684-.43.221-.768.482-1.015.781-.404.495-.606 1.244-.606 2.246 0 .99.352 1.784 1.055 2.383.703.586 1.712.879 3.027.879 1.862 0 3.568-.638 5.117-1.914zm18.145-2.754c-.495.495-.742.977-.742 1.445 0 .469.136.827.41 1.075.273.234.631.416 1.074.546a8.631 8.631 0 0 0 2.246.274h1.68c4.245 0 7.038 1.015 8.379 3.047.495.755.742 1.673.742 2.754 0 1.093-.182 2.05-.547 2.87a7.326 7.326 0 0 1-1.465 2.169 9.168 9.168 0 0 1-2.129 1.64c-.807.456-1.66.827-2.558 1.114-1.758.585-3.399.878-4.922.878-1.524 0-2.858-.123-4.004-.37-1.133-.235-2.142-.606-3.027-1.114-1.915-1.107-2.872-2.695-2.872-4.766 0-1.757.88-3.333 2.637-4.726.534-.417 1.1-.788 1.7-1.113-.704-.586-1.055-1.374-1.055-2.364 0-1.55.768-2.851 2.304-3.906-2.252-.86-3.73-2.396-4.433-4.61-.222-.729-.332-1.542-.332-2.44 0-.9.136-1.745.41-2.54a7.786 7.786 0 0 1 1.152-2.129 8.56 8.56 0 0 1 1.719-1.64c.651-.47 1.348-.86 2.09-1.172a11.53 11.53 0 0 1 4.59-.938c2.643 0 4.752.664 6.328 1.992a7.974 7.974 0 0 0 .254-2.011c0-.69-.15-1.25-.449-1.68.507-.599 1.263-.898 2.265-.898.573 0 1.029.156 1.367.468.651.56.977 1.12.977 1.68 0 .547-.085 1.029-.254 1.445a5.398 5.398 0 0 1-.664 1.153c-.482.677-1.107 1.289-1.875 1.836.521.976.781 2.11.781 3.398a7.66 7.66 0 0 1-.859 3.574 8.57 8.57 0 0 1-2.266 2.793c-1.953 1.576-4.362 2.364-7.226 2.364-.391 0-.866-.033-1.426-.098zm-.957-4.16a4.53 4.53 0 0 0 1.601 1.015 5.476 5.476 0 0 0 1.914.332 6.2 6.2 0 0 0 1.934-.293 4.53 4.53 0 0 0 1.582-.859c.951-.807 1.426-1.953 1.426-3.437 0-1.641-.423-3.008-1.27-4.102-.963-1.21-2.317-1.816-4.062-1.816-2.201 0-3.626.898-4.278 2.695-.221.612-.332 1.367-.332 2.266 0 .898.131 1.705.391 2.421.273.717.638 1.309 1.094 1.778zm.019 11.035c-1.705 1.159-2.558 2.474-2.558 3.945 0 1.276.742 2.246 2.226 2.91 1.185.547 2.644.82 4.375.82 1.576 0 3.034-.26 4.375-.78 1.758-.69 2.637-1.817 2.637-3.38 0-2.096-1.699-3.144-5.098-3.144l-1.738.02c-1.771 0-3.177-.13-4.219-.391zm17.832-9.59c0-1.575.163-2.975.489-4.2.325-1.223.761-2.317 1.308-3.28.56-.977 1.211-1.83 1.953-2.559a11.812 11.812 0 0 1 2.422-1.816c1.693-.964 3.36-1.446 5-1.446 1.641 0 2.956.293 3.946.88a7.076 7.076 0 0 1 2.421 2.304c1.159 1.836 1.739 4.277 1.739 7.324 0 1.133-.476 1.712-1.426 1.738l-13.633.293c.078 2.826.807 4.916 2.188 6.27 1.171 1.146 2.688 1.719 4.55 1.719 2.774 0 5.026-.58 6.758-1.739.117 0 .261.098.43.293.325.391.488.73.488 1.016 0 .625-.781 1.426-2.344 2.402-1.796 1.12-3.893 1.68-6.289 1.68-3.125 0-5.579-.996-7.363-2.988-1.758-1.953-2.637-4.584-2.637-7.89zm4.336-3.281c3.75-.182 7.181-.423 10.293-.723.144-4.14-1.289-6.21-4.297-6.21-1.679 0-3.053.65-4.121 1.952-.976 1.198-1.601 2.858-1.875 4.98z"/>
    <defs>
        <filter id="b" width="78" height="69.308" x="-.5" y="3.314" color-interpolation-filters="sRGB" filterUnits="userSpaceOnUse">
            <feFlood flood-opacity="0" result="BackgroundImageFix"/>
            <feColorMatrix in="SourceAlpha" values="0 0 0 0 0 0 0 0 0 0 0 0 0 0 0 0 0 0 255 0"/>
            <feOffset dy="4"/>
            <feGaussianBlur stdDeviation="2"/>
            <feColorMatrix values="0 0 0 0 0 0 0 0 0 0 0 0 0 0 0 0 0 0 0.25 0"/>
            <feBlend in2="BackgroundImageFix" result="effect1_dropShadow"/>
            <feBlend in="SourceGraphic" in2="effect1_dropShadow" result="shape"/>
        </filter>
        <linearGradient id="a" x2="1" gradientTransform="matrix(147 1348.5 -517.343 4529.25 258.671 -2264.62)" gradientUnits="userSpaceOnUse">
            <stop stop-color="#2D3947"/>
            <stop offset="1" stop-color="#111922"/>
        </linearGradient>
    </defs>
</svg>
