<svg width="190" height="184" viewBox="0 0 190 184" fill="none" xmlns="http://www.w3.org/2000/svg">
<path d="M34.1981 71.8369H18.8108C14.5965 71.8369 10.9821 68.8362 10.217 64.7027L0.147812 10.2991C-0.84382 4.94168 3.28007 4.3486e-06 8.74158 4.3486e-06H24.1289C28.3432 4.3486e-06 31.9576 3.00074 32.7227 7.1342L42.7919 61.5378C43.7835 66.8952 39.6602 71.8369 34.1981 71.8369Z" transform="translate(48.7148 115.6) rotate(-8.84079)" fill="url(#paint0_linear)"/>
<path d="M5.90012 138.066C2.64175 138.066 0 135.431 0 132.181V5.88515C0 2.63504 2.64175 0 5.90012 0C9.1585 0 11.8002 2.63504 11.8002 5.88515V132.182C11.8002 135.432 9.1585 138.066 5.90012 138.066Z" transform="translate(157.75 1.89941) rotate(-8.84079)" fill="url(#paint1_linear)"/>
<path fill-rule="evenodd" clip-rule="evenodd" d="M172.802 123.243L91.503 99.3802L91.5382 98.7816L42.1394 98.9873C38.9373 99.0007 36.2397 96.8277 35.4616 93.8754L16.1425 93.9557C7.33873 93.9925 0.170076 86.9022 0.135614 78.119L0.000154796 45.6348C-0.0382431 36.8516 7.07183 29.7027 15.8756 29.6654L35.1276 29.5853C35.7815 26.4896 38.528 24.1598 41.8251 24.1454L91.2238 23.9402L91.1888 24.5379L172.286 0L172.802 123.243Z" transform="translate(-5.94141 33.7637) rotate(-8.60127)" fill="url(#paint2_linear)"/>
<path fill-rule="evenodd" clip-rule="evenodd" d="M94.6315 37.5573L42.5857 37.7636C39.1584 37.7771 36.2782 35.5315 35.5117 32.5024L16.932 32.5786C7.65402 32.6162 0.107206 25.5185 0.0665525 16.7241L0 0.683146L35.1781 0.54429L43.5794 0.503925L94.4661 0.308972L172.618 0L172.887 61.4798L94.6315 37.5573Z" transform="translate(3.29297 94.8198) rotate(-8.60127)" fill="url(#paint3_linear)"/>
<defs>
<linearGradient id="paint0_linear" x2="1" gradientUnits="userSpaceOnUse" gradientTransform="matrix(42.9397 5.98642 -3.57831 979.362 1.78916 -453.763)">
<stop stop-color="#FFC379"/>
<stop offset="0.679558" stop-color="#FF8D00"/>
</linearGradient>
<linearGradient id="paint1_linear" x2="1" gradientUnits="userSpaceOnUse" gradientTransform="matrix(11.8002 11.5056 -0.983355 1882.28 0.491678 -872.106)">
<stop stop-color="#FFC379"/>
<stop offset="0.679558" stop-color="#FF8D00"/>
</linearGradient>
<linearGradient id="paint2_linear" x2="1" gradientUnits="userSpaceOnUse" gradientTransform="matrix(172.802 10.2703 -14.4002 1680.19 7.20008 -778.473)">
<stop stop-color="#FFC379"/>
<stop offset="0.679558" stop-color="#FF8D00"/>
</linearGradient>
<linearGradient id="paint3_linear" x2="1" gradientUnits="userSpaceOnUse" gradientTransform="matrix(172.887 5.12333 -14.4073 838.162 7.20364 -388.341)">
<stop offset="0.0552486" stop-color="#FFBA64"/>
<stop offset="0.21547" stop-color="#FCB257"/>
<stop offset="0.845304" stop-color="#ED8300"/>
</linearGradient>
</defs>
</svg>
