<svg width="445" height="126" viewBox="0 0 445 126" fill="none" xmlns="http://www.w3.org/2000/svg">
<path d="M1.3327 0L15.5017 9.50143L15.5348 115.568L0 136.789L1.3327 0Z" transform="matrix(0.832452 -0.554097 0.563237 0.826296 0 9.51953)" fill="#E0E0E0"/>
<path d="M1.3327 0L15.5017 9.50143L15.5348 115.568L0 136.789L1.3327 0Z" transform="matrix(0.832452 -0.554097 0.563237 0.826296 0 9.51953)" fill="url(#paint0_linear)"/>
<path d="M0 0L14.9787 10.0444L14.9254 116.469L0.812194 138.813L0 0Z" transform="matrix(-0.832452 -0.554097 -0.563237 0.826296 155.918 8.2998)" fill="#01C9F9"/>
<path d="M0 0L14.9787 10.0444L14.9254 116.469L0.812194 138.813L0 0Z" transform="matrix(-0.832452 -0.554097 -0.563237 0.826296 155.918 8.2998)" fill="url(#paint1_linear)"/>
<path d="M0.530442 0L13.619 8.49556L14.5699 105.819L0 115.747L0.530442 0Z" transform="translate(40.1719 8.10938) scale(-1 1) rotate(90)" fill="#01C9F9"/>
<path d="M0.530442 0L13.619 8.49556L14.5699 105.819L0 115.747L0.530442 0Z" transform="translate(40.1719 8.10938) scale(-1 1) rotate(90)" fill="url(#paint2_linear)"/>
<path d="M0 10.3332L15.2342 0L16.9545 49.6269L2.88806 59.277L0 10.3332Z" transform="matrix(0.826615 -0.562768 -0.571918 -0.820311 71.6797 58.8906)" fill="#01C9F9"/>
<path d="M0 10.3332L15.2342 0L16.9545 49.6269L2.88806 59.277L0 10.3332Z" transform="matrix(0.826615 -0.562768 -0.571918 -0.820311 71.6797 58.8906)" fill="url(#paint3_linear)"/>
<path d="M31.7188 53H25.3271L1.87988 6.03711H6.66504L28.6426 50.0605L50.6201 6.03711H55.3711L31.7188 53ZM65.1807 53V6.03711H69.4531V53H65.1807ZM123.218 12.9756C122.329 12.5426 121.304 12.0869 120.142 11.6084C118.979 11.1071 117.646 10.6628 116.143 10.2754C114.661 9.88802 112.987 9.56901 111.118 9.31836C109.25 9.04492 107.176 8.9082 104.897 8.9082C102.14 8.9082 99.6794 9.06771 97.5146 9.38672C95.3727 9.70573 93.5498 10.207 92.0459 10.8906C90.5648 11.5514 89.4255 12.3945 88.6279 13.4199C87.8532 14.4453 87.4658 15.6644 87.4658 17.0771C87.4658 18.262 87.8304 19.2988 88.5596 20.1875C89.3115 21.0762 90.3141 21.8623 91.5674 22.5459C92.8434 23.2295 94.3245 23.8561 96.0107 24.4258C97.7197 24.9727 99.5199 25.4967 101.411 25.998C103.325 26.4766 105.285 26.9665 107.29 27.4678C109.318 27.9691 111.278 28.516 113.169 29.1084C115.083 29.6781 116.883 30.3275 118.569 31.0566C120.278 31.763 121.759 32.5947 123.013 33.5518C124.289 34.5088 125.291 35.6025 126.021 36.833C126.772 38.0635 127.148 39.4876 127.148 41.1055C127.148 42.86 126.818 44.3981 126.157 45.7197C125.496 47.0186 124.596 48.1465 123.457 49.1035C122.34 50.0378 121.019 50.8239 119.492 51.4619C117.988 52.0771 116.37 52.5671 114.639 52.9316C112.93 53.2962 111.152 53.5469 109.307 53.6836C107.484 53.8431 105.684 53.9229 103.906 53.9229C99.8275 53.9229 96.1247 53.6266 92.7979 53.0342C89.4938 52.4417 86.3379 51.6328 83.3301 50.6074V45.3779C86.429 47.2236 89.6989 48.4883 93.1396 49.1719C96.6032 49.8555 100.238 50.1973 104.043 50.1973C106.732 50.1973 109.215 50.0378 111.494 49.7188C113.773 49.3997 115.744 48.8984 117.407 48.2148C119.071 47.5085 120.358 46.597 121.27 45.4805C122.204 44.3639 122.671 42.9967 122.671 41.3789C122.671 40.0801 122.295 38.9408 121.543 37.9609C120.814 36.9811 119.811 36.1266 118.535 35.3975C117.282 34.6455 115.801 33.9847 114.092 33.415C112.406 32.8454 110.617 32.3213 108.726 31.8428C106.834 31.3415 104.875 30.863 102.847 30.4072C100.841 29.9287 98.8932 29.416 97.002 28.8691C95.1107 28.3223 93.3105 27.707 91.6016 27.0234C89.9154 26.3398 88.4342 25.5423 87.1582 24.6309C85.9049 23.6966 84.9023 22.6257 84.1504 21.418C83.4212 20.2103 83.0566 18.8089 83.0566 17.2139C83.0566 15.6416 83.3529 14.2516 83.9453 13.0439C84.5378 11.8135 85.3467 10.7539 86.3721 9.86523C87.4202 8.97656 88.6393 8.236 90.0293 7.64355C91.4193 7.02832 92.9004 6.5498 94.4727 6.20801C96.0677 5.84342 97.7197 5.58138 99.4287 5.42188C101.138 5.26237 102.824 5.18262 104.487 5.18262C106.31 5.18262 108.031 5.26237 109.648 5.42188C111.289 5.58138 112.861 5.79785 114.365 6.07129C115.892 6.32194 117.373 6.61816 118.809 6.95996C120.267 7.30176 121.737 7.66634 123.218 8.05371V12.9756ZM140.376 53V6.03711H144.648V53H140.376ZM216.836 29.5527C216.836 33.7682 216.073 37.4141 214.546 40.4902C213.019 43.5436 210.923 46.0729 208.257 48.0781C205.591 50.0605 202.446 51.5303 198.823 52.4873C195.2 53.4443 191.292 53.9229 187.1 53.9229C182.884 53.9229 178.953 53.4443 175.308 52.4873C171.662 51.5303 168.494 50.0605 165.806 48.0781C163.117 46.0729 161.009 43.5436 159.482 40.4902C157.956 37.4141 157.192 33.7682 157.192 29.5527C157.192 26.75 157.546 24.2093 158.252 21.9307C158.958 19.6292 159.95 17.5785 161.226 15.7783C162.502 13.9554 164.04 12.3831 165.84 11.0615C167.663 9.73991 169.679 8.64616 171.89 7.78027C174.123 6.8916 176.515 6.24219 179.067 5.83203C181.619 5.39909 184.297 5.18262 187.1 5.18262C191.292 5.18262 195.2 5.66113 198.823 6.61816C202.446 7.5752 205.591 9.05632 208.257 11.0615C210.923 13.0439 213.019 15.5732 214.546 18.6494C216.073 21.7028 216.836 25.3372 216.836 29.5527ZM212.427 29.5527C212.427 26.2259 211.88 23.2865 210.786 20.7344C209.715 18.1823 208.12 16.0404 206.001 14.3086C203.882 12.554 201.239 11.2324 198.071 10.3438C194.927 9.43229 191.27 8.97656 187.1 8.97656C182.93 8.97656 179.25 9.43229 176.06 10.3438C172.892 11.2552 170.238 12.5882 168.096 14.3428C165.954 16.0745 164.336 18.2279 163.242 20.8027C162.148 23.3548 161.602 26.2715 161.602 29.5527C161.602 32.8796 162.148 35.819 163.242 38.3711C164.336 40.9232 165.954 43.0765 168.096 44.8311C170.238 46.5628 172.892 47.8844 176.06 48.7959C179.25 49.6846 182.93 50.1289 187.1 50.1289C191.27 50.1289 194.927 49.6846 198.071 48.7959C201.239 47.8844 203.882 46.5628 206.001 44.8311C208.12 43.0765 209.715 40.9232 210.786 38.3711C211.88 35.819 212.427 32.8796 212.427 29.5527ZM274.839 53V21.999C274.839 19.4014 274.486 17.2708 273.779 15.6074C273.096 13.9212 272.104 12.5882 270.806 11.6084C269.53 10.6286 267.969 9.94499 266.123 9.55762C264.277 9.17025 262.204 8.97656 259.902 8.97656C257.236 8.97656 254.616 9.30697 252.041 9.96777C249.489 10.6058 247.074 11.4261 244.795 12.4287C242.516 13.4085 240.42 14.5023 238.506 15.71C236.592 16.9176 234.974 18.0798 233.652 19.1963V53H229.38V6.03711H233.652V14.2744C235.247 13.2718 237.002 12.2236 238.916 11.1299C240.853 10.0133 242.926 8.99935 245.137 8.08789C247.37 7.15365 249.751 6.3903 252.28 5.79785C254.81 5.2054 257.476 4.90918 260.278 4.90918C263.446 4.90918 266.203 5.29655 268.55 6.07129C270.92 6.82324 272.879 7.9056 274.429 9.31836C276.001 10.7083 277.174 12.4059 277.949 14.4111C278.724 16.3936 279.111 18.6152 279.111 21.0762V53H274.839Z" transform="translate(157 68)" fill="#828282"/>
<path d="M3.5 5.33523e-06C5.43305 5.33523e-06 7 1.64303 7 3.6697C7 7.60154 3.5 11 3.5 11C3.5 11 2.64294e-06 7.60154 2.64294e-06 3.6697C-9.38502e-05 1.64313 1.56695 5.33523e-06 3.5 5.33523e-06Z" transform="translate(221 56)" fill="#01C9F9" stroke="#01C9F9" stroke-miterlimit="10" stroke-linecap="round" stroke-linejoin="round"/>
<path d="M2.1 4.40363C3.2598 4.40363 4.2 3.41785 4.2 2.20182C4.2 0.98579 3.2598 0 2.1 0C0.940203 0 0 0.98579 0 2.20182C0 3.41785 0.940203 4.40363 2.1 4.40363Z" transform="translate(222.402 57.1729)" fill="white"/>
<path d="M3.5 5.33523e-06C5.43305 5.33523e-06 7 1.64303 7 3.6697C7 7.60154 3.5 11 3.5 11C3.5 11 2.64294e-06 7.60154 2.64294e-06 3.6697C-9.38502e-05 1.64313 1.56695 5.33523e-06 3.5 5.33523e-06Z" transform="translate(296 56)" fill="#01C9F9" stroke="#01C9F9" stroke-miterlimit="10" stroke-linecap="round" stroke-linejoin="round"/>
<path d="M2.1 4.40363C3.2598 4.40363 4.2 3.41785 4.2 2.20182C4.2 0.98579 3.2598 0 2.1 0C0.940203 0 0 0.98579 0 2.20182C0 3.41785 0.940203 4.40363 2.1 4.40363Z" transform="translate(297 57)" fill="white"/>
<defs>
<linearGradient id="paint0_linear" x2="1" gradientUnits="userSpaceOnUse" gradientTransform="translate(15.5348) scale(15.5348 136.789) rotate(90)">
<stop stop-color="white"/>
<stop offset="1" stop-color="#4DDBFD"/>
</linearGradient>
<linearGradient id="paint1_linear" x2="1" gradientUnits="userSpaceOnUse" gradientTransform="translate(14.9787) scale(14.9787 138.813) rotate(90)">
<stop stop-color="#01C9F9"/>
<stop offset="1" stop-color="#5BDDFC"/>
</linearGradient>
<linearGradient id="paint2_linear" x2="1" gradientUnits="userSpaceOnUse" gradientTransform="matrix(0.094451 105.329 -13.2585 0.0121754 13.9142 -0.0060877)">
<stop stop-color="#00B9E5"/>
<stop offset="1" stop-color="#01C9F9"/>
</linearGradient>
<linearGradient id="paint3_linear" x2="1" gradientUnits="userSpaceOnUse" gradientTransform="translate(16.9545) scale(16.9545 59.277) rotate(90)">
<stop stop-color="#00B0DB"/>
<stop offset="1" stop-color="#01BDEA"/>
</linearGradient>
</defs>
</svg>
