<svg width="275" height="232" viewBox="0 0 275 232" fill="none" xmlns="http://www.w3.org/2000/svg">
<path d="M71.442 44.173H-6.5918e-06L9.083 3.90625e-06H62.37L71.442 44.173Z" transform="translate(99.0859 181.62)" fill="#FFC06E" fill-opacity="0.8"/>
<path d="M62.359 44.173L53.287 3.90625e-06H1.2207e-06L44.158 44.173H62.359Z" transform="translate(110.43 181.724)" fill="url(#paint0_linear)"/>
<path d="M109.701 3.66211e-06H7.56836e-06V5.33799H109.701V3.66211e-06Z" transform="translate(82.2227 225.905)" fill="url(#paint1_linear)"/>
<path d="M6.671 4.88281e-06C2.995 4.88281e-06 9.15527e-07 3.011 9.15527e-07 6.676V175.055C9.15527e-07 178.731 2.995 181.721 6.671 181.721H267.507C271.165 181.721 274.173 178.728 274.173 175.055V6.67701C274.173 3.01101 271.165 0.000996704 267.507 0.000996704L6.671 4.88281e-06Z" fill="url(#paint2_linear)"/>
<path d="M246.451 5.49316e-06H-2.80762e-06V154.035H246.451V5.49316e-06Z" transform="translate(13.8516 13.8604)" fill="white"/>
<path d="M16.323 17.672V14.963H14.974V13.601H13.612V12.242H12.245V10.88H10.893V9.538H9.51801V8.151H8.177V6.799H6.815V5.435H5.45099V4.088H4.08099V2.719H2.72699V1.364H1.35699V2.92969e-06H-2.44141e-07V23.124H2.72699V21.755H4.08099V20.401H5.45099V19.028H6.815V21.755H8.177V24.476H9.51801V25.841H12.245V24.476H13.612V21.755H12.245V19.028H10.893V17.672H16.323Z" transform="translate(203 116)" fill="#34495E"/>
<path d="M27.5391 17.4072C28.4668 17.4072 28.9307 18.5872 28.9307 20.9473C28.9307 21.5332 28.54 22.054 27.7588 22.5098L10.7422 31.7139L27.5635 41.333C28.4912 41.8376 28.9551 42.513 28.9551 43.3594C28.9551 44.2057 28.8086 44.9137 28.5156 45.4834C28.2389 46.0368 27.9053 46.3135 27.5146 46.3135C27.124 46.3135 26.7741 46.224 26.4648 46.0449L6.81152 35.1562C5.68848 34.4889 5.12695 33.4147 5.12695 31.9336C5.12695 31.2012 5.28158 30.5013 5.59082 29.834C5.91634 29.1504 6.32324 28.6621 6.81152 28.3691L26.4648 17.7734C26.9043 17.5293 27.2624 17.4072 27.5391 17.4072ZM49.3652 50.1221C49.0397 50.0407 48.5189 50 47.8027 50H40.4785C38.916 50 37.915 49.7233 37.4756 49.1699C37.2965 48.9583 37.207 48.7142 37.207 48.4375C37.207 47.7539 37.3372 47.2493 37.5977 46.9238C37.9883 47.054 38.4359 47.1191 38.9404 47.1191C39.445 47.1191 39.8193 46.9157 40.0635 46.5088C40.3076 46.1019 40.4215 45.3451 40.4053 44.2383V13.9893C40.4053 12.8662 40.2913 12.1419 40.0635 11.8164C39.7217 11.2956 39.1195 11.0352 38.2568 11.0352C37.9964 11.0352 37.7279 11.0677 37.4512 11.1328C37.1908 11.1816 36.9873 11.1735 36.8408 11.1084C36.7106 11.027 36.6048 10.9212 36.5234 10.791C36.3118 10.4655 36.3281 10.14 36.5723 9.81445C36.8327 9.47266 37.1989 9.11458 37.6709 8.74023C38.1429 8.36589 38.6637 8.04036 39.2334 7.76367C40.4541 7.12891 41.5039 6.81152 42.3828 6.81152C43.278 6.81152 43.9372 6.94173 44.3604 7.20215C44.7998 7.46257 45.1253 7.8125 45.3369 8.25195C45.695 8.9681 45.874 10.1237 45.874 11.7188V44.4824C45.874 45.8333 46.2809 46.6634 47.0947 46.9727C47.3226 47.0703 47.5911 47.1517 47.9004 47.2168C48.2259 47.2819 48.5189 47.3633 48.7793 47.4609C49.0397 47.5423 49.2432 47.64 49.3896 47.7539C49.6338 47.9655 49.7559 48.3073 49.7559 48.7793C49.7559 49.349 49.6257 49.7965 49.3652 50.1221ZM59.6924 20.2393C62.2314 20.2393 63.501 21.0205 63.501 22.583C63.501 24.5524 61.5234 27.2705 57.5684 30.7373C56.0384 32.0882 54.5003 33.2438 52.9541 34.2041C53.9958 35.1644 55.0618 36.4095 56.1523 37.9395L58.7158 41.5527C60.8643 44.6289 62.4837 46.167 63.5742 46.167C64.4694 46.167 65.0553 46.0775 65.332 45.8984C65.625 45.7194 65.8366 45.6217 65.9668 45.6055C66.097 45.5892 66.2679 45.6462 66.4795 45.7764C66.6911 45.9066 66.7969 46.1263 66.7969 46.4355C66.7969 46.7448 66.6667 47.1354 66.4062 47.6074C66.1621 48.0632 65.8122 48.5026 65.3564 48.9258C64.2497 49.9512 63.0534 50.4639 61.7676 50.4639C60.4818 50.4639 59.3994 50.1628 58.5205 49.5605C57.6416 48.9421 56.8197 48.1527 56.0547 47.1924C55.2897 46.2158 54.5654 45.1335 53.8818 43.9453L51.8555 40.4785C50.2116 37.6465 48.8037 35.8073 47.6318 34.9609C46.9482 34.4889 46.7204 34.1878 46.9482 34.0576L47.6562 33.667L51.5869 30.8594C53.2633 29.6061 54.4189 28.6214 55.0537 27.9053C56.2907 26.5218 56.9092 25.3662 56.9092 24.4385C56.9092 23.7874 56.2581 23.4131 54.9561 23.3154C54.7933 23.055 54.7119 22.7783 54.7119 22.4854C54.7119 22.1924 54.8665 21.9076 55.1758 21.6309C55.5013 21.3379 55.9082 21.0938 56.3965 20.8984C57.4382 20.459 58.5368 20.2393 59.6924 20.2393ZM68.9209 36.5234C68.9209 34.5378 69.1162 32.7555 69.5068 31.1768C69.8975 29.598 70.4346 28.2064 71.1182 27.002C71.8018 25.7975 72.6074 24.7721 73.5352 23.9258C74.4629 23.0632 75.4557 22.3633 76.5137 21.8262C78.5807 20.7682 80.8512 20.2393 83.3252 20.2393C86.499 20.2393 89.1927 21.3949 91.4062 23.7061C93.8639 26.2451 95.0928 29.598 95.0928 33.7646C95.0928 39.2334 93.6035 43.4896 90.625 46.5332C88.0371 49.1536 84.9365 50.4639 81.3232 50.4639C77.5472 50.4639 74.5199 49.1374 72.2412 46.4844C70.0277 43.929 68.9209 40.6087 68.9209 36.5234ZM82.7637 46.4844C83.8542 46.4844 84.8307 46.2321 85.6934 45.7275C86.556 45.2067 87.2884 44.4987 87.8906 43.6035C89.0951 41.748 89.6973 39.3392 89.6973 36.377C89.6973 33.1217 89.0625 30.3548 87.793 28.0762C86.3607 25.4557 84.3018 24.1455 81.6162 24.1455C79.4515 24.1455 77.7181 24.9756 76.416 26.6357C75.0326 28.3936 74.3408 30.8512 74.3408 34.0088C74.3408 37.9639 75.2116 41.0889 76.9531 43.3838C78.5156 45.4508 80.4525 46.4844 82.7637 46.4844ZM119.946 46.9482C117.424 49.3083 114.648 50.4883 111.621 50.4883C108.285 50.4883 105.566 49.349 103.467 47.0703C101.188 44.5638 100.049 41.1051 100.049 36.6943C100.049 31.7301 101.628 27.6937 104.785 24.585C107.731 21.6878 111.214 20.2393 115.234 20.2393C116.846 20.2393 118.392 20.5078 119.873 21.0449V13.9893C119.873 12.8499 119.759 12.1257 119.531 11.8164C119.157 11.2956 118.547 11.0352 117.7 11.0352C117.342 11.0352 116.984 11.0758 116.626 11.1572C116.284 11.2223 116.04 11.2223 115.894 11.1572C115.763 11.0758 115.658 10.9701 115.576 10.8398C115.251 10.3027 115.658 9.61914 116.797 8.78906C118.587 7.4707 120.353 6.81152 122.095 6.81152C123.934 6.81152 124.984 7.8125 125.244 9.81445C125.309 10.4167 125.342 11.0514 125.342 11.7188V40.0635C125.342 42.57 125.439 44.1325 125.635 44.751C125.83 45.3695 126.058 45.7764 126.318 45.9717C126.595 46.1507 126.937 46.2402 127.344 46.2402C127.751 46.2402 128.084 46.1751 128.345 46.0449L129.077 45.7275C129.289 45.6787 129.476 45.7764 129.639 46.0205C129.98 46.5251 130.029 46.9808 129.785 47.3877C129.541 47.7946 129.175 48.1852 128.687 48.5596C128.198 48.9339 127.653 49.2594 127.051 49.5361C124.414 50.7243 122.445 50.7487 121.143 49.6094C120.508 49.056 120.109 48.1689 119.946 46.9482ZM119.873 26.001C118.278 24.7803 116.423 24.1699 114.307 24.1699C111.768 24.1699 109.709 25.1058 108.13 26.9775C106.437 28.9795 105.591 31.7057 105.591 35.1562C105.591 40.6413 107.153 44.0267 110.278 45.3125C111.255 45.7031 112.199 45.8984 113.11 45.8984C114.038 45.8984 114.811 45.8252 115.43 45.6787C116.048 45.5322 116.626 45.3369 117.163 45.0928C118.237 44.6045 119.141 44.0104 119.873 43.3105V26.001ZM149.146 5.71289C149.634 5.5013 150.146 5.39551 150.684 5.39551C151.221 5.39551 151.668 5.42806 152.026 5.49316C152.384 5.54199 152.694 5.63151 152.954 5.76172C153.573 6.02214 153.833 6.38835 153.735 6.86035L135.864 54.0283C135.392 54.2074 134.88 54.2969 134.326 54.2969C133.789 54.2969 133.341 54.2643 132.983 54.1992C132.642 54.1504 132.332 54.069 132.056 53.9551C131.47 53.6784 131.217 53.3366 131.299 52.9297L149.146 5.71289ZM160.229 18.0908C159.302 18.0908 158.838 19.2708 158.838 21.6309C158.838 22.2168 159.229 22.7376 160.01 23.1934L177.026 32.3975L160.205 42.0166C159.277 42.5212 158.813 43.1966 158.813 44.043C158.813 44.8893 158.952 45.5973 159.229 46.167C159.521 46.7204 159.863 46.9971 160.254 46.9971C160.645 46.9971 160.994 46.9076 161.304 46.7285L180.957 35.8398C182.08 35.1725 182.642 34.0983 182.642 32.6172C182.642 31.8848 182.479 31.1849 182.153 30.5176C181.844 29.834 181.445 29.3457 180.957 29.0527L161.304 18.457C160.864 18.2129 160.506 18.0908 160.229 18.0908Z" transform="translate(41 58)" fill="#373B3E"/>
<defs>
<linearGradient id="paint0_linear" x2="1" gradientUnits="userSpaceOnUse" gradientTransform="translate(-0.121795 -3.01964) scale(60.7762 43.0518) rotate(-0.229641)">
<stop offset="0.176638" stop-color="#FFC172"/>
<stop offset="0.867976" stop-color="#FF8D01"/>
</linearGradient>
<linearGradient id="paint1_linear" x2="1" gradientUnits="userSpaceOnUse" gradientTransform="translate(-0.21426 -0.364902) scale(106.916 5.20251) rotate(-0.229641)">
<stop offset="0.176638" stop-color="#FFC06E"/>
<stop offset="0.867976" stop-color="#FF8D01"/>
</linearGradient>
<linearGradient id="paint2_linear" x2="1" gradientUnits="userSpaceOnUse" gradientTransform="translate(-0.535494 -12.4223) scale(267.214 177.108) rotate(-0.229641)">
<stop offset="0.176638" stop-color="#FFBF6E"/>
<stop offset="0.867976" stop-color="#FF8D01"/>
</linearGradient>
</defs>
</svg>
