<svg width="445" height="129" viewBox="0 0 445 129" fill="none" xmlns="http://www.w3.org/2000/svg">
<path d="M4.5 29.9V24.5H33.93V29.9L9.72 77.6H33.48V83H3.15V77.6L27.36 29.9H4.5ZM52.8293 83H46.5293V24.5H52.8293V83ZM76.1871 83H69.8871V24.5H83.4771C88.1571 24.5 91.6971 25.61 94.0971 27.83C96.5571 30.05 97.7871 33.14 97.7871 37.1V52.4C97.7871 56.42 96.5871 59.54 94.1871 61.76C91.7871 63.92 88.2171 65 83.4771 65H76.1871V83ZM91.4871 52.4V37.1C91.4871 34.82 90.7971 33.05 89.4171 31.79C88.0371 30.53 86.0571 29.9 83.4771 29.9H76.1871V59.6H83.4771C88.8171 59.6 91.4871 57.2 91.4871 52.4ZM117.584 83H111.284V24.5H124.874C129.554 24.5 133.094 25.61 135.494 27.83C137.954 30.05 139.184 33.14 139.184 37.1V52.4C139.184 56.42 137.984 59.54 135.584 61.76C133.184 63.92 129.614 65 124.874 65H117.584V83ZM132.884 52.4V37.1C132.884 34.82 132.194 33.05 130.814 31.79C129.434 30.53 127.454 29.9 124.874 29.9H117.584V59.6H124.874C130.214 59.6 132.884 57.2 132.884 52.4ZM168.97 83H162.67V66.44C154.51 65.54 150.43 61.4 150.43 54.02V24.5H156.73V54.02C156.73 58.82 159.73 61.22 165.73 61.22C171.73 61.22 174.73 58.82 174.73 54.02V24.5H181.03V54.02C181.03 61.4 177.01 65.54 168.97 66.44V83ZM202.155 83H195.855V24.5H202.155V83ZM226.413 83H220.113V24.5H222.813L225.063 30.35C227.943 25.55 231.933 23.15 237.033 23.15C245.853 23.15 250.263 27.35 250.263 35.75V83H243.963V35.75C243.963 33.47 243.453 31.7 242.433 30.44C241.473 29.18 239.673 28.55 237.033 28.55C234.393 28.55 231.963 29.57 229.743 31.61C227.523 33.65 226.413 35.63 226.413 37.55V83ZM279.368 58.7V53.3H295.748V71.75C295.748 75.77 294.518 78.89 292.058 81.11C289.598 83.27 285.908 84.35 280.988 84.35C276.068 84.35 272.348 83.27 269.828 81.11C267.308 78.89 266.048 75.77 266.048 71.75V35.75C266.048 31.73 267.278 28.64 269.738 26.48C272.198 24.26 275.888 23.15 280.808 23.15C285.728 23.15 289.448 24.26 291.968 26.48C294.488 28.64 295.748 31.73 295.748 35.75V40.7H289.448V35.75C289.448 30.95 286.598 28.55 280.898 28.55C275.198 28.55 272.348 30.95 272.348 35.75V71.75C272.348 76.55 275.198 78.95 280.898 78.95C286.598 78.95 289.448 76.55 289.448 71.75V58.7H279.368Z" transform="translate(136 16.9995)" fill="#605F5F"/>
<circle cx="4" cy="4" r="4" transform="translate(181.922 22.9995)" fill="#38AFAD"/>
<circle cx="4" cy="4" r="4" transform="translate(331.062 22.9995)" fill="#38AFAD"/>
<path fill-rule="evenodd" clip-rule="evenodd" d="M86.4358 71.3997C78.3179 84.8944 63.5254 94.2066 46.2808 94.879C25.9337 95.6724 8.00144 84.2111 0 67.2487L37.6657 30.5612L36.1659 35.876L50.2337 20.2533L21.6128 18.7501L31.323 21.8625L1.84349 24.1639C9.87419 10.3212 24.8593 0.721116 42.3784 0.0388048C61.3949 -0.703227 78.3047 9.26087 86.9646 24.4155L46.3114 66.0522L47 61.3805L35.0396 76.6694L63.2277 74.6701L56.8856 73.6785L86.4358 71.3997Z" transform="matrix(0.912122 -0.39389 0.43378 0.908534 3.38672 38.7329)" fill="#128586"/>
<g filter="url(#filter0_d)">
<path fill-rule="evenodd" clip-rule="evenodd" d="M85.355 71.3961C77.3424 84.8946 62.7337 94.2076 45.7033 94.8798C25.6085 95.674 7.89694 84.2079 0 67.2419L37.1881 30.5591L35.7061 35.8725L49.598 20.2504L21.3368 18.7472L30.9233 21.8586L1.82505 24.1598C9.75252 10.3181 24.5517 0.721747 41.8485 0.0387031C60.6245 -0.702199 77.3219 9.25845 85.8738 24.406L45.7361 66.0394L46.4128 61.3836L34.6059 76.674L62.4389 74.6739L56.1503 73.6781L85.355 71.3961Z" transform="matrix(0.912122 -0.39389 0.43378 0.908534 4.67969 38.0376)" fill="#C4C4C4"/>
<path fill-rule="evenodd" clip-rule="evenodd" d="M85.355 71.3961C77.3424 84.8946 62.7337 94.2076 45.7033 94.8798C25.6085 95.674 7.89694 84.2079 0 67.2419L37.1881 30.5591L35.7061 35.8725L49.598 20.2504L21.3368 18.7472L30.9233 21.8586L1.82505 24.1598C9.75252 10.3181 24.5517 0.721747 41.8485 0.0387031C60.6245 -0.702199 77.3219 9.25845 85.8738 24.406L45.7361 66.0394L46.4128 61.3836L34.6059 76.674L62.4389 74.6739L56.1503 73.6781L85.355 71.3961Z" transform="matrix(0.912122 -0.39389 0.43378 0.908534 4.67969 38.0376)" fill="url(#paint0_linear)"/>
</g>
<defs>
<filter id="filter0_d" x="16.8242" y="16.7983" width="104.68" height="102.229" filterUnits="userSpaceOnUse" color-interpolation-filters="sRGB">
<feFlood flood-opacity="0" result="BackgroundImageFix"/>
<feColorMatrix in="SourceAlpha" type="matrix" values="0 0 0 0 0 0 0 0 0 0 0 0 0 0 0 0 0 0 255 0"/>
<feOffset dx="4" dy="4"/>
<feGaussianBlur stdDeviation="2"/>
<feColorMatrix type="matrix" values="0 0 0 0 0.741176 0 0 0 0 0.741176 0 0 0 0 0.741176 0 0 0 1 0"/>
<feBlend mode="normal" in2="BackgroundImageFix" result="effect1_dropShadow"/>
<feBlend mode="normal" in="SourceGraphic" in2="effect1_dropShadow" result="shape"/>
</filter>
<linearGradient id="paint0_linear" x2="1" gradientUnits="userSpaceOnUse" gradientTransform="matrix(85.4752 75.4107 -68.2249 75.1364 40.0995 -30.8281)">
<stop stop-color="#38AEAC"/>
<stop offset="0.358039" stop-color="#38AEAC"/>
<stop offset="0.456574" stop-color="#42BABD"/>
<stop offset="0.546445" stop-color="#38AEAC"/>
<stop offset="1" stop-color="#38AEAC"/>
</linearGradient>
</defs>
</svg>
