<svg width="37" height="37" viewBox="0 0 37 37" fill="none" xmlns="http://www.w3.org/2000/svg">
<path d="M10.5203 32.1569H7.62016C4.99721 32.1569 2.87075 30.0516 2.87075 27.4545V7.36234C2.87075 4.76519 4.99721 2.65995 7.62016 2.65995H27.727C30.3499 2.65995 32.4764 4.76548 32.4764 7.36234V27.4545C32.4764 30.0519 30.3499 32.1569 27.727 32.1569H19.8157L19.768 20.4194H24.465V15.7056H19.7683V13.4119C19.7683 12.4228 20.5781 11.6207 21.5773 11.6207H24.4653V6.09004H19.1337C15.9087 6.09004 13.2944 8.6787 13.2944 11.8719V15.7056H10.8825V20.4194H13.2944V35H7.09966C3.17873 35 3.40121e-06 31.8526 3.40121e-06 27.9702V7.02982C3.40121e-06 3.14716 3.17873 -3.72603e-06 7.09966 -3.72603e-06H28.2484C32.1693 -3.72603e-06 35.348 3.14746 35.348 7.02982V27.9702C35.348 31.8529 32.1693 35 28.2484 35H16.7494" transform="translate(1 1)" stroke="#FF981A" stroke-miterlimit="10" stroke-linecap="round" stroke-linejoin="round"/>
</svg>
