<svg width="37" height="37" viewBox="0 0 37 37" fill="none" xmlns="http://www.w3.org/2000/svg">
<path d="M7.09966 35C3.17842 35 -1.09997e-05 31.8526 -1.09997e-05 27.9702V7.02983C-1.09997e-05 3.14717 3.17872 3.15279e-06 7.09966 3.15279e-06H28.2481C32.1693 3.15279e-06 35.3477 3.14746 35.3477 7.02983V27.9702C35.3477 31.8529 32.169 35 28.2481 35H7.09966Z" transform="translate(1 1)" stroke="#FF981A" stroke-miterlimit="10" stroke-linecap="round" stroke-linejoin="round"/>
<path d="M4.7494 29.497C2.12615 29.497 -5.7893e-07 27.3917 -5.7893e-07 24.7945V4.70238C-5.7893e-07 2.10523 2.12644 -7.16543e-06 4.7494 -7.16543e-06H24.8562C27.4795 -7.16543e-06 29.6054 2.10553 29.6054 4.70238V24.7945C29.6054 27.392 27.4792 29.497 24.8562 29.497H4.7494Z" transform="translate(3.87109 3.66016)" stroke="#FF981A" stroke-miterlimit="10" stroke-linecap="round" stroke-linejoin="round"/>
<path d="M8.93532 17.6949C13.8702 17.6949 17.8707 13.7337 17.8707 8.84743C17.8707 3.96112 13.8702 1.60506e-05 8.93532 1.60506e-05C4.00047 1.60506e-05 1.2447e-05 3.96112 1.2447e-05 8.84743C1.2447e-05 13.7337 4.00047 17.6949 8.93532 17.6949Z" transform="translate(9.73828 9.56152)" stroke="#FF981A" stroke-miterlimit="10" stroke-linecap="round" stroke-linejoin="round"/>
<path d="M5.59683 11.0836C8.68789 11.0836 11.1937 8.60243 11.1937 5.54178C11.1937 2.48113 8.68789 0 5.59683 0C2.50578 0 -5.49983e-06 2.48113 -5.49983e-06 5.54178C-5.49983e-06 8.60243 2.50578 11.0836 5.59683 11.0836Z" transform="translate(13.0781 12.8672)" stroke="#FF981A" stroke-miterlimit="10" stroke-linecap="round" stroke-linejoin="round"/>
<path d="M5.49075 1.27432C7.16607 2.93316 6.96658 5.82058 6.238 6.5417C5.50942 7.26282 4.52799 5.545 2.85267 3.88616C1.17735 2.22732 -0.557543 1.25555 0.170742 0.534132C0.899323 -0.186694 3.81542 -0.384519 5.49075 1.27432Z" transform="translate(23.8984 6.28809)" stroke="#FF981A" stroke-miterlimit="10" stroke-linecap="round" stroke-linejoin="round"/>
</svg>
