<svg width="37" height="37" viewBox="0 0 37 37" fill="none" xmlns="http://www.w3.org/2000/svg">
<path d="M17.6739 35C27.4349 35 35.3477 27.165 35.3477 17.5C35.3477 7.83501 27.4349 3.15279e-06 17.6739 3.15279e-06C7.91285 3.15279e-06 0 7.83501 0 17.5C0 27.165 7.91285 35 17.6739 35Z" transform="translate(1 1)" stroke="#FF981A" stroke-miterlimit="10" stroke-linecap="round" stroke-linejoin="round"/>
<path d="M15.1864 30.074C23.5736 30.074 30.3727 23.3417 30.3727 15.037C30.3727 6.73228 23.5736 -6.30558e-06 15.1864 -6.30558e-06C6.79916 -6.30558e-06 -1.07102e-05 6.73228 -1.07102e-05 15.037C-1.07102e-05 23.3417 6.79916 30.074 15.1864 30.074Z" transform="translate(3.48828 3.46289)" stroke="#FF981A" stroke-miterlimit="10" stroke-linecap="round" stroke-linejoin="round"/>
<path d="M3.71492 -4.87249e-06H2.02625e-06V13.2332H3.71492V-4.87249e-06Z" transform="translate(11.1641 13.3701)" stroke="#FF981A" stroke-miterlimit="10" stroke-linecap="round" stroke-linejoin="round"/>
<path d="M3.71523 1.55653V0.0975773H1.56311e-05V13.3307H3.71523V4.94026C4.06055 2.61812 7.39964 2.87906 7.39964 5.48383V13.3307H11.1149V5.48383C11.1146 -1.9739 4.43343 -0.237611 3.71523 1.55653Z" transform="translate(17.2344 13.2725)" stroke="#FF981A" stroke-miterlimit="10" stroke-linecap="round" stroke-linejoin="round"/>
<path d="M1.85761 3.67869C2.88355 3.67869 3.71522 2.85516 3.71522 1.83932C3.71522 0.823485 2.88355 -6.01896e-06 1.85761 -6.01896e-06C0.831682 -6.01896e-06 8.97341e-06 0.823485 8.97341e-06 1.83932C8.97341e-06 2.85516 0.831682 3.67869 1.85761 3.67869Z" transform="translate(11.1641 7.28613)" stroke="#FF981A" stroke-miterlimit="10" stroke-linecap="round" stroke-linejoin="round"/>
</svg>
