<svg width="37" height="37" viewBox="0 0 37 37" fill="none" xmlns="http://www.w3.org/2000/svg">
<path d="M17.6739 35C27.4349 35 35.3477 27.165 35.3477 17.5C35.3477 7.83501 27.4349 3.15279e-06 17.6739 3.15279e-06C7.91286 3.15279e-06 4.19724e-06 7.83501 4.19724e-06 17.5C4.19724e-06 27.165 7.91286 35 17.6739 35Z" transform="translate(1 1)" stroke="#FF981A" stroke-miterlimit="10" stroke-linecap="round" stroke-linejoin="round"/>
<path d="M15.1864 30.074C23.5736 30.074 30.3728 23.3417 30.3728 15.037C30.3728 6.73228 23.5736 -6.30558e-06 15.1864 -6.30558e-06C6.79917 -6.30558e-06 -5.3551e-06 6.73228 -5.3551e-06 15.037C-5.3551e-06 23.3417 6.79917 30.074 15.1864 30.074Z" transform="translate(3.48828 3.46289)" stroke="#FF981A" stroke-miterlimit="10" stroke-linecap="round" stroke-linejoin="round"/>
<path d="M11.697 6.05012C7.38866 5.93419 3.59785 3.76585 1.28584 0.496592C1.28584 0.496592 -0.455579 3.67837 2.20205 6.28139L0.687679 5.85702C0.687679 5.85702 -0.255506 8.94107 3.63105 10.8086L1.68776 10.9219C1.68776 10.9219 4.21469 13.7811 8.06004 14.1192C6.23118 15.9586 2.37337 16.4393 1.15786e-06 16.0742C2.12468 17.5355 4.70554 18.3917 7.48855 18.3917C14.748 18.3917 20.6332 12.5646 20.6332 5.37625C20.6332 5.0446 20.6208 4.7162 20.5962 4.391L23.0051 2.15073L20.5476 2.65994L22.7194 0.339884C22.7194 0.339884 21.304 1.02313 19.225 1.31428C18.3986 0.501878 17.2607 -8.3119e-06 16.0042 -8.3119e-06C13.479 -8.3119e-06 11.432 2.02689 11.432 4.52718C11.432 5.06164 11.5254 5.57407 11.697 6.05012Z" transform="translate(7.8125 10.6738)" stroke="#FF981A" stroke-miterlimit="10" stroke-linecap="round" stroke-linejoin="round"/>
</svg>
