<svg width="73" height="64" viewBox="0 0 73 64" fill="none" xmlns="http://www.w3.org/2000/svg">
<path d="M13.5 0.690528L0.5 8.69053C0.988513 7.43647 0.877678 6.77978 0 5.69053L10.5 0.190528C11.837 -0.176968 12.4783 -0.0141746 13.5 0.690528Z" transform="translate(51 40.8066)" fill="#E88205" stroke="#E88205" stroke-width="0.5"/>
<path d="M0.269099 12L4.77344 1.5C5.27344 0 6.43322 0.0970952 7.7691 0H26.7691C28.2356 0.1946 28.8938 0.629906 29.7691 2L34.2691 12C35.7734 17 30.7734 21 25.2691 17.5C22.1449 19.7436 20.3933 19.6426 17.2691 17.5C14.1985 19.3174 12.457 19.6606 9.2691 17.5C3.77338 21.5 -1.22952 17 0.269099 12Z" transform="translate(19.2266 1)" fill="#E88205" stroke="#E88205" stroke-width="0.5"/>
<path d="M33.0057 17.5005L1.99796 17.5C-1.01172 16 -0.511611 11.5 2.76157 11.3068H3.49796V0.5C6.66681 1.34448 7.59231 1.22594 9.50577 0V11H26.5058V0C28.7456 0.902134 30.0647 1.01686 32.5058 0.677734V11.5005H33.0057C35.998 11.5 37.498 16.5 33.0057 17.5005Z" transform="translate(18.5117 21.5)" fill="#E88205" stroke="#E88205" stroke-width="0.5"/>
<path d="M1 18.0005L0 3.5C0 1.50047 2 0 3.5 0L10 0.000471998C11.5706 0.0816426 12.1811 0.468684 13 1.50047L16.5 0.500472C19.4289 0.161546 21.0711 0.156595 24 0.500472L29.5 2.00047L38 4.00047L46.5 4.50047C49.5 5.00047 49.5 9.50047 46.5 10.0005L34 10.5005C33 10.5005 33 12.0005 34 12.0005H47.5L66.5 1.00047C70.5 0.000472069 72.5 4.00047 69.5 6.50047C61.8848 11.7726 58.1152 14.7284 50.5 20.0005C47.3667 21.6175 44.8316 21.7716 41 21.5005L16 20.0005C14.9034 19.8141 14.3375 19.6266 13.5 19.0005C13.1359 20.2181 12.4724 20.6524 10.5 21.0005L4 21.5005C1.9683 20.5178 1.26308 19.7731 1 18.0005Z" transform="translate(1 41.5)" fill="#E88205" stroke="#E88205" stroke-width="0.5"/>
<path d="M12.5 0.597656L3.5 5.09795C3.5 5.09795 1.5 4.09795 0 4.09795L10 0.0975648C10.8913 -0.156157 11.8188 0.111125 12.5 0.597656Z" transform="translate(46 39.9023)" fill="#E88205" stroke="#E88205" stroke-width="0.5"/>
<circle cx="2.5" cy="2.5" r="2.5" transform="translate(5.5 55)" fill="#232E3B"/>
</svg>
