<svg width="450" height="450" viewBox="0 0 450 450" fill="none" xmlns="http://www.w3.org/2000/svg">
<rect x="0.5" y="0.5" width="449" height="449" stroke="#E88205"/>
<path d="M52.7103 2.6906L1.95223 33.8621C3.85961 28.9758 3.42686 26.417 0 22.1728L40.9969 0.742382C46.217 -0.689544 48.7209 -0.0552307 52.7103 2.6906Z" transform="translate(282.223 259.104)" fill="#E88205" stroke="#E88205" stroke-width="0.5"/>
<path d="M1.05069 46.7573L18.6377 5.84467C20.5899 0 25.1183 0.378326 30.3342 0H104.519C110.245 0.75825 112.815 2.45439 116.232 7.79289L133.802 46.7573C139.676 66.2395 120.154 81.8253 98.6623 68.1878C86.464 76.93 79.6249 76.5364 67.4266 68.1878C55.4373 75.2691 48.6377 76.6066 36.1909 68.1878C14.733 83.7735 -4.8006 66.2395 1.05069 46.7573Z" transform="translate(158.168 104)" fill="#E88205" stroke="#E88205" stroke-width="0.5"/>
<path d="M128.87 68.1896L7.80097 68.1878C-3.95022 62.3431 -1.99757 44.8091 10.7825 44.0565H13.6577V1.94822C26.0303 5.23871 29.6439 4.77682 37.1149 0V42.8609H103.491V0C112.236 3.51511 117.387 3.96214 126.918 2.64075V44.811H128.87C140.553 44.8091 146.409 64.2913 128.87 68.1896Z" transform="translate(155.375 183.877)" fill="#E88205" stroke="#E88205" stroke-width="0.5"/>
<path d="M3.90446 70.1378L0 13.6376C0 5.8465 7.80893 0 13.6656 0L39.0446 0.00183911C45.177 0.318116 47.5606 1.8262 50.758 5.8465L64.4237 1.95006C75.8596 0.629457 82.2712 0.610165 93.7071 1.95006L115.182 7.79472L148.37 15.5876L181.558 17.5358C193.271 19.4841 193.271 37.0181 181.558 38.9663L132.752 40.9145C128.847 40.9145 128.847 46.7592 132.752 46.7592H185.462L259.647 3.89828C275.265 0.00183939 283.074 15.5876 271.36 25.3287C241.627 45.8711 226.909 57.3883 197.175 77.9307C184.941 84.2314 175.043 84.8319 160.083 83.7754L62.4714 77.9307C58.1899 77.2045 55.9804 76.4739 52.7103 74.0343C51.2888 78.7787 48.6979 80.4708 40.9969 81.8271L15.6179 83.7754C7.68514 79.9465 4.93164 77.0447 3.90446 70.1378Z" transform="translate(87 261.806)" fill="#E88205" stroke="#E88205" stroke-width="0.5"/>
<path d="M48.8058 2.32873L13.6656 19.8639C13.6656 19.8639 5.8567 15.9674 0 15.9674L39.0446 0.380156C42.5248 -0.608456 46.1462 0.432991 48.8058 2.32873Z" transform="translate(262.703 255.581)" fill="#E88205" stroke="#E88205" stroke-width="0.5"/>
<ellipse cx="9.76116" cy="9.74111" rx="9.76116" ry="9.74111" transform="translate(104.57 314.408)" fill="#232E3B"/>
</svg>
