<svg width="64" height="80" viewBox="0 0 64 80" fill="none" xmlns="http://www.w3.org/2000/svg">
<path d="M56.0442 68.3239L28.5443 78.3239L24.0443 62.8239C23.6681 61.4769 23.3112 60.8593 21.5443 60.8239C18.3218 61.2411 16.6384 61.2997 14.0442 60.8239C10.8494 60.188 9.61958 58.916 8.54425 54.8239L8.04425 44.8239L2.04425 44.3239C0.544107 44.0269 -0.194874 43.792 0.0442494 42.3239C1.94925 36.9014 3.58616 34.1717 6.54425 29.3239C5.79121 26.0073 5.54297 25.3242 6.04425 20.8239C7.54297 14.8242 8.22883 13.763 11.0442 10.3239C21.043 -0.675834 35.543 -2.67597 47.5442 3.32394C66.543 13.3242 66.543 31.3242 53.0442 42.8239C49.5584 46.5504 49.8352 49.8946 52.0442 56.8239L56.0442 68.3239Z" transform="translate(1 1)" fill="#E88205" stroke="#E88205" stroke-width="0.5"/>
<path d="M3.48413 11.3137C3.98437 5.81334 7.48438 3.31369 12.9841 3.31369C16.4844 -0.687258 22.9844 -0.685597 26.4841 1.31369C32.4844 -1.1856 38.4844 2.8144 39.4841 6.31369C46.4844 9.31445 46.9844 16.8145 43.9841 23.3137C43.5153 28.3851 42.3772 30.4102 37.9841 31.8137C32.5963 36.4949 29.4215 36.4944 23.4841 31.8137C18.4089 32.6463 14.9845 31.3133 13.4841 27.3137C3.4839 30.8133 -5.0158 19.8133 3.48413 11.3137Z" transform="translate(10.9844 6.00586)" fill="#19232D" stroke="#E88205" stroke-width="0.5"/>
<rect width="7" height="20" transform="translate(31.9688 12.3203)" fill="white"/>
<rect width="7" height="20" transform="translate(24.9688 25.3203) rotate(-90)" fill="white"/>
</svg>
