<svg width="450" height="450" viewBox="0 0 450 450" fill="none" xmlns="http://www.w3.org/2000/svg">
<path d="M203.33 247.74L103.559 284L87.2331 227.797C85.8683 222.913 84.5737 220.674 78.1631 220.546C66.4719 222.058 60.3645 222.271 50.9529 220.546C39.3619 218.24 34.9001 213.628 30.9988 198.79L29.1847 162.53L7.41659 160.717C1.97403 159.64 -0.707006 158.788 0.160538 153.465C7.07192 133.803 13.0107 123.905 23.7427 106.328C21.0107 94.3017 20.11 91.8248 21.9287 75.5069C27.3661 53.7521 29.8544 49.9043 40.0688 37.4342C76.3444 -2.45055 128.951 -9.70297 172.492 12.0525C241.42 48.3132 241.42 113.581 192.446 155.278C179.799 168.79 180.803 180.916 188.818 206.042L203.33 247.74Z" transform="translate(112 83)" fill="#E88205" stroke="#E88205"/>
<path d="M12.6405 41.0231C14.4554 21.079 27.1535 12.0153 47.1067 12.0153C59.8057 -2.49197 83.3879 -2.48595 96.0851 4.7634C117.854 -4.29893 139.622 10.2049 143.249 22.8932C168.646 33.7739 170.46 60.9686 159.576 84.5347C157.875 102.923 153.745 110.266 137.807 115.355C118.26 132.329 106.742 132.327 85.201 115.355C66.7879 118.374 54.364 113.541 48.9207 99.0386C12.6397 111.728 -18.1974 71.8425 12.6405 41.0231Z" transform="translate(148.223 101.151)" fill="#19232D" stroke="#E88205"/>
<rect width="25.3962" height="72.5193" transform="translate(224.355 124.047)" fill="#E88205"/>
<rect width="25.3818" height="72.5605" transform="translate(198.961 171.185) rotate(-90)" fill="#E88205"/>
<rect x="0.5" y="0.5" width="449" height="449" stroke="#E88205"/>
</svg>
