<svg width="80" height="63" viewBox="0 0 80 63" fill="none" xmlns="http://www.w3.org/2000/svg">
<path d="M1.50391 1.5C1.64198 0.809309 1.19836 0.0823208 0.502389 0C0.835221 0.59877 0.878667 0.928891 0.502389 1.5C0.295058 1.74723 -0.031098 2.06467 0.00238923 2.5C0.0447475 3.05066 0.549724 3.33185 1.00239 3.5C1.00239 3.5 0.41919 2.88122 0.503906 2.5C0.598622 2.07378 1.39564 2.04157 1.50391 1.5Z" transform="translate(64.4961 7.5)" fill="white" stroke="white" stroke-width="0.1"/>
<path d="M2.00019 3C2.62322 1.75394 1.56763 0.164642 0.657307 0C1.09265 1.19754 1.49607 1.85778 1.00391 3C0.732719 3.49446 -0.0420138 4.12933 0.00178699 5C0.0571911 6.10132 0.71922 6.66369 1.3113 7C1.3113 7 0.548483 5.76245 0.659291 5C0.783179 4.14756 1.50019 4 2.00019 3Z" transform="translate(68.9961 3)" fill="white" stroke="white" stroke-width="0.1"/>
<rect width="21" height="3" rx="1.5" transform="translate(0 35)" fill="white"/>
<circle cx="1.5" cy="1.5" r="1.5" transform="translate(67 10)" fill="white"/>
<path d="M19 9.5C14.5 9.5 14.7467 9.5 9.5 9.5C4.25329 9.5 9 9.5 0 9.5C0 4.25329 4.25329 0 9.5 0C14.7467 0 19 4.25329 19 9.5Z" transform="translate(59 11.8867) rotate(-2.67248)" fill="white"/>
<rect width="21.7063" height="2" rx="1" transform="translate(58 20.9609) rotate(-2.67828)" fill="white"/>
<rect width="21" height="3" rx="1.5" transform="translate(3 29)" fill="white"/>
<rect width="21" height="3" rx="1.5" transform="translate(8 24)" fill="white"/>
<circle cx="5.5" cy="5.5" r="5.5" transform="translate(49)" fill="white"/>
<path d="M15.4116 32.5743L3.37687 33.5345C-1.12458 34.0335 -1.12602 38.0335 3.37493 38.5345L13.415 37.5743C16.2608 37.2977 17.3969 37.3106 18.915 36.0743L25.9135 26.5743L36.9135 35.0754L31.4135 49.5743C30.4126 54.0733 34.4126 54.5733 35.9135 51.0743L41.9135 34.5743C42.5376 32.7779 42.4407 32.788 40.9135 31.0743L33.4135 25.0743L40.4145 13.0762L43.375 18.0762C44.375 19.946 44.875 19.5762 46.875 19.5762H58.875C62.8781 18.5752 63.3781 15.0762 57.875 15.0762L47.4145 15.5761L40.4145 5.07608C39.375 3.57608 38.875 3.07608 36.375 2.57608L27.375 0.576084C24.8263 -0.334438 24.1452 -0.163514 22.375 1.07385C22.375 1.07385 16.9297 4.57617 13.375 7.57617C9.82032 10.5762 12.3719 13.0772 15.875 11.0762C19.3781 9.07516 25.375 4.57434 25.375 4.57434L33.875 7.07617L15.4116 32.5743Z" transform="translate(8.625 8.92383)" fill="white" stroke="white"/>
</svg>
