<svg width="450" height="450" viewBox="0 0 450 450" fill="none" xmlns="http://www.w3.org/2000/svg">
<rect x="0.5" y="0.5" width="449" height="449" stroke="#E88205"/>
<path d="M6.4661 6.45324C7.05974 3.48178 5.15241 0.354157 2.16004 0C3.59106 2.576 3.77786 3.99624 2.16004 6.45324C1.26861 7.51686 -0.133707 8.88253 0.0102726 10.7554C0.192394 13.1244 2.36356 14.3341 4.30981 15.0576C4.30981 15.0576 1.80232 12.3955 2.16656 10.7554C2.5738 8.92172 6.00063 8.78316 6.4661 6.45324Z" transform="translate(331.305 123.266)" fill="#E88205" stroke="#E88205" stroke-width="0.1"/>
<path d="M8.59988 12.9065C11.2786 7.54573 6.74009 0.708315 2.82612 0C4.69788 5.15201 6.43242 7.99248 4.31633 12.9065C3.15035 15.0337 -0.18064 17.7651 0.00768324 21.5108C0.245895 26.2488 3.09231 28.6683 5.63799 30.1151C5.63799 30.1151 2.35822 24.791 2.83465 21.5108C3.36731 17.8434 6.45011 17.2086 8.59988 12.9065Z" transform="translate(350.652 103.906)" fill="#E88205" stroke="#E88205" stroke-width="0.1"/>
<rect width="90.2903" height="12.9065" rx="6.45324" transform="translate(54 241.576)" fill="#E88205"/>
<ellipse cx="6.44931" cy="6.45324" rx="6.44931" ry="6.45324" transform="translate(342.07 134.021)" fill="#E88205"/>
<path d="M81.6913 40.8705C62.3434 40.8705 63.4041 40.8705 40.8457 40.8705C18.2872 40.8705 38.6959 40.8705 0 40.8705C0 18.2983 18.2872 0 40.8457 0C63.4041 0 81.6913 18.2983 81.6913 40.8705Z" transform="translate(307.672 142.139) rotate(-2.67086)" fill="#E88205"/>
<rect width="93.3271" height="8.60431" rx="4.30215" transform="translate(303.375 181.177) rotate(-2.67666)" fill="#E88205"/>
<rect width="90.2903" height="12.9065" rx="6.45324" transform="translate(66.8984 215.763)" fill="#E88205"/>
<rect width="90.2903" height="12.9065" rx="6.45324" transform="translate(88.3945 194.252)" fill="#E88205"/>
<ellipse cx="23.6475" cy="23.6619" rx="23.6475" ry="23.6619" transform="translate(264.676 91)" fill="#E88205"/>
<path d="M66.2629 140.14L14.519 144.271C-4.83516 146.417 -4.84137 163.626 14.5106 165.781L57.6782 161.651C69.9139 160.461 74.7988 160.516 81.3257 155.198L111.416 114.327L158.711 150.9L135.064 213.277C130.76 232.632 147.958 234.783 154.412 219.73L180.209 148.744C182.892 141.016 182.475 141.059 175.909 133.687L143.663 107.874L173.763 56.2558L186.492 77.7666C190.792 85.8108 192.942 84.2198 201.541 84.2198H253.135C270.346 79.9133 272.496 64.8601 248.836 64.8601L203.86 67.0108L173.763 21.8381C169.294 15.3849 167.144 13.2338 156.396 11.0827L117.7 2.4784C106.742 -1.43881 103.813 -0.703461 96.2021 4.61986C96.2021 4.61986 72.7898 19.6874 57.5063 32.5939C42.2228 45.5004 53.1936 56.2601 68.2551 47.6515C83.3167 39.0428 109.101 19.6795 109.101 19.6795L145.647 30.4428L66.2629 140.14Z" transform="translate(91.082 129.392)" fill="#E88205" stroke="#E88205"/>
</svg>
