<svg width="450" height="450" viewBox="0 0 450 450" fill="none" xmlns="http://www.w3.org/2000/svg">
<rect x="0.5" y="0.5" width="449" height="449" stroke="#E88205"/>
<path d="M70.6823 176.213H1.93094C1.93094 176.213 -2.41368 150.397 1.93094 134.838C6.40195 118.826 14.1899 111.832 24.2751 98.6347C37.5571 81.2543 63.8072 58.9836 63.8072 58.9836C80.995 46.9196 94.7479 62.4366 86.154 76.2245L67.2474 95.1883C56.9347 105.532 65.5259 114.156 70.6823 107.256L99.9043 77.9487L98.1855 22.7816C98.1855 -3.07522 117.092 -8.25876 123.967 14.1608C123.967 14.1608 129.121 67.6019 129.121 81.3951C129.121 95.1883 124.44 101.268 118.808 110.702C113.177 120.137 70.6823 158.973 70.6823 158.973V176.213Z" transform="translate(233.879 155.573)" fill="#E88205" stroke="#E88205" stroke-width="0.1"/>
<path d="M70.6823 176.213H1.93094C1.93094 176.213 -2.41368 150.397 1.93094 134.838C6.40195 118.826 14.1899 111.832 24.2751 98.6347C37.5571 81.2543 63.8072 58.9836 63.8072 58.9836C80.995 46.9196 94.7479 62.4366 86.154 76.2245L67.2474 95.1883C56.9347 105.532 65.5259 114.156 70.6823 107.256L99.9043 77.9487L98.1855 22.7816C98.1855 -3.07522 117.092 -8.25876 123.967 14.1608C123.967 14.1608 129.121 67.6019 129.121 81.3951C129.121 95.1883 124.44 101.268 118.808 110.702C113.177 120.137 70.6823 158.973 70.6823 158.973V176.213Z" transform="translate(217.121 155.943) scale(-1 1)" fill="#E88205" stroke="#E88205" stroke-width="0.1"/>
<path fill-rule="evenodd" clip-rule="evenodd" d="M80.2148 15.9736C97.457 -3.24902 127.914 -4.57812 145.352 15.5586C152.574 23.9023 156.305 31.9336 156.805 40.8721C157.305 49.8271 154.562 59.7588 148.715 71.9053C145.816 77.9248 139.988 85.3428 132.836 93.1064C125.695 100.861 117.266 108.926 109.195 116.235C101.125 123.544 93.4219 130.093 87.7383 134.814C84.8945 137.175 82.5547 139.079 80.9297 140.393L79.5469 141.502L78.0859 140.35C76.4023 139.013 73.9805 137.076 71.0391 134.675C65.1523 129.872 57.1836 123.216 48.8516 115.8C40.5156 108.383 31.8203 100.21 24.4805 92.375C17.1328 84.5303 11.1719 77.0596 8.27734 71.043C2.43359 58.9082 0.222656 49.2041 1.24609 40.4766C2.26562 31.7539 6.51953 23.9297 13.7578 15.5693C31.1914 -4.56348 61.6406 -3.23828 78.8867 15.9736C78.6953 16.1973 78.5 16.4229 78.3125 16.6504L79.0781 17.2891C79.2344 17.1016 79.3906 16.915 79.5508 16.7305C79.7109 16.9189 79.8711 17.1084 80.0312 17.2998L80.7969 16.6611C80.6055 16.4297 80.4102 16.2002 80.2148 15.9736ZM79.5508 15.2207C97.1719 -4.32812 128.266 -5.69922 146.105 14.9043C153.434 23.3662 157.285 31.6006 157.801 40.8164C158.316 50.0156 155.496 60.127 149.617 72.3389C146.648 78.5 140.734 86.0088 133.574 93.7842C126.402 101.569 117.949 109.656 109.867 116.977C101.785 124.298 94.0703 130.855 88.375 135.584C85.5273 137.948 83.1875 139.854 81.5547 141.171L80.3516 142.136L80.5469 142.287L80.6758 142.389L80.7188 142.422L80.4141 142.817C80.1094 143.213 80.1055 143.212 80.0977 143.204L80.0625 143.178L79.9336 143.075L79.5508 142.778L79.1758 143.078L79.0469 143.179L79.0156 143.204C79.0039 143.213 79.0039 143.213 78.6953 142.82L78.3867 142.427L78.4297 142.395L78.5547 142.295L78.7461 142.144L77.4648 141.134C75.7773 139.794 73.3516 137.854 70.4062 135.449C64.5117 130.641 56.5352 123.975 48.1875 116.547C39.8398 109.119 31.1211 100.925 23.75 93.0586C16.3906 85.2031 10.3438 77.6396 7.375 71.4766C1.48828 59.2529 -0.800781 49.3496 0.25 40.3604C1.30469 31.3652 5.69141 23.3594 13.0039 14.915C30.8398 -5.68457 61.9297 -4.31738 79.5508 15.2207Z" transform="translate(147.656 102.001)" fill="#E88205" stroke="#E88205" stroke-width="5"/>
</svg>
