<svg width="82" height="68" viewBox="0 0 82 68" fill="none" xmlns="http://www.w3.org/2000/svg">
<path d="M20.5617 51.107H0.561718C0.561718 51.107 -0.702147 43.6196 0.561718 39.107C1.86235 34.4631 4.12789 32.4346 7.06172 28.607C10.9255 23.5662 18.5617 17.107 18.5617 17.107C23.5617 13.6081 27.5625 18.1085 25.0625 22.1074L19.5625 27.6074C16.5625 30.6074 19.0617 33.1085 20.5617 31.1074L29.0625 22.6074L28.5625 6.60735C28.5625 -0.891906 34.0625 -2.39529 36.0625 4.10706C36.0625 4.10706 37.5617 19.6065 37.5617 23.607C37.5617 27.6074 36.2 29.3706 34.5617 32.107C32.9235 34.8433 20.5617 46.107 20.5617 46.107V51.107Z" transform="translate(43.4375 15.8926)" fill="#E88205" stroke="#E88205" stroke-width="0.1"/>
<path d="M20.5617 51.107H0.561718C0.561718 51.107 -0.702147 43.6196 0.561718 39.107C1.86235 34.4631 4.12789 32.4346 7.06172 28.607C10.9255 23.5662 18.5617 17.107 18.5617 17.107C23.5617 13.6081 27.5625 18.1085 25.0625 22.1074L19.5625 27.6074C16.5625 30.6074 19.0617 33.1085 20.5617 31.1074L29.0625 22.6074L28.5625 6.60735C28.5625 -0.891906 34.0625 -2.39529 36.0625 4.10706C36.0625 4.10706 37.5617 19.6065 37.5617 23.607C37.5617 27.6074 36.2 29.3706 34.5617 32.107C32.9235 34.8433 20.5617 46.107 20.5617 46.107V51.107Z" transform="translate(38.5625 16) scale(-1 1)" fill="#E88205" stroke="#E88205" stroke-width="0.1"/>
<path fill-rule="evenodd" clip-rule="evenodd" d="M23.6288 5.59656C28.4491 -0.186645 37.3398 -0.690551 42.3671 5.10046C44.4335 7.47839 45.4726 9.73523 45.6132 12.2294C45.7538 14.7391 44.9843 17.5565 43.2968 21.0555C42.4765 22.7509 40.8124 24.87 38.7343 27.118C36.6679 29.3563 34.2265 31.6874 31.8827 33.8036C29.539 35.9188 27.3007 37.8143 25.6523 39.1815C24.8241 39.8651 24.1445 40.4159 23.6718 40.7968L23.4921 40.9413L23.289 40.7821C22.8007 40.3954 22.0976 39.8339 21.2421 39.1395C19.5312 37.7479 17.2187 35.8212 14.8007 33.6747C12.3788 31.5272 9.8593 29.1649 7.7343 26.9032C5.59758 24.6317 3.89836 22.4979 3.07805 20.8046C1.39445 17.3173 0.781172 14.5741 1.06633 12.1356C1.35148 9.703 2.54289 7.4989 4.62492 5.10339C9.65227 -0.687622 18.5429 -0.183716 23.3632 5.59949L23.496 5.48718L23.6288 5.59656ZM23.4882 4.25476C28.7851 -1.29309 37.871 -1.60657 43.1249 4.44519C45.2929 6.94128 46.457 9.40125 46.6132 12.1737C46.7655 14.9276 45.9179 17.9247 44.1952 21.4901C43.3085 23.327 41.5585 25.537 39.4687 27.7968C37.3749 30.0653 34.9062 32.4188 32.5507 34.5458C30.1952 36.6727 27.9452 38.579 26.289 39.952C25.457 40.6386 24.7773 41.1932 24.3007 41.5751L23.7499 42.0155L23.6054 42.1307L23.5663 42.16C23.5585 42.1659 23.5546 42.1678 23.4999 42.0995C23.4452 42.1688 23.4335 42.1669 23.4257 42.161L23.3866 42.1317L23.2382 42.0145L22.6679 41.5663C22.1757 41.1766 21.4687 40.6132 20.6093 39.9149C18.8945 38.5184 16.5702 36.5809 14.1366 34.4227C11.703 32.2645 9.16008 29.8798 7.00383 27.5878C4.8593 25.3065 3.06633 23.079 2.17961 21.2401C0.453047 17.663 -0.242266 14.7196 0.0741405 12.0194C0.390547 9.31335 1.71477 6.92664 3.86711 4.44812C9.12102 -1.60364 18.1913 -1.29309 23.4882 4.25476Z" transform="translate(18)" fill="#E88205"/>
</svg>
