<svg width="450" height="450" viewBox="0 0 450 450" fill="none" xmlns="http://www.w3.org/2000/svg">
<rect x="0.5" y="0.5" width="449" height="449" stroke="#E88205"/>
<path d="M32.0323 24.7589L7.91213 21.5442C7.49052 21.488 7.08989 21.2923 6.78528 20.9954C-3.28125 11.1848 -1.6009 7.98939 8.22561 0.520583C8.66147 0.189298 9.21995 0.050922 9.75998 0.140889L38.6374 4.95179C45.2423 6.60238 46.0376 11.1749 48.545 18.1565L86.5243 133.698H226.882" transform="translate(100 164.929)" stroke="#E88205" stroke-width="8"/>
<path d="M0 0H191.532C192.287 0 192.77 0.804627 192.414 1.47074L166.778 49.5178C161.757 57.7842 158.266 61.8949 143.661 62.7226L19.8153 69.325" transform="translate(156.801 204.543)" stroke="#E88205" stroke-width="8"/>
<path d="M0 9.90357L145.312 0" transform="translate(168.359 234.253)" stroke="#E88205" stroke-width="8"/>
<path d="M0 13.2517L69.5597 0" transform="translate(208.016 204.388) rotate(87.2993)" stroke="#E88205" stroke-width="8"/>
<path d="M0 13.7766L62.3677 0" transform="matrix(-0.194519 0.980899 -0.980929 -0.194366 280.957 207.219)" stroke="#E88205" stroke-width="8"/>
<path d="M0 11.806L65.8177 0" transform="translate(246.188 205.375) rotate(94.047)" stroke="#E88205" stroke-width="8"/>
<path d="M0 11.8057L63.7281 0" transform="matrix(-0.25634 0.966587 -0.966639 -0.256144 314.988 206.284)" stroke="#E88205" stroke-width="8"/>
<path d="M29.6625 21.3594H30.1313C30.8605 21.3594 31.7198 21.3984 32.7094 21.4766C33.699 21.5286 34.7276 21.6198 35.7954 21.75C36.8631 21.8802 37.9177 22.0625 38.9594 22.2969C40.0011 22.5052 40.9256 22.7786 41.7329 23.1172C42.5662 23.4297 43.2302 23.8073 43.725 24.25C44.2459 24.6927 44.5063 25.2005 44.5063 25.7734C44.5063 26.2161 44.35 26.724 44.0375 27.2969L40.9125 32.6484C40.1834 32.0755 39.4151 31.5026 38.6079 30.9297C37.8006 30.3307 36.9412 29.7839 36.0297 29.2891C35.1183 28.7682 34.1287 28.3125 33.061 27.9219C32.0193 27.5052 30.8865 27.1797 29.6625 26.9453V47.6094C31.824 48.5729 33.9334 49.6276 35.9907 50.7734C38.048 51.9193 39.8839 53.2083 41.4985 54.6406C43.1131 56.0469 44.4021 57.6224 45.3657 59.3672C46.3552 61.0859 46.85 63 46.85 65.1094C46.85 67.3229 46.3943 69.2891 45.4829 71.0078C44.5714 72.7266 43.3344 74.1979 41.7719 75.4219C40.2094 76.6198 38.3865 77.5573 36.3032 78.2344C34.2198 78.9375 32.0063 79.3411 29.6625 79.4453V88.7031H26.9282C25.7563 88.7031 24.949 88.4557 24.5063 87.9609C24.0896 87.4661 23.8813 86.6589 23.8813 85.5391V79.3672C21.1469 79.1328 18.4516 78.5729 15.7954 77.6875C13.1651 76.776 10.6391 75.526 8.21723 73.9375C7.64431 73.5729 7.08441 73.0911 6.53754 72.4922C5.99066 71.8932 5.71723 71.2552 5.71723 70.5781C5.71723 70.0312 5.91254 69.5495 6.30316 69.1328L10.2875 64.4062C11.173 65.2396 12.0974 66.125 13.061 67.0625C14.0506 67.974 15.1052 68.8724 16.225 69.7578C17.3448 70.6432 18.5297 71.4505 19.7797 72.1797C21.0558 72.9089 22.423 73.4688 23.8813 73.8594V53.5859C22.7615 53.013 21.5766 52.4141 20.3266 51.7891C19.0766 51.1641 17.8526 50.487 16.6547 49.7578C15.4568 49.0286 14.311 48.2344 13.2172 47.375C12.1235 46.4896 11.1599 45.5 10.3266 44.4062C9.49327 43.3125 8.82921 42.1016 8.33441 40.7734C7.86566 39.4453 7.63129 37.9609 7.63129 36.3203C7.63129 34.0286 8.08702 32.0495 8.99848 30.3828C9.90993 28.6901 11.1209 27.2708 12.6313 26.125C14.1417 24.9531 15.8735 24.0286 17.8266 23.3516C19.7797 22.6484 21.798 22.1406 23.8813 21.8281V15.8516H26.5375C27.7094 15.8516 28.5167 16.099 28.9594 16.5938C29.4282 17.0885 29.6625 17.9089 29.6625 19.0547V21.3594ZM15.4047 34.7969C15.4047 36.2812 15.6391 37.5703 16.1079 38.6641C16.5766 39.7318 17.2016 40.6693 17.9829 41.4766C18.7641 42.2578 19.6625 42.9479 20.6782 43.5469C21.7198 44.1198 22.7875 44.6406 23.8813 45.1094V26.6328C22.8396 26.7109 21.811 26.9453 20.7954 27.3359C19.7797 27.7005 18.8683 28.2344 18.061 28.9375C17.2797 29.6146 16.6417 30.4479 16.1469 31.4375C15.6521 32.401 15.4047 33.5208 15.4047 34.7969ZM38.1391 66.2422C38.1391 65.0964 37.9177 64.0547 37.475 63.1172C37.0323 62.1536 36.4334 61.2682 35.6782 60.4609C34.923 59.6536 34.0245 58.9115 32.9829 58.2344C31.9672 57.5312 30.8605 56.8672 29.6625 56.2422V74.4844C30.9386 74.3802 32.0974 74.1068 33.1391 73.6641C34.1808 73.2214 35.0662 72.6484 35.7954 71.9453C36.5506 71.2422 37.1235 70.4089 37.5141 69.4453C37.9308 68.4818 38.1391 67.4141 38.1391 66.2422Z" transform="translate(224.504 99.2061)" fill="#E88205"/>
<path d="M45.5382 24.7589C45.5382 36.2222 36.2411 45.5178 24.7691 45.5178C13.2971 45.5178 4 36.2222 4 24.7589C4 13.2956 13.2971 4 24.7691 4C36.2411 4 45.5382 13.2956 45.5382 24.7589Z" transform="translate(188.176 313.482)" stroke="#E88205" stroke-width="8"/>
<path d="M45.5382 24.7589C45.5382 36.2222 36.2411 45.5178 24.7691 45.5178C13.2971 45.5178 4 36.2222 4 24.7589C4 13.2956 13.2971 4 24.7691 4C36.2411 4 45.5382 13.2956 45.5382 24.7589Z" transform="translate(264.133 313.482)" stroke="#E88205" stroke-width="8"/>
<path d="M52.8394 0C23.657 0 0 23.6485 0 52.8203C0 81.9921 23.657 105.641 52.8394 105.641C82.0219 105.641 105.679 81.9921 105.679 52.8203C105.679 38.5498 100.018 25.6011 90.8178 16.0959" transform="matrix(0.970509 0.241064 -0.24125 0.970463 210.738 88)" stroke="#E88205" stroke-width="8"/>
</svg>
