<svg width="79" height="82" viewBox="0 0 79 82" fill="none" xmlns="http://www.w3.org/2000/svg">
<path d="M9.69928 7.5L2.84836 6.58654C2.42665 6.53032 2.02952 6.34135 1.73093 6.0383C-0.797605 3.47201 -0.430565 2.45527 2.01742 0.523661C2.44735 0.184418 3.005 0.0509635 3.54521 0.140997L11.6599 1.49343C11.6861 1.49781 11.7129 1.50335 11.7387 1.51002C13.7024 2.01833 13.9451 3.39907 14.6993 5.5L26.1993 40.5H68.6993" transform="translate(2 21.3945)" stroke="white" stroke-width="3"/>
<path d="M0 0H56.8333C57.5883 0 58.0709 0.804482 57.7157 1.47059L50.5263 14.9508C50.5088 14.9836 50.49 15.0164 50.4707 15.0482C48.9661 17.5194 47.8946 18.7503 43.5034 18.9998C43.5012 18.9999 43.4989 19.0001 43.4967 19.0002L6 21" transform="translate(19.1992 33.3945)" stroke="white" stroke-width="3"/>
<path d="M0 3L44 0" transform="translate(22.6992 42.3945)" stroke="white" stroke-width="3"/>
<path d="M0 4.01258L21.0711 0" transform="translate(34.707 33.3477) rotate(87.3004)" stroke="white" stroke-width="3"/>
<path d="M0 4.17157L18.8922 0" transform="translate(56.793 34.2051) rotate(101.212)" stroke="white" stroke-width="3"/>
<path d="M0 3.57484L19.9375 0" transform="translate(46.2656 33.6465) rotate(94.0454)" stroke="white" stroke-width="3"/>
<path d="M0 3.57484L19.3041 0" transform="translate(67.0977 33.9219) rotate(104.847)" stroke="white" stroke-width="3"/>
<path d="M9.05371 6.5918H9.20605C9.44303 6.5918 9.72233 6.60449 10.0439 6.62988C10.3656 6.64681 10.6999 6.67643 11.0469 6.71875C11.3939 6.76107 11.7367 6.82031 12.0752 6.89648C12.4137 6.96419 12.7142 7.05306 12.9766 7.16309C13.2474 7.26465 13.4632 7.38737 13.624 7.53125C13.7933 7.67513 13.8779 7.84017 13.8779 8.02637C13.8779 8.17025 13.8271 8.33529 13.7256 8.52148L12.71 10.2607C12.473 10.0745 12.2233 9.88835 11.9609 9.70215C11.6986 9.50749 11.4193 9.32975 11.123 9.16895C10.8268 8.99967 10.5052 8.85156 10.1582 8.72461C9.81966 8.58919 9.4515 8.4834 9.05371 8.40723V15.123C9.75618 15.4362 10.4417 15.779 11.1104 16.1514C11.779 16.5238 12.3757 16.9427 12.9004 17.4082C13.4251 17.8652 13.8441 18.3773 14.1572 18.9443C14.4788 19.5029 14.6396 20.125 14.6396 20.8105C14.6396 21.5299 14.4915 22.1689 14.1953 22.7275C13.8991 23.2861 13.4971 23.7643 12.9893 24.1621C12.4814 24.5514 11.889 24.8561 11.2119 25.0762C10.5348 25.3047 9.81543 25.4359 9.05371 25.4697V28.4785H8.16504C7.78418 28.4785 7.52181 28.3981 7.37793 28.2373C7.24251 28.0765 7.1748 27.8141 7.1748 27.4502V25.4443C6.28613 25.3682 5.41016 25.1862 4.54688 24.8984C3.69206 24.6022 2.87109 24.196 2.08398 23.6797C1.89779 23.5612 1.71582 23.4046 1.53809 23.21C1.36035 23.0153 1.27148 22.8079 1.27148 22.5879C1.27148 22.4102 1.33496 22.2536 1.46191 22.1182L2.75684 20.582C3.0446 20.8529 3.34505 21.1406 3.6582 21.4453C3.97982 21.7415 4.32259 22.0335 4.68652 22.3213C5.05046 22.609 5.43555 22.8714 5.8418 23.1084C6.25651 23.3454 6.70085 23.5273 7.1748 23.6543V17.0654C6.81087 16.8792 6.42578 16.6846 6.01953 16.4814C5.61328 16.2783 5.21549 16.0583 4.82617 15.8213C4.43685 15.5843 4.06445 15.3262 3.70898 15.0469C3.35352 14.7591 3.04036 14.4375 2.76953 14.082C2.4987 13.7266 2.28288 13.333 2.12207 12.9014C1.96973 12.4697 1.89355 11.9873 1.89355 11.4541C1.89355 10.7093 2.04167 10.0661 2.33789 9.52441C2.63411 8.97428 3.02767 8.51302 3.51855 8.14062C4.00944 7.75977 4.57227 7.45931 5.20703 7.23926C5.8418 7.01074 6.49772 6.8457 7.1748 6.74414V4.80176H8.03809C8.41895 4.80176 8.68132 4.88216 8.8252 5.04297C8.97754 5.20378 9.05371 5.47038 9.05371 5.84277V6.5918ZM4.41992 10.959C4.41992 11.4414 4.49609 11.8604 4.64844 12.2158C4.80078 12.5628 5.00391 12.8675 5.25781 13.1299C5.51172 13.3838 5.80371 13.6081 6.13379 13.8027C6.47233 13.9889 6.81934 14.1582 7.1748 14.3105V8.30566C6.83626 8.33105 6.50195 8.40723 6.17188 8.53418C5.8418 8.65267 5.54557 8.82617 5.2832 9.05469C5.0293 9.27474 4.82194 9.54557 4.66113 9.86719C4.50033 10.1803 4.41992 10.5443 4.41992 10.959ZM11.8086 21.1787C11.8086 20.8063 11.7367 20.4678 11.5928 20.1631C11.4489 19.8499 11.2542 19.5622 11.0088 19.2998C10.7633 19.0374 10.4714 18.7962 10.1328 18.5762C9.80273 18.3477 9.44303 18.1318 9.05371 17.9287V23.8574C9.46842 23.8236 9.84505 23.7347 10.1836 23.5908C10.5221 23.4469 10.8099 23.2607 11.0469 23.0322C11.2923 22.8037 11.4785 22.5329 11.6055 22.2197C11.7409 21.9066 11.8086 21.5596 11.8086 21.1787Z" transform="translate(39.6992 2.39453)" fill="white"/>
<circle cx="7.5" cy="7.5" r="6" transform="translate(28.6992 66.3945)" stroke="white" stroke-width="3"/>
<circle cx="7.5" cy="7.5" r="6" transform="translate(51.6992 66.3945)" stroke="white" stroke-width="3"/>
<path d="M16 0C7.16344 0 0 7.16344 0 16C0 24.8366 7.16344 32 16 32C24.8366 32 32 24.8366 32 16C32 11.6773 30.2858 7.75492 27.5 4.87568" transform="translate(35.5312 -1) rotate(13.9548)" stroke="white" stroke-width="3"/>
</svg>
