<svg width="79" height="86" viewBox="0 0 79 86" fill="none" xmlns="http://www.w3.org/2000/svg">
<path d="M0 1.6L1 0.8L2.5 0L4 4H1L0 1.6Z" transform="translate(20.5 9)" fill="white" stroke="white" stroke-width="0.5"/>
<path d="M9.5 84H4.5L5 9.5H2.5L0 7.5L2.5 5H5V2.5L7 0L9.5 2.5V5H74.5L77 7.5L74.5 9.5H9.5V84Z" transform="translate(1 1)" fill="white" stroke="white" stroke-width="0.5"/>
<path d="M55.5 0H0V41.5H55.5V0Z" transform="translate(15 13)" fill="white" stroke="white" stroke-width="0.5"/>
<path d="M47 0H0V33H47V0Z" transform="translate(19.5 17.5)" fill="#242F3C" stroke="white" stroke-width="0.5"/>
<path d="M17.5 16H11V26.5H3.5V13.5H0L14 0L28 13.5H25V26.5H17.5V16Z" transform="translate(29 20.5)" fill="white" stroke="white" stroke-width="0.5"/>
</svg>
