<svg width="450" height="450" viewBox="0 0 450 450" fill="none" xmlns="http://www.w3.org/2000/svg">
<rect x="0.5" y="0.5" width="449" height="449" stroke="#E88205"/>
<path d="M0 5.35238L3.33766 2.67619L8.34416 0L13.3506 13.381H3.33766L0 5.35238Z" transform="translate(305.605 111.762) scale(-1 1)" fill="#E88205" stroke="#E88205" stroke-width="0.5"/>
<path d="M0 5.35238L3.33766 2.67619L8.34416 0L13.3506 13.381H3.33766L0 5.35238Z" transform="translate(162.086 111.762)" fill="#E88205" stroke="#E88205" stroke-width="0.5"/>
<path d="M31.7078 281H15.0195L16.6883 31.7798H8.34416L0 25.0893L8.34416 16.7262H16.6883V8.3631L23.3636 0L31.7078 8.3631V16.7262H248.656L257 25.0893L248.656 31.7798H31.7078V281Z" transform="translate(97 85)" fill="#E88205" stroke="#E88205" stroke-width="0.5"/>
<path d="M185.24 0H0V138.827H185.24V0Z" transform="translate(143.727 125.143)" fill="#E88205" stroke="#E88205" stroke-width="0.5"/>
<path d="M156.87 0H0V110.393H156.87V0Z" transform="translate(158.746 140.197)" fill="#1B2530" stroke="#E88205" stroke-width="0.5"/>
<path d="M58.4091 53.5238H36.7143V88.6488H11.6818V45.1607H0L46.7273 0L93.4545 45.1607H83.4416V88.6488H58.4091V53.5238Z" transform="translate(190.457 150.232)" fill="#E88205" stroke="#E88205" stroke-width="0.5"/>
</svg>
