<svg width="450" height="450" viewBox="0 0 450 450" fill="none" xmlns="http://www.w3.org/2000/svg">
<rect x="0.5" y="0.5" width="449" height="449" stroke="#E88205"/>
<rect width="8.67154" height="36.7199" transform="matrix(-0.283248 -0.959047 0.959375 -0.282134 227.953 137.935)" fill="#E88205"/>
<path d="M112.447 57.3506C112.447 87.6388 87.8399 112.201 57.4737 112.201C27.1075 112.201 2.5 87.6388 2.5 57.3506C2.5 27.0625 27.1075 2.5 57.4737 2.5C87.8399 2.5 112.447 27.0625 112.447 57.3506Z" transform="translate(243.461 180.194)" stroke="#E88205" stroke-width="5"/>
<ellipse cx="17.2421" cy="17.2052" rx="17.2421" ry="17.2052" transform="translate(283.719 203.127)" fill="#E88205"/>
<path d="M23.1529 0C6.21392 1.98023 -1.26825 15.7714 0.17468 21.5065C15.8053 34.4104 50.2895 32.9766 63.3845 22.9403C66.2702 20.0727 61.9446 3.48634 38.9582 0L31.774 5.73506L23.1529 0Z" transform="translate(269.352 240.414)" fill="#E88205" stroke="#E88205" stroke-width="0.5"/>
<path d="M105.263 53.7662C105.263 82.0748 82.2639 105.032 53.8816 105.032C25.4993 105.032 2.5 82.0748 2.5 53.7662C2.5 25.4577 25.4993 2.5 53.8816 2.5C82.2639 2.5 105.263 25.4577 105.263 53.7662Z" transform="translate(121.328 255.467)" stroke="#E88205" stroke-width="5"/>
<ellipse cx="16.1645" cy="16.1299" rx="16.1645" ry="16.1299" transform="translate(159.059 276.963)" fill="#E88205"/>
<path d="M21.7059 0C5.82555 1.85647 -1.18899 14.7857 0.163763 20.1623C14.8174 32.2597 47.1464 30.9156 59.423 21.5065C62.1283 18.8182 58.0731 3.26844 36.5233 0L29.7881 5.37662L21.7059 0Z" transform="translate(145.59 311.919)" fill="#E88205" stroke="#E88205" stroke-width="0.5"/>
<ellipse cx="19.7566" cy="19.7143" rx="19.7566" ry="19.7143" transform="translate(257.828 97.7534)" fill="#E88205"/>
<ellipse cx="19.7566" cy="19.7143" rx="19.7566" ry="19.7143" transform="translate(322.484 309.234)" fill="#E88205"/>
<rect width="8.6297" height="27.6488" transform="matrix(0.931348 -0.364131 0.365487 0.930817 321.672 288.924)" fill="#E88205"/>
<rect width="8.67481" height="42.4659" transform="matrix(-0.506424 -0.862285 0.86323 -0.504811 219.648 288.575)" fill="#E88205"/>
<rect width="8.67473" height="38.0971" transform="matrix(0.502104 -0.864807 0.865739 0.500495 218.316 198.453)" fill="#E88205"/>
<rect width="8.68839" height="34.1229" transform="matrix(0.992922 -0.118772 0.119275 0.992861 159.172 226.436)" fill="#E88205"/>
<path d="M141.184 71.6883C141.184 109.895 110.144 140.877 71.8421 140.877C33.5405 140.877 2.5 109.895 2.5 71.6883C2.5 33.4817 33.5405 2.5 71.8421 2.5C110.144 2.5 141.184 33.4817 141.184 71.6883Z" transform="translate(89 87)" stroke="#E88205" stroke-width="5"/>
<ellipse cx="21.5526" cy="21.5065" rx="21.5526" ry="21.5065" transform="translate(139.289 115.675)" fill="#E88205"/>
<path d="M28.9412 0C7.7674 2.47529 -1.58531 19.7143 0.218351 26.8831C19.7566 43.013 62.8618 41.2208 79.2306 28.6753C82.8377 25.0909 77.4308 4.35792 48.6978 0L39.7175 7.16883L28.9412 0Z" transform="translate(121.328 162.273)" fill="#E88205" stroke="#E88205" stroke-width="0.5"/>
</svg>
