<svg width="76" height="77" viewBox="0 0 76 77" fill="none" xmlns="http://www.w3.org/2000/svg">
<circle cx="16" cy="16" r="14.5" transform="translate(43 26)" stroke="white" stroke-width="3"/>
<circle cx="4.8" cy="4.8" r="4.8" transform="translate(54.207 32.3975)" fill="white"/>
<path d="M6.44551 0C1.72988 0.552457 -0.353066 4.4 0.048629 6C4.4 9.6 14 9.2 17.6455 6.4C18.4488 5.6 17.2447 0.972637 10.8455 0L8.84551 1.6L6.44551 0Z" transform="translate(50.207 42.7993)" fill="white" stroke="white" stroke-width="0.5"/>
<circle cx="15" cy="15" r="13.5" transform="translate(9 47)" stroke="white" stroke-width="3"/>
<circle cx="4.5" cy="4.5" r="4.5" transform="translate(19.5039 52.9971)" fill="white"/>
<path d="M6.04266 0C1.62176 0.517928 -0.331 4.125 0.0455897 5.625C4.125 9 13.125 8.625 16.5427 6C17.2958 5.25 16.1669 0.911847 10.1677 0L8.29266 1.5L6.04266 0Z" transform="translate(15.7539 62.749)" fill="white" stroke="white" stroke-width="0.5"/>
<circle cx="5.5" cy="5.5" r="5.5" transform="translate(47 3)" fill="white"/>
<circle cx="5.5" cy="5.5" r="5.5" transform="translate(65 62)" fill="white"/>
<rect width="2.40309" height="7.7114" transform="translate(64.7734 56.334) rotate(-21.3958)" fill="white"/>
<rect width="2.41882" height="11.8285" transform="translate(36.3711 56.2363) rotate(-120.372)" fill="white"/>
<rect width="2.41882" height="11.8285" transform="translate(36 31.0938) rotate(-59.914)" fill="white"/>
<rect width="2.41882" height="10.2241" transform="translate(19.5352 38.9004) rotate(-6.83571)" fill="white"/>
<circle cx="20" cy="20" r="18.5" stroke="white" stroke-width="3"/>
<circle cx="6" cy="6" r="6" transform="translate(14 8)" fill="white"/>
<path d="M8.05688 0C2.16235 0.690571 -0.441333 5.5 0.0607863 7.5C5.5 12 17.5 11.5 22.0569 8C23.061 7 21.5558 1.2158 13.5569 0L11.0569 2L8.05688 0Z" transform="translate(9 21)" fill="white" stroke="white" stroke-width="0.5"/>
<rect width="2.41882" height="10.2241" transform="translate(38.6836 14.21) rotate(-106.421)" fill="white"/>
</svg>
