<svg width="450" height="450" viewBox="0 0 450 450" fill="none" xmlns="http://www.w3.org/2000/svg">
<rect x="0.5" y="0.5" width="449" height="449" stroke="#E88205"/>
<path d="M52.1571 29.8344C52.1571 42.1707 42.1589 52.1688 29.8286 52.1688C17.4982 52.1688 7.5 42.1707 7.5 29.8344C7.5 17.4981 17.4982 7.5 29.8286 7.5C42.1589 7.5 52.1571 17.4981 52.1571 29.8344Z" transform="translate(92.4258 255.331)" stroke="#E88205" stroke-width="15"/>
<path d="M52.1571 29.8344C52.1571 42.1707 42.1589 52.1688 29.8286 52.1688C17.4982 52.1688 7.5 42.1707 7.5 29.8344C7.5 17.4981 17.4982 7.5 29.8286 7.5C42.1589 7.5 52.1571 17.4981 52.1571 29.8344Z" transform="translate(301.23 255.331)" stroke="#E88205" stroke-width="15"/>
<path d="M29.8286 150.829C34.8 89.4968 111.029 99.4481 111.029 150.829C111.469 153.341 112.231 154.405 114.343 155.802H232L238.629 152.487C240.286 89.4968 321.486 96.1266 319.829 152.487C319.633 156.892 321.259 157.361 324.8 157.459H343.029C346.362 157.125 347.692 156.065 348 150.83V134.255C347.394 131.229 346.588 129.912 343.029 129.282V87.8458C341.792 84.4678 340.445 82.9554 336.4 81.2159L304.914 69.6136C289.065 43.3911 276.18 32.6903 241.943 24.862L238.629 6.62987C236.949 2.69749 235.477 1.06384 231.134 0H170.686C167.473 0.298449 165.947 0.906538 164.057 3.31493L157.429 28.1769C123.654 34.0565 107.918 43.9646 84.5143 71.2711H66.2857C52.0673 72.9532 44.7429 72.9221 29.8286 79.5584C14.9143 86.1948 8.28571 96.1266 8.28571 96.1266H24.8571C33.1429 97.7776 33.1429 111.724 24.8571 112.701H6.62857L4.97143 129.282C1.7882 129.982 1.20856 131.58 0 134.255V150.829C1.57402 154.124 3.12402 155.081 6.62857 155.802H26.5143C28.692 154.98 29.4722 153.961 29.8286 150.829Z" transform="translate(51 136)" fill="#E88205" stroke="#E88205"/>
<path d="M0 23.2175L3.31429 0C12.5868 5.39735 20.9348 15.008 24.8571 23.2175H0Z" transform="translate(319.457 184.061)" fill="#131C25" stroke="#131C25"/>
<path d="M0 38.2971L9.94286 1.83289C23.721 -1.30354 59.6571 -1.50203 69.6 10.1162V10.1202L64.6286 38.2972L0 38.2971Z" transform="translate(243.227 168.988)" fill="#131C25" stroke="#131C25"/>
<path d="M79.5429 36.6328L89.4857 0.181438C44.1902 -1.44609 24.3261 7.64992 0 36.6328H79.5429Z" transform="translate(152.086 170.632)" fill="#131C25" stroke="#131C25"/>
<rect width="16.5714" height="16.5747" transform="translate(168.656 228.825)" fill="#131C25"/>
<rect width="16.5714" height="16.5747" transform="translate(185.23 245.399)" fill="#131C26"/>
<rect width="16.5714" height="16.5747" transform="translate(201.801 228.825)" fill="#131C25"/>
<rect width="16.5714" height="16.5747" transform="translate(218.371 245.399)" fill="#131C26"/>
<rect width="16.5714" height="16.5747" transform="translate(238.258 228.825)" fill="#131C25"/>
<rect width="16.5714" height="16.5747" transform="translate(271.398 228.825)" fill="#131C25"/>
<rect width="16.5714" height="16.5747" transform="translate(254.828 245.399)" fill="#131C26"/>
</svg>
